<?xml version="1.0" encoding="UTF-8" standalone="no"?>
<!-- Created with Inkscape (http://www.inkscape.org/) -->

<svg
   version="1.1"
   id="svg2"
   width="600"
   height="600"
   viewBox="0 0 600 599.99999"
   sodipodi:docname="popcorn.svg"
   inkscape:version="1.2.2 (b0a8486541, 2022-12-01)"
   xmlns:inkscape="http://www.inkscape.org/namespaces/inkscape"
   xmlns:sodipodi="http://sodipodi.sourceforge.net/DTD/sodipodi-0.dtd"
   xmlns="http://www.w3.org/2000/svg"
   xmlns:svg="http://www.w3.org/2000/svg">
  <defs
     id="defs6">
    <clipPath
       clipPathUnits="userSpaceOnUse"
       id="clipPath18">
      <path
         d="M 0,841.89 H 595.28 V 0 H 0 Z"
         id="path16" />
    </clipPath>
  </defs>
  <sodipodi:namedview
     id="namedview4"
     pagecolor="#ffffff"
     bordercolor="#666666"
     borderopacity="1.0"
     inkscape:showpageshadow="2"
     inkscape:pageopacity="0.0"
     inkscape:pagecheckerboard="0"
     inkscape:deskcolor="#d1d1d1"
     showgrid="false"
     inkscape:zoom="0.75277052"
     inkscape:cx="201.92077"
     inkscape:cy="352.03291"
     inkscape:window-width="1915"
     inkscape:window-height="1031"
     inkscape:window-x="5"
     inkscape:window-y="0"
     inkscape:window-maximized="1"
     inkscape:current-layer="g10">
    <inkscape:page
       x="0"
       y="0"
       id="page8"
       width="600"
       height="600" />
  </sodipodi:namedview>
  <g
     id="g10"
     inkscape:groupmode="layer"
     inkscape:label="Page 1"
     transform="matrix(1.3333333,0,0,-1.3333333,0,1122.52)">
    <rect
       style="fill:#101010;fill-opacity:1;stroke-width:2.84632;stop-color:#000000"
       id="rect912"
       width="451.55728"
       height="450.81149"
       x="-0.42579409"
       y="-841.89746"
       transform="scale(1,-1)"
       rx="2.3721783"
       ry="2.1284244" />
    <g
       id="g14"
       clip-path="url(#clipPath18)"
       transform="matrix(0.56047793,0,0,0.56047793,66.438957,389.84021)">
      <g
         id="g20"
         transform="translate(463.1055,152.1543)">
        <path
           d="m 0,0 c -0.237,9.133 -0.825,15.899 -7.318,20.259 -6.766,4.539 -13.136,-1.263 -20.004,-0.834 10.14,11.637 24.094,7.803 31.069,-8.143 18.865,11.398 35.296,8.202 44.172,-8.591 8.778,-16.609 2.73,-37.818 -13.198,-45.454 -8.978,-4.303 -17.92,-3.564 -26.447,1.581 -1.798,1.087 -3.627,2.754 -5.223,0.09 -1.455,-2.421 1.373,-2.694 2.427,-3.649 9.777,-8.854 12.166,-14.785 8.323,-21.165 -3.628,-6.024 -12.973,-7.691 -23.721,-4.652 -2.526,0.712 -4.893,3.991 -8.217,-0.553 -8.821,-12.06 -17.059,-14.745 -26.187,-10 -9.023,4.691 -13.358,17.88 -9.825,29.929 0.165,0.571 0.388,1.141 0.691,1.649 3.477,5.797 5.404,10.241 -0.491,17.115 -6.624,7.721 -0.491,19.362 9.95,20.468 5.306,0.564 5.474,2.502 5.044,6.539 -0.616,5.75 0.553,11.235 3.295,16.39 0.797,1.502 0.894,4 3.291,3.175 2.352,-0.806 1.245,-2.783 0.56,-4.426 -1.028,-2.462 -2.327,-4.884 -2.884,-7.459 -2.747,-12.699 1.244,-18.756 13.769,-21.467 7.596,-1.642 11.708,-6.538 12.937,-14.088 0.382,-2.35 -1.299,-5.59 2.934,-6.333 3.276,-0.575 5.325,1.114 6.536,3.544 2.247,4.509 3.956,2.093 6.478,0.223 11.944,-8.865 25.229,-7.223 33.903,3.943 9.578,12.332 7.584,31.406 -4.291,41.088 C 27.306,17.548 14.11,15.942 4.253,5.107 3.28,4.038 2.396,2.888 0,0"
           style="fill:#1d1d1d;fill-opacity:1;fill-rule:evenodd;stroke:none"
           id="path22" />
      </g>
      <g
         id="g24"
         transform="translate(431.2969,161.8818)">
        <path
           d="m 0,0 c -1.028,-2.462 -2.327,-4.884 -2.885,-7.459 -2.747,-12.698 1.244,-18.756 13.77,-21.467 7.595,-1.641 11.708,-6.538 12.936,-14.088 0.382,-2.349 -1.299,-5.59 2.935,-6.333 3.275,-0.575 5.325,1.115 6.536,3.544 2.247,4.509 3.956,2.093 6.478,0.224 11.944,-8.865 25.229,-7.224 33.903,3.942 9.578,12.332 7.584,31.407 -4.291,41.088 C 59.114,7.82 45.919,6.215 36.062,-4.62 35.089,-5.689 34.204,-6.84 31.809,-9.728 31.571,-0.595 31.237,6.577 24.49,10.531 10.453,18.758 0.685,1.644 0,0"
           style="fill:#fefdf0;fill-opacity:1;fill-rule:evenodd;stroke:none"
           id="path26" />
      </g>
      <g
         id="g28"
         transform="translate(423.4854,113.7842)">
        <path
           d="m 0,0 c -9.43,-7.001 -12.947,-15.748 -11.355,-26.319 0.987,-6.551 4.386,-11.933 10.973,-13.968 5.932,-1.834 11.174,0.399 15.246,4.984 1.556,1.754 3.216,3.703 3.927,5.863 1.551,4.703 3.654,5.757 8.061,2.979 4.908,-3.095 10.545,-4.115 16.29,-3.07 7.749,1.407 10.221,7.438 5.654,13.849 -3.736,5.246 -8.878,9.174 -15.115,10.437 -4.927,1 -6.755,2.091 -6.065,7.761 0.925,7.573 -5.314,14.037 -12.485,12.682 C 9.674,14.167 7.465,16.169 4.397,19.7 0.86,23.772 -4.164,24.03 -8.492,20.754 -12.762,17.523 -13.524,13.071 -11.388,7.989 -9.403,3.269 -4.9,2.295 0,0"
           style="fill:#1d1d1d;fill-opacity:1;fill-rule:evenodd;stroke:none"
           id="path30" />
      </g>
      <g
         id="g32"
         transform="translate(448.3311,486.5107)">
        <path
           d="m 0,0 c -0.831,2.459 -1.43,3.796 -1.731,5.196 -1.04,4.835 0.737,9.02 5.617,9.128 4.288,0.095 6.167,-4.152 6.071,-8.402 -0.055,-2.379 -1.63,-4.133 0.772,-7.003 6.485,-7.754 2.803,-16.779 -7.292,-19.294 -2.863,-0.712 -5.931,-0.632 -8.756,-1.433 -5.67,-1.606 -10.701,-1.28 -14.165,4.066 -2.672,4.121 -2.405,8.537 0.28,12.532 3.376,5.02 7.906,7.92 14.314,6.317 C -3.772,0.829 -2.643,0.597 0,0"
           style="fill:#fdfdfd;fill-opacity:1;fill-rule:evenodd;stroke:none"
           id="path34" />
      </g>
      <g
         id="g36"
         transform="translate(455.1182,527.0957)">
        <path
           d="M 0,0 C 2.209,-7.965 1.505,-14.179 -1.814,-20.487 -4.164,-17.233 -4.164,-17.233 0,0"
           style="fill:#fdfdfd;fill-opacity:1;fill-rule:evenodd;stroke:none"
           id="path38" />
      </g>
      <g
         id="g40"
         transform="translate(423.4854,113.7842)">
        <path
           d="m 0,0 c -4.9,2.295 -9.403,3.269 -11.388,7.989 -2.136,5.082 -1.374,9.534 2.896,12.765 4.328,3.276 9.352,3.018 12.889,-1.054 3.068,-3.531 5.277,-5.533 10.734,-4.502 7.171,1.355 13.41,-5.109 12.485,-12.682 -0.69,-5.67 1.138,-6.761 6.065,-7.761 6.237,-1.263 11.379,-5.191 15.115,-10.437 4.567,-6.411 2.095,-12.442 -5.654,-13.849 -5.745,-1.045 -11.382,-0.025 -16.29,3.07 -4.407,2.778 -6.51,1.724 -8.061,-2.979 -0.711,-2.16 -2.371,-4.109 -3.927,-5.863 -4.072,-4.585 -9.314,-6.818 -15.246,-4.984 -6.587,2.035 -9.986,7.417 -10.973,13.968 C -12.947,-15.748 -9.43,-7.001 0,0"
           style="fill:#fefdf0;fill-opacity:1;fill-rule:evenodd;stroke:none"
           id="path42" />
      </g>
      <g
         id="g44"
         transform="translate(404.8184,548.5527)">
        <path
           d="m 0,0 c -5.924,-3.894 -1.965,-7.169 -0.545,-10.329 0.496,-1.083 2.723,-1.338 2.951,-0.279 C 3.291,-7.089 1.229,-4.076 0,0 m 46.557,-21.608 c -4.188,-17.279 -4.188,-17.279 -1.852,-20.555 3.344,6.329 4.057,12.555 1.852,20.555 m -332.679,-4.615 c 10.226,-1.813 10.983,-1.191 15.037,8.825 0.744,1.832 1.693,2.907 -0.674,4.009 -1.847,0.873 -2.441,-0.166 -3.249,-1.599 -2.486,-4.433 -5.745,-8.287 -11.114,-11.235 m 217.21,87.632 c -4.979,-1.198 -10.231,7.341 -14.401,0.149 -1.894,-3.23 1.764,-7.114 3.879,-7.861 5.87,-2.098 6.834,4.817 10.522,7.712 M -168.63,-60.776 c 0.594,-1.005 1.154,-2.047 1.784,-3.01 3.061,-4.631 10.752,-4.664 13.557,0.132 0.989,1.737 -0.354,5.801 -0.681,5.523 -4.435,-3.968 -10.018,2.095 -14.66,-2.645 m 91.716,88.513 c -3.311,-5.333 -3.076,-15.827 1.603,-19 4.118,-2.764 9.657,0.641 14.692,0.809 -8.035,3.787 -12.777,10.261 -16.295,18.191 M -2.639,9.713 c -2.947,-1.363 -3.304,-4.8 -5.463,-6.764 -2.201,-1.964 -5.105,-3.374 -6.732,-5.716 -2.478,-3.483 -5.268,-7.415 0.439,-11.134 2.293,-1.458 3.79,-4.135 6.219,-6.87 0.606,4.263 5.811,6.244 3.061,9.719 -4.688,5.835 -2.596,10.242 1.48,14.927 1.326,1.547 2.328,3.552 0.996,5.838 m -251.256,-61.976 c 5.554,2.351 13.285,-8.859 16.662,3.287 2.879,10.547 -9.217,7.112 -11.795,13.218 0.256,-6.202 -0.738,-11.496 -4.867,-16.505 M 3.594,19.656 c 8.724,9.155 8.728,9.327 24.095,11.179 2.592,0.317 2.887,1.01 2.748,2.993 C 30.039,39.767 20.285,46.904 15.172,44.083 9.582,41.048 3.811,37.193 0.234,32.161 -1.916,29.155 2.201,24.049 3.594,19.656 m -306.236,-95.804 c -1.221,-0.221 -4.277,2.695 -4.663,-1.728 -0.399,-4.053 3.105,-2.655 5.028,-3.266 11.835,-3.738 24.5,-2.61 36.357,-5.888 5.036,-1.406 7.504,0.709 8.974,4.385 1.509,3.751 -2.461,5.09 -4.619,6.06 -4.674,2.067 -7.494,5.466 -10.007,9.65 -1.699,2.842 -0.223,8.107 -6.392,7.805 -5.266,-0.247 -6.613,-3.431 -8.363,-7.498 -2.869,-6.541 -8.278,-9.855 -16.315,-9.52 M 39.66,-62.291 c -2.621,0.612 -3.783,0.844 -4.887,1.136 -6.455,1.613 -10.964,-1.284 -14.365,-6.314 -2.672,-3.988 -2.957,-8.4 -0.336,-12.555 3.485,-5.381 8.524,-5.703 14.215,-4.102 2.834,0.783 5.895,0.708 8.789,1.411 10.145,2.496 13.811,11.529 7.354,19.331 -2.432,2.863 -0.809,4.631 -0.78,7.02 0.11,4.26 -1.763,8.511 -6.045,8.422 -4.869,-0.09 -6.707,-4.292 -5.648,-9.126 0.291,-1.411 0.893,-2.765 1.703,-5.223 m -305.689,-5.64 c -0.155,6.316 6.002,9.574 7.6,14.967 2.413,7.992 8.22,15.582 -0.2,23.365 -0.071,0.066 0.165,0.549 0.261,0.824 1.893,4.208 0.428,7.625 -2.975,10.153 -1.715,1.291 -4.015,1.257 -5.795,-0.376 -3.338,-3.218 -2.94,-6.844 -1.015,-10.628 0.302,-0.602 -0.112,-1.533 -0.231,-2.493 -2.59,0.571 -4.889,1.603 -7.108,1.497 -7.633,-0.4 -12.263,-4.945 -13.247,-12.167 -0.914,-6.45 3.294,-12.844 9.057,-11.884 9.182,1.545 9.815,-3.697 11.552,-9.425 0.401,-1.382 1.386,-2.557 2.101,-3.833 m 24.321,66.54 c 7.621,6.36 9.281,14.058 6.182,22.752 -1.519,4.208 -3.216,7.007 2.173,10.608 5.234,3.51 4.288,10.098 1.347,15.489 -2.115,3.856 -5.425,6.774 -10.142,5.071 -5.91,-2.141 -6.707,-7.466 -5.706,-12.65 0.949,-4.587 -0.75,-5.164 -4.668,-5.996 -6.597,-1.455 -9.071,-6.876 -10.22,-13.24 -1.177,-6.518 4.549,-6.017 7.689,-7.893 5.754,-3.484 9.856,-8.375 13.345,-14.141 m 223.72,108.354 c -0.225,11.869 -8.198,21.705 -18.151,23.134 -9.502,1.315 -19.088,-5.618 -21.886,-15.844 -0.618,-2.262 -1.948,-4.505 1.134,-6.145 8.981,-4.711 14.088,-15.362 26.104,-15.914 3.26,-0.154 5.582,-0.157 7.734,1.695 4.194,3.575 4.69,8.713 5.065,13.074 M -201.764,-92.975 c -4.467,5.502 -9.172,7.411 -14.114,8.3 -3.77,0.674 -4.508,1.66 -4.051,5.722 0.985,8.797 -4.947,15.552 -12.713,14.391 -4.856,-0.728 -7.125,0.309 -10.074,4.011 -3.888,4.789 -9.39,5.042 -14.16,0.68 -4.539,-4.13 -4.09,-11.653 0.941,-15.703 2.242,-1.775 5.08,-2.798 7.62,-4.15 -1.465,-3.351 -6.531,-4.24 -6.322,-8.56 16.99,-6.132 34.219,-4.639 52.873,-4.691 m 190.789,65.182 c -2.517,8.947 -6.793,14.551 -16.023,13.416 -8.684,-1.071 -14.027,-6.485 -16.055,-14.632 -1.572,-6.375 -0.691,-12.786 5.785,-16.428 9.834,-5.513 16.838,0.189 23.495,6.973 3.642,-7.063 8.763,-9.293 15.244,-4.656 5.035,3.592 7.668,8.933 4.216,14.77 -4.433,7.485 -10.386,4.351 -16.662,0.557 m -290.247,-5.895 c -3.488,4.463 -5.614,10.511 -12.38,8.993 -4.873,-1.076 -6.238,-5.254 -6.393,-9.651 -0.36,-9.179 4.365,-14.696 13.212,-16.576 -2.105,-4.795 -4.786,-6.83 -9.822,-6.259 -3.783,0.452 -6.589,-2.403 -8.103,-5.988 -1.087,-2.536 -0.277,-4.644 1.808,-6.339 2.919,-2.404 6.226,-2.524 9.095,-0.414 2.956,2.167 4.872,1.396 7.706,-0.498 5.23,-3.512 10.946,-2.367 14.069,2.691 2.505,4.075 7.432,8.477 2.299,14.604 -5.007,6.037 -3.861,12.715 0.109,19.107 0.825,1.315 3.297,2.695 1.238,4.388 -1.217,1.018 -3.326,1.189 -5.027,1.224 -3.352,0.11 -5.304,-2.336 -7.811,-5.282 M 13.23,-73.901 c 5.045,12.445 5.045,12.445 17.604,17.34 5.674,2.23 8.346,15.593 3.916,19.636 -9.105,8.279 -19.496,6.714 -25.928,-3.946 -4.98,-8.17 -11.656,-10.634 -20.482,-6.254 -5.787,2.862 -9.006,-1.411 -10.975,-4.159 -1.779,-2.501 2.119,-6.233 5.248,-6.705 6.022,-0.852 6.352,-4.137 5.936,-9.109 -0.348,-3.792 2.09,-6.956 5.689,-8.381 3.17,-1.231 7.053,-1.378 8.932,1.894 3.646,6.387 6.842,2.354 10.06,-0.316 m -156.432,-19.27 c 6.893,-0.02 13.759,0.034 20.647,-0.071 3.54,-0.084 6.699,0.168 7.476,4.498 0.695,3.784 0.145,7.281 -3.329,9.48 -8.673,5.475 -15.148,12.34 -17.98,22.657 -1.456,5.213 -4.421,13.318 -9.963,11.774 -5.691,-1.59 -3.73,-10.133 -2.363,-15.211 1.549,-5.727 -0.782,-6.874 -5.1,-8.709 -7.407,-3.137 -12.704,-8.709 -15.455,-16.508 -1.863,-5.264 -1.745,-8.519 5.42,-7.989 6.857,0.505 13.759,0.083 20.647,0.079 m 91.122,232.945 c 0.008,1.197 0.178,2.394 -0.037,3.579 -1.637,10.686 -6.774,18.946 -17.088,23.179 -8.949,3.692 -16.723,1.084 -24.055,-4.6 -4.951,-3.806 -5.328,-9.492 -5.543,-14.444 -0.168,-3.702 5.307,-2.089 8.11,-3.303 12.781,-5.476 20.865,-14.365 22.64,-28.469 0.248,-1.809 -1.01,-4.386 2.395,-4.718 3.295,-0.313 2.504,2.151 3.263,3.96 1.459,3.515 3.09,7.193 5.561,9.996 3.775,4.413 5.059,9.274 4.754,14.82 m -27.9,-35.334 c 5.076,-8.936 7.298,-18.846 3.996,-28.373 -3.049,-8.84 1.269,-10.745 7.548,-9.993 10.348,1.238 16.25,-5.517 23.204,-10.699 1.839,-1.401 2.263,-5.352 6.164,-2.98 3.214,1.933 3.277,4.431 2.627,7.646 -1.555,7.563 -0.428,14.848 2.726,21.837 2.998,6.557 1.027,9.982 -6.121,8.551 -4.994,-1.029 -6.334,0.527 -8.529,4.357 -6.526,11.551 -18.711,15.138 -31.615,9.654 M 19.561,-86.38 c -4.768,6.818 -7.903,13.532 -18.038,7.241 -6.451,-3.969 -14.076,1.086 -16.511,8.882 -3.778,11.959 -12.866,17.851 -24.311,21.148 -2.539,0.76 -3.4,-0.717 -3.566,-2.5 -0.836,-10.64 -14.004,-19.07 -5.6,-31.385 0.516,-0.757 -0.084,-2.324 -0.295,-3.498 -0.972,-5.474 1.266,-6.837 6.75,-7.075 20.719,-0.947 40.61,3.95 61.571,7.187 m -23.02,66.277 c 8.605,0.954 12.197,-4.376 15.213,-10.475 6.486,3.272 12.969,3.562 19.834,0.81 2.365,-0.934 4.299,-5.34 7.471,-2.161 2.947,3.081 3.513,7.941 1.072,10.799 -4.529,5.317 -1.717,8.525 1.178,12.897 5.572,8.363 4.742,19.867 -1.45,27.598 C 34.203,26.426 26.787,28.592 18.26,26.06 10.52,23.789 4.271,14.355 3.852,5.165 3.518,-2.317 7.404,-8.34 11.465,-14.563 c -5.442,-0.565 -11,1.112 -14.924,-5.54 m -186.274,65.231 c 9.996,6.85 17.268,4.03 24.495,-0.644 5.669,-3.646 12.97,-0.899 13.812,5.666 1.381,10.804 4.879,20.119 13.271,27.6 3.613,3.2 8.626,8.894 5.529,12.694 -3.688,4.517 -9.596,-0.408 -13.276,-3.335 -4.948,-3.923 -7.93,-4.097 -13.087,0.289 -10.323,8.702 -24.604,7.957 -32.521,-0.327 -7.339,-7.641 -7.044,-19.632 2.173,-29.743 3.64,-4.015 1.203,-6.585 -0.396,-12.2 m 17.651,51.973 c 6.915,-2.122 11.198,2.11 14.851,7.748 3.935,6.005 5.722,12.653 4.602,19.637 -0.827,5.057 -1.067,7.915 5.257,9.858 7.575,2.287 11.3,12.982 8.742,21.288 -1.776,5.709 -5.074,10.497 -11.765,10.737 -6.417,0.25 -11.745,-6.952 -13.036,-16.877 -0.027,-0.32 -0.038,-0.61 -0.003,-0.918 0.58,-3.708 -1.377,-3.702 -4.209,-3.11 -9.876,2.036 -16.001,-3.453 -20.339,-11.159 -9.435,-16.727 -1.253,-36.22 15.9,-37.204 M -297.538,17.156 c -10.583,-9.404 -13.988,-19.239 -10.277,-29.447 2.276,-6.34 6.278,-11.266 13.418,-11.326 10.761,-0.067 15.049,7.988 18.466,16.514 10.474,-4.876 14.217,-5.897 19.739,-5.522 4.04,0.265 7.871,1.156 9.584,5.307 1.498,3.754 -0.361,6.919 -2.7,9.819 -4.092,5.034 -9.372,8.525 -15.618,9.73 -4.2,0.822 -4.962,2.23 -4.689,6.425 0.513,9.164 -5.005,14.854 -13.213,13.745 -4.198,-0.559 -6.396,0.044 -9.068,3.565 -3.973,5.148 -9.594,5.999 -14.812,1.309 -4.467,-4.002 -3.908,-11.741 1.089,-15.778 2.244,-1.792 5.176,-2.822 8.081,-4.341 m 113.665,-70.173 c 1.632,1.144 2.868,1.979 4.05,2.865 6.223,4.835 9.344,11.123 6.822,18.806 -2.187,6.606 -7.502,9.887 -14.539,9.569 -8.341,-0.444 -16.062,-5.044 -16.415,-12.561 -0.5,-9.654 -5.293,-13.344 -12.205,-17.544 -3.612,-2.215 -9.445,-6.701 -5.662,-11.337 6.594,-8.15 9.475,-18.823 20.172,-24.523 6.006,-3.224 11.337,-4.481 17.713,-5.622 10.939,-1.932 9.281,6.869 11.982,12.093 0.288,0.525 0.425,1.17 0.835,1.578 6.717,7.214 2.503,13.006 -2.668,18.326 -2.903,2.973 -6.375,5.324 -10.085,8.35 m -82.384,79.897 c 2.255,2.899 3.457,5.744 5.584,6.885 6.013,3.24 8.773,7.316 9.777,14.62 1.299,9.277 13.009,11.684 19.575,4.812 5.769,-5.994 7.8,-14.114 3.222,-20.488 -4.851,-6.722 -3.721,-11.865 -0.883,-18.283 11.918,4.142 18.35,12.387 19.368,24.543 0.978,11.938 -2.986,22.052 -13.797,28.038 -13.662,7.601 -24.062,0.751 -33.416,-10.143 -1.001,9.713 -1.833,18.5 -12.394,20.517 -8.326,1.573 -16.909,-4.529 -21.351,-14.518 -2.481,-5.63 -3.359,-11.524 -1.335,-17.463 1.613,-4.701 4.166,-9.01 9.925,-8.841 7.108,0.227 11.743,-3.316 15.725,-9.679 m 143.087,82.789 c 15.387,9.717 22.537,10.046 37.266,0.507 5.035,-3.23 8.824,0.049 12.502,1.326 3.609,1.274 1.338,5.725 0.466,8.658 -4.205,14.153 -15.232,21.292 -34.269,22.444 6.978,12.322 7.17,17.349 0.882,23.822 -7.213,7.434 -20.649,9.197 -29.858,4.283 -3.773,-1.992 -4.143,-3.556 -1.9,-7.447 6.938,-12.072 4.819,-22.95 -5.537,-31.787 -1.496,-1.264 -4.004,-1.75 -2.787,-4.617 0.839,-1.907 2.292,-2.372 4.307,-2.248 10.269,0.555 15.98,-5.005 18.928,-14.941 m 3.91,-183.231 c 1.542,5.336 3.47,9.684 8.681,13.376 10.841,7.731 10.356,28.682 0.212,40.738 -3.533,4.21 -7.851,7.37 -13.522,8.008 -6.937,0.776 -11.153,-4.096 -15.672,-8.635 -2.79,5.1 -5.029,9.761 -9.628,12.486 -6.503,3.883 -12.546,3.669 -17.614,-2.352 -8.463,-9.995 -3.641,-32.619 8.082,-38.459 2.682,-1.334 4.591,-2.665 6.249,2.171 2.717,8.158 8.054,8.729 13.73,1.952 2.457,-2.931 4.659,-6.431 5.714,-10.033 2.311,-8.099 6.906,-14.225 13.768,-19.252 m -42.015,112.135 c 1.799,-3.768 4.073,-6.098 7.088,-6.238 6.054,-0.273 6.405,-2.609 5.679,-8.249 -1.144,-9.113 9.355,-17.764 15.119,-12.661 7.998,7.026 13.404,4.724 20.224,0.039 1.334,-0.948 3.41,-0.94 5.18,-1.092 11.141,-0.9 19.079,4.32 23.946,13.832 5.236,10.265 4.609,20.608 -1.395,30.632 -2.134,3.597 -4.148,1.773 -6.587,0.721 -8.752,-3.654 -17.319,-3.554 -25.7,1.349 -1.782,1.067 -3.701,3.731 -6.023,0.654 -5.303,-6.939 -12.032,-5.116 -18.31,-2.296 -4.419,1.996 -5.124,0.654 -5.256,-3.257 -0.321,-8.736 -5.568,-12.568 -13.965,-13.434 m 119.41,5.373 c -3.112,4.021 -5.084,7.449 -7.823,10.058 -8.439,7.922 -18.443,5.589 -22.992,-5.065 -6.599,-15.52 3,-33.153 19.61,-35.721 -2.502,-5.451 -4.662,-9.754 -12.653,-8.642 -7.574,1.035 -13.713,-3.764 -16.525,-11.207 -1.723,-4.467 -1.059,-9.032 2.986,-12.18 6.36,-4.915 13.123,-4.063 18.948,0.583 3.863,3.118 5.5,0.874 8.041,-1.292 3.498,-2.99 6.851,-4.477 10.089,0.941 2.282,3.915 6.368,6.971 10.848,7.255 7.965,0.467 12.158,3.868 11.652,12.15 -20.587,6.973 -25.209,21.2 -12.279,41.158 2.276,3.433 0.154,5.006 -1.142,6.915 -1.856,2.678 -3.655,0.389 -5.125,-0.876 -1.309,-1.166 -2.354,-2.64 -3.635,-4.077 m 57.906,19.925 c 0.15,16.863 -12.17,30.401 -26.857,29.575 -14.495,-0.817 -24,-14.842 -21.932,-32.123 0.486,-4.255 1.531,-8.517 4.213,-11.605 4.094,-4.779 3.881,-7.363 -1.276,-11.568 -7.16,-5.885 -7.294,-17.558 -1.732,-25.334 4.777,-6.582 12.326,-8.968 18.783,-5.849 7.791,3.746 11.303,13.136 8.557,23.168 -0.117,0.574 -0.404,1.128 -0.709,1.655 -2.07,3.642 -0.772,4.546 3.146,5.819 11.194,3.7 17.702,13.955 17.807,26.262 M -160.9,94.653 c 5.377,-6.687 10.632,-7.198 16.722,-1.675 1.787,1.652 4.917,2.119 7.508,2.558 7.031,1.196 10.286,-2.488 8.249,-9.275 -2.115,-7.126 -7.05,-12.332 -12.221,-17.38 -4.821,-4.699 -3.747,-9.279 2.557,-11.241 4.763,-1.484 9.432,-0.264 12.021,3.792 2.924,4.622 4.861,2.927 8.143,0.598 11.571,-8.285 24.819,-6.254 33.263,4.689 9.394,12.151 7.66,30.855 -3.805,40.589 -10.404,8.798 -23.455,7.525 -33.478,-3.165 -1.107,-1.189 -1.439,-3.425 -4.071,-3.226 -0.712,3.62 -1.042,7.446 -2.268,10.936 -2.129,5.97 -6.696,8.824 -13.121,8.911 -6.379,0.077 -7.337,-4.116 -8.454,-9.142 -1.517,-6.869 -5.547,-12.48 -11.045,-16.969 m -66.627,23.128 c -5.568,5.577 -11.273,8.07 -18.241,4.505 -6.864,-3.521 -9.619,-9.506 -9.809,-16.797 -0.19,-6.356 -4.09,-17.346 -8.335,-22.27 -0.424,-0.432 -0.717,-0.97 -1.56,-2.169 6.189,-2.738 9.618,-8.048 11.704,-14.344 18.195,11.491 26.774,10.128 45.077,-6.845 0.772,8.09 -2.116,15.105 -5.626,23.64 8.81,-4.705 14.962,-5.172 18.725,4.459 1.312,3.415 5.839,5.579 9.043,8.451 -7.312,7.522 -9.95,16.866 -8.831,27.068 0.562,5.092 -1.924,7.06 -5.746,8.622 -10.652,4.38 -18.739,0.143 -26.401,-14.32 m 116.046,-211.033 c 18.014,-0.044 35.311,0.023 52.635,-0.203 6.612,-0.094 8.537,2.745 7.108,8.815 -0.785,3.243 -1.428,6.569 -3.957,8.874 -2.731,2.532 -2.715,4.183 -0.233,7.281 12.735,15.954 13.045,25.703 2.772,42.939 -2.244,3.695 -3.998,4.123 -7.756,2.157 -6.125,-3.153 -12.658,-3.503 -18.865,-0.009 -2.071,1.177 -3.307,1.522 -5.426,-0.149 -7.549,-6.009 -17.475,-10.316 -14.127,-23.084 0.414,-1.51 -0.43,-3.648 -1.334,-5.103 -3.754,-6.393 -4.383,-12.471 2.685,-18.57 -3.177,-0.012 -4.855,0.015 -6.558,-0.006 -9.975,-0.013 -11.158,-1.69 -7.319,-10.608 1.625,-3.79 0.859,-7.582 0.375,-12.334 m -94.084,138.018 c 0.987,-15.521 -5.785,-27.072 -20.192,-33.416 -3.301,-1.496 -4.817,-3.462 -6.396,-6.652 -3.702,-7.696 -9.527,-14.875 -16.451,-18.854 -6.343,-3.624 -4.58,-6.104 -2.664,-10.125 2.067,-4.383 5.263,-7.981 8.944,-11.105 13.757,-11.494 28.722,-7.009 33.71,10.111 0.392,1.263 -0.033,4.1 1.702,3.269 6.775,-3.241 10.711,4.269 16.441,3.89 5.876,-0.407 6.922,3.43 7.672,7.762 0.895,5.577 -0.074,10.966 -3.97,15.028 -3.153,3.305 -2.27,5.194 0.47,7.949 6.622,6.722 9.258,15.345 9.544,24.436 0.157,4.4 0.908,11.708 -8.061,6.445 -2.994,-1.717 -9.131,-1.72 -7.949,3.083 2.375,9.745 -7.31,14.545 -7.403,22.843 -0.06,1.564 -1.415,2.673 -3.107,2.576 -2.264,-0.11 -2.017,-1.877 -1.724,-3.257 1.762,-8.047 -2.536,-15.923 -0.566,-23.983 m 19.31,-447.525 c -0.117,2.1 -0.073,3.264 -0.254,4.408 -9.901,59.155 -19.84,118.289 -29.658,177.45 -6.616,39.718 -13.224,79.457 -19.49,119.227 -0.831,5.27 -3.649,6.556 -7.87,6.302 -6.162,-0.413 -2.548,-5.112 -2.307,-7.379 1.819,-16.015 4.24,-31.963 6.285,-47.961 9.645,-75.797 19.129,-151.642 28.857,-227.439 2.588,-20.075 2.837,-20.036 24.437,-24.608 m -47.158,15.092 c 1.31,2.326 0.139,4.584 -0.316,6.854 -16.942,83.916 -33.894,167.816 -50.837,251.707 -2.524,12.58 -5.159,25.13 -7.618,37.708 -1.625,8.322 -9.131,5.962 -13.664,6.173 -3.477,0.125 -0.98,-5.269 -0.472,-8.103 1.549,-9.126 3.339,-18.203 5.066,-27.297 15.682,-81.745 31.741,-163.44 46.736,-245.313 2.382,-12.938 6.768,-20.731 20.217,-21.858 0.268,-0.023 0.527,0.057 0.888,0.129 M -3.506,-94.514 c -8.726,-1.344 -16.51,0.464 -18.556,-11.977 -15.391,-94.557 -31.616,-188.967 -47.653,-283.405 -2.344,-13.845 -2.482,-13.8 11.361,-9.503 5.545,1.744 11.356,2.199 12.12,10.394 1.32,13.645 3.683,27.182 5.679,40.789 10.071,68.779 20.166,137.604 30.272,206.401 2.283,15.582 4.443,31.181 6.777,47.301 m -214.416,-2.35 0.009,-0.032 c -2.383,0.011 -4.818,-0.265 -7.146,0.071 -6.017,0.838 -7.591,-1.111 -6.535,-7.3 13.037,-77.729 25.842,-155.515 38.721,-233.265 3.434,-20.636 7.219,-41.224 10.17,-61.914 1.005,-6.996 5.401,-4.672 9.131,-5.123 6.251,-0.804 3.702,3.979 3.466,6.303 -1.534,14.719 -3.525,29.383 -5.141,44.1 -2.787,25.074 -5.222,50.203 -8.138,75.283 -4.18,36.062 -8.777,72.051 -12.998,108.086 -2.606,22.5 -4.954,45.032 -7.054,67.573 -0.457,5.22 -2.551,6.723 -7.297,6.245 -2.347,-0.237 -4.758,-0.031 -7.188,-0.027 m 193.889,-0.432 c -6.438,0.012 -11.811,-0.333 -17.147,0.131 -5.013,0.408 -6.582,-1.726 -7.449,-6.342 -3.945,-20.796 -7.789,-41.654 -10.537,-62.517 -4.74,-36.071 -11.111,-71.895 -16.65,-107.823 -6.42,-41.609 -13.266,-83.154 -19.872,-124.732 -0.265,-1.838 -1.833,-5.131 0.612,-5.498 5.578,-0.807 11.437,-1.145 16.93,-0.238 3.705,0.638 2.769,5.447 3.289,8.488 5.289,30.599 10.419,61.224 15.625,91.861 11.664,68.551 23.363,137.137 35.199,206.67 m -190.603,-281.289 c -4.859,38.533 -9.969,78.85 -15.117,119.168 -6.766,52.789 -13.664,105.557 -20.137,158.39 -0.697,5.518 -2.271,7.826 -7.831,8.395 -7.696,0.762 -15.41,2.061 -22.966,3.846 -7.009,1.676 -7.806,-0.964 -6.491,-6.902 9.424,-42.354 15.976,-85.268 25.715,-127.586 7.021,-30.559 12.357,-61.522 18.532,-92.276 4.485,-22.281 9.319,-44.467 13.527,-66.789 1.485,-7.963 7.303,-9.828 13.065,-9.236 6.616,0.652 0.555,6.258 1.881,9.402 0.23,0.498 -0.04,1.184 -0.178,3.588 m 68.492,-4.963 c 0.056,0.002 0.113,0.01 0.161,0.026 -3.071,63.843 -6.424,127.712 -9.04,191.578 -1.156,28.656 -1.873,57.326 -3.382,85.973 -0.395,7.207 -2.421,9.446 -9.309,9.082 -8.061,-0.445 -16.167,-0.556 -24.219,0.022 -7.445,0.558 -8.588,-2.816 -7.603,-9.034 5.69,-36.717 7.869,-73.836 13.066,-110.62 5.602,-39.435 9.327,-79.136 13.768,-118.708 2.382,-21.362 4.618,-42.694 6.668,-64.098 0.277,-3.039 1.819,-4.147 4.189,-4.877 11.109,-3.469 15.95,0.137 15.69,11.676 -0.052,3.004 0.004,5.986 0.011,8.98 m 45.08,283.907 c -1.504,0.836 -2.987,2.381 -4.473,2.388 -14.946,0.201 -29.897,0.077 -44.881,0.283 -4.081,0.057 -3.956,-2.35 -4.079,-5.212 -0.4,-10.653 0.517,-21.233 1.126,-31.835 1.561,-26.236 2.411,-52.523 3.424,-78.754 0.755,-19.888 2.04,-39.738 2.947,-59.595 1.957,-41.785 3.82,-83.567 5.434,-125.367 0.202,-5.366 1.357,-7.704 7.004,-6.881 2.917,0.447 5.982,0.207 8.979,0.01 3.038,-0.194 4.499,0.91 4.081,4.083 -0.637,5.379 1.142,10.588 1.437,15.881 2.7,44.731 5.338,89.471 7.878,134.233 2.595,45.523 5.043,91.076 7.478,136.602 0.141,2.967 1.17,5.023 3.445,6.686 0.33,-4.763 1.223,-9.528 0.946,-14.246 -5.397,-91.626 -10.894,-183.239 -16.444,-274.876 -0.274,-4.512 -0.522,-8.709 5.902,-8.383 5.09,0.27 11.506,-1.68 11.266,7.184 -0.094,2.339 0.715,4.707 1.069,7.078 6.892,42.765 13.779,85.523 20.671,128.287 5.901,36.568 11.733,73.107 17.625,109.66 2.555,15.783 5.04,31.588 7.711,47.369 0.973,5.822 -0.808,8.192 -6.998,7.849 -7.457,-0.42 -14.964,0.245 -22.427,-0.137 -6.383,-0.331 -13.2,2.098 -19.121,-2.307 m 76.339,-280.663 c 0.371,-2.619 0.731,-5.261 1.09,-7.701 10.922,1.26 17.26,5.195 19.576,17.963 11.979,65.727 25.36,131.189 38.241,196.727 5.736,29.148 11.539,58.271 17.386,87.773 -7.107,-0.32 -12.214,-0.475 -13.984,-9.012 -16.787,-81.142 -33.967,-162.211 -51.373,-243.203 -1.764,-8.205 -0.951,-17.351 -7.113,-24.312 -2.535,1.826 -1.346,3.884 -0.799,6.312 5.232,23.572 10.314,47.219 15.322,70.826 9.184,43.514 18.24,87.026 27.426,130.547 4.049,19.289 8.295,38.517 12.363,57.794 1.18,5.435 0.479,8.953 -6.672,7.072 -5.174,-1.335 -10.597,-1.901 -15.914,-2.412 -7.33,-0.655 -10.709,-3.8 -11.715,-11.672 -3.839,-30.501 -8.33,-60.936 -12.845,-91.344 -9.325,-62.905 -18.912,-125.78 -28.153,-188.703 -0.431,-2.784 -3.117,-8.129 2.672,-8.495 4.334,-0.277 9.992,-0.197 11.043,6.454 0.383,2.23 0.108,4.972 3.449,5.386 M -171.504,-8.907 c 10.668,10.594 19.639,10.541 29.897,-0.053 1.334,-1.393 1.419,-4.166 5.282,-2.527 15.922,6.681 25.206,3.019 33.575,-12.313 0.959,-1.744 0.592,-4.829 4.215,-4.147 6.414,1.222 12.299,8.51 11.791,15.137 -0.33,4.666 0.023,9.473 3.471,12.542 6.572,5.895 3.341,10.901 -0.163,16.347 -15.169,-11.582 -20.914,-12.459 -37.68,-4.955 -2.487,1.101 -3.516,0.494 -5.4,-0.668 -13.193,-8.154 -23.669,-3.084 -26.137,12.533 -0.3,1.911 0.903,4.559 -2.031,5.238 -6.109,1.456 -9.554,5.677 -12.028,11.089 -0.762,1.659 -2.083,3.273 -4.024,2.869 -2.228,-0.492 -1.878,-2.705 -1.943,-4.448 -0.513,-9.457 -2.789,-18.357 -8.847,-25.818 -2.073,-2.568 -1.179,-4.279 -0.566,-7.044 1.196,-5.684 6.988,-7.158 8.988,-11.74 -1.61,-1.573 -2.571,-4.488 -1.134,-5.327 1.833,-1.074 1.67,2.2 2.734,3.285 m -45.33,-34.782 c -10.698,-0.749 -19.905,-3.318 -20.276,-17.467 3.439,2.61 8.519,-2.285 10.819,3.015 2.399,5.48 6.951,8.724 10.936,12.682 3.285,1.05 7.362,1.457 5.851,6.91 -2.483,-1.768 -4.93,-3.449 -7.33,-5.14 m -99.891,-8.985 c -11.882,16.871 -9.005,29.946 7.372,32.96 -5.215,11.636 -5.257,23.008 2.61,33.49 1.741,2.301 -0.105,2.91 -1.15,4.221 -10.131,12.498 -7.161,22.765 8.107,26.059 3.641,0.789 3.17,2.166 3.236,4.577 0.493,20.106 5.815,27.079 24.45,32.775 4.877,1.504 5.846,7.516 10.113,9.499 5.978,2.811 3.661,7.13 2.794,11.303 -2.758,13.655 9.824,30.685 26.708,24.112 3.258,-1.241 4.529,-0.141 6.573,2.175 8.81,10.116 15.479,11.582 28.619,6.072 3.188,-1.343 4.486,-1.327 6.097,1.871 4.028,8.024 10.542,13.019 19.714,13.482 3.54,0.164 3.986,1.721 4.848,4.703 3.287,11.517 7.929,15.028 19.711,15.203 2.449,0.033 3.743,1.2 5.479,2.287 14.116,8.888 29.572,6.787 40.247,-5.577 1.881,-2.189 2.513,-4.179 5.908,-1.282 9.316,7.917 19.955,9.42 30.793,3.461 11.183,-6.142 16.371,-16.105 16.256,-28.848 -0.016,-2.343 -0.028,-4.653 -0.026,-7.086 21.981,4.174 35.506,-7.914 33.686,-29.693 -0.289,-3.409 -0.826,-5.105 3.762,-5.612 22.252,-2.37 35.089,-20.226 29.664,-41.59 -1.391,-5.606 -0.844,-7.897 4.988,-9.022 2.361,-0.454 5.82,-2.531 6.336,-4.492 2.799,-11.29 12.576,-18.216 16.973,-28.419 0.586,-1.361 1.418,-2.989 1.17,-4.258 -3.891,-17.567 7.435,-34.573 1.38,-52.659 -1.732,-5.247 2.991,-13.083 5.778,-19.25 1.857,-4.104 2.281,-7.933 1.855,-12.087 -2.351,-23.043 -8.584,-45.324 -12.994,-67.96 -15.426,-79.426 -31.311,-158.769 -46.701,-238.179 -0.904,-4.735 -2.996,-6.6 -6.947,-7.838 -20.647,-6.428 -41.239,-12.979 -61.916,-19.368 -2.233,-0.695 -4.69,-0.914 -7.032,-0.898 -33.794,0.023 -67.623,-0.09 -101.465,0.314 -11.42,0.143 -21.658,5.848 -32.446,8.92 -11.687,3.319 -23.039,7.895 -34.721,11.053 -5.837,1.559 -8.05,4.545 -9.099,10.106 -11.805,62.511 -23.792,124.982 -35.719,187.462 -6.607,34.594 -13.246,69.176 -19.847,103.757 -0.233,1.195 -0.752,2.31 -0.861,3.491 -0.359,3.084 -3.441,6.223 -6.39,6.334 -5.317,0.174 -7.55,4.354 -9.524,8.097 -2.15,4.062 -0.584,8.136 2.425,11.511 2.354,2.712 5.626,4.01 9.186,4.823"
           style="fill:#1d1d1d;fill-opacity:1;fill-rule:evenodd;stroke:none"
           id="path46" />
      </g>
      <g
         id="g48"
         transform="translate(303.5547,441.4336)">
        <path
           d="m 0,0 c -2.275,-1.663 -3.305,-3.719 -3.445,-6.686 -2.435,-45.526 -4.884,-91.079 -7.478,-136.602 -2.54,-44.762 -5.179,-89.502 -7.879,-134.233 -0.294,-5.292 -2.073,-10.501 -1.437,-15.88 0.419,-3.174 -1.043,-4.278 -4.081,-4.084 -2.996,0.197 -6.061,0.437 -8.978,-0.01 -5.647,-0.822 -6.803,1.516 -7.004,6.881 -1.614,41.801 -3.478,83.582 -5.435,125.367 -0.906,19.857 -2.192,39.707 -2.946,59.596 -1.014,26.23 -1.863,52.517 -3.424,78.754 -0.609,10.601 -1.526,21.181 -1.126,31.834 0.123,2.862 -0.002,5.27 4.078,5.212 C -34.17,9.943 -19.22,10.067 -4.273,9.866 -2.787,9.859 -1.305,8.314 0.199,7.479 0.137,4.975 0.057,2.493 0,0"
           style="fill:#fdfdfd;fill-opacity:1;fill-rule:evenodd;stroke:none"
           id="path50" />
      </g>
      <g
         id="g52"
         transform="translate(303.5547,441.4336)">
        <path
           d="m 0,0 c 0.057,2.493 0.137,4.975 0.199,7.479 5.922,4.404 12.739,1.976 19.121,2.306 7.463,0.382 14.971,-0.283 22.428,0.137 6.19,0.343 7.971,-2.027 6.998,-7.849 C 46.074,-13.708 43.59,-29.513 41.035,-45.296 35.143,-81.849 29.311,-118.388 23.41,-154.956 16.518,-197.72 9.631,-240.478 2.738,-283.243 c -0.353,-2.371 -1.162,-4.738 -1.068,-7.078 0.24,-8.864 -6.176,-6.914 -11.266,-7.184 -6.425,-0.326 -6.176,3.871 -5.903,8.383 5.55,91.637 11.048,183.25 16.444,274.876 C 1.223,-9.528 0.33,-4.763 0,0"
           style="fill:#f50431;fill-opacity:1;fill-rule:evenodd;stroke:none"
           id="path54" />
      </g>
      <g
         id="g56"
         transform="translate(258.6748,165.0049)">
        <path
           d="m 0,0 c -0.008,-2.994 -0.063,-5.977 -0.011,-8.98 0.26,-11.54 -4.581,-15.145 -15.69,-11.676 -2.37,0.73 -3.913,1.838 -4.19,4.877 -2.05,21.404 -4.286,42.736 -6.668,64.097 -4.44,39.573 -8.166,79.274 -13.768,118.709 -5.196,36.784 -7.376,73.903 -13.065,110.619 -0.985,6.219 0.157,9.593 7.603,9.035 8.052,-0.578 16.157,-0.468 24.219,-0.022 6.887,0.364 8.914,-1.875 9.308,-9.082 1.509,-28.647 2.226,-57.317 3.382,-85.973 C -6.263,127.738 -2.911,63.869 0.16,0.025 0.113,0.01 0.056,0.002 0,0"
           style="fill:#f50431;fill-opacity:1;fill-rule:evenodd;stroke:none"
           id="path58" />
      </g>
      <g
         id="g60"
         transform="translate(190.1821,169.9678)">
        <path
           d="m 0,0 c 0.138,-2.404 0.409,-3.09 0.178,-3.588 -1.325,-3.144 4.735,-8.75 -1.881,-9.402 -5.761,-0.592 -11.58,1.273 -13.065,9.236 -4.208,22.322 -9.042,44.508 -13.527,66.789 -6.175,30.754 -11.511,61.717 -18.532,92.276 -9.739,42.318 -16.291,85.232 -25.715,127.586 -1.314,5.937 -0.518,8.578 6.492,6.902 7.555,-1.785 15.269,-3.084 22.965,-3.846 5.561,-0.569 7.134,-2.877 7.831,-8.395 6.474,-52.833 13.372,-105.601 20.137,-158.39 C -9.969,78.85 -4.858,38.533 0,0"
           style="fill:#f50431;fill-opacity:1;fill-rule:evenodd;stroke:none"
           id="path62" />
      </g>
      <g
         id="g64"
         transform="translate(380.0937,168.249)">
        <path
           d="m 0,0 c -3.342,-0.414 -3.066,-3.156 -3.449,-5.387 -1.051,-6.65 -6.709,-6.73 -11.043,-6.453 -5.789,0.365 -3.104,5.711 -2.672,8.494 9.24,62.924 18.828,125.799 28.152,188.703 4.516,30.409 9.006,60.844 12.846,91.345 1.006,7.871 4.385,11.017 11.715,11.672 5.316,0.511 10.74,1.077 15.914,2.412 7.15,1.881 7.851,-1.637 6.672,-7.073 C 54.066,264.437 49.82,245.209 45.771,225.92 36.586,182.398 27.529,138.887 18.346,95.373 13.338,71.766 8.256,48.119 3.023,24.547 2.477,22.119 1.287,20.061 3.822,18.234 3.814,11.865 1.504,6.029 0,0"
           style="fill:#f50431;fill-opacity:1;fill-rule:evenodd;stroke:none"
           id="path66" />
      </g>
      <g
         id="g68"
         transform="translate(380.7852,451.2563)">
        <path
           d="m 0,0 c -11.836,-69.533 -23.535,-138.119 -35.199,-206.669 -5.205,-30.637 -10.336,-61.262 -15.625,-91.862 -0.52,-3.041 0.416,-7.849 -3.289,-8.488 -5.492,-0.906 -11.352,-0.568 -16.93,0.238 -2.445,0.367 -0.877,3.66 -0.611,5.498 6.605,41.578 13.451,83.123 19.871,124.733 5.539,35.927 11.91,71.752 16.65,107.822 2.748,20.863 6.592,41.721 10.537,62.518 0.867,4.616 2.436,6.75 7.45,6.342 C -11.811,-0.333 -6.437,0.013 0,0"
           style="fill:#fdfdfd;fill-opacity:1;fill-rule:evenodd;stroke:none"
           id="path70" />
      </g>
      <g
         id="g72"
         transform="translate(186.8965,451.6885)">
        <path
           d="m 0,0 c 2.43,-0.004 4.841,-0.209 7.188,0.027 4.746,0.478 6.84,-1.025 7.297,-6.244 2.1,-22.542 4.448,-45.074 7.054,-67.574 4.221,-36.035 8.817,-72.023 12.998,-108.086 2.916,-25.08 5.351,-50.209 8.138,-75.283 1.616,-14.717 3.607,-29.381 5.141,-44.1 0.236,-2.324 2.785,-7.107 -3.466,-6.302 -3.73,0.451 -8.126,-1.874 -9.131,5.123 -2.951,20.689 -6.737,41.277 -10.17,61.914 -12.879,77.75 -25.684,155.535 -38.721,233.264 -1.056,6.19 0.518,8.138 6.535,7.301 2.327,-0.337 4.762,-0.061 7.146,-0.072 z"
           style="fill:#fdfdfd;fill-opacity:1;fill-rule:evenodd;stroke:none"
           id="path74" />
      </g>
      <g
         id="g76"
         transform="translate(401.3125,454.0386)">
        <path
           d="m 0,0 c -2.334,-16.12 -4.494,-31.719 -6.777,-47.301 -10.106,-68.797 -20.202,-137.621 -30.272,-206.401 -1.996,-13.607 -4.359,-27.144 -5.68,-40.789 -0.763,-8.195 -6.574,-8.65 -12.119,-10.394 -13.843,-4.297 -13.705,-4.342 -11.361,9.504 16.037,94.437 32.262,188.847 47.652,283.404 C -16.51,0.464 -8.727,-1.344 0,0"
           style="fill:#fdfdfd;fill-opacity:1;fill-rule:evenodd;stroke:none"
           id="path78" />
      </g>
      <g
         id="g80"
         transform="translate(171.4053,160.8857)">
        <path
           d="m 0,0 c -0.361,-0.072 -0.62,-0.152 -0.888,-0.129 -13.449,1.127 -17.835,8.92 -20.217,21.858 -14.995,81.873 -31.054,163.568 -46.736,245.313 -1.727,9.094 -3.516,18.171 -5.066,27.297 -0.508,2.834 -3.005,8.228 0.472,8.103 4.533,-0.211 12.039,2.149 13.664,-6.173 2.459,-12.578 5.094,-25.128 7.618,-37.708 C -34.209,174.67 -17.258,90.77 -0.315,6.854 0.139,4.584 1.31,2.326 0,0"
           style="fill:#fdfdfd;fill-opacity:1;fill-rule:evenodd;stroke:none"
           id="path82" />
      </g>
      <g
         id="g84"
         transform="translate(218.5635,145.7939)">
        <path
           d="m 0,0 c -21.601,4.572 -21.85,4.533 -24.437,24.607 -9.728,75.797 -19.212,151.643 -28.857,227.44 -2.045,15.998 -4.466,31.946 -6.286,47.961 -0.24,2.267 -3.854,6.966 2.308,7.379 4.221,0.254 7.039,-1.033 7.87,-6.303 6.266,-39.77 12.874,-79.508 19.489,-119.227 C -20.094,122.697 -10.155,63.563 -0.254,4.408 -0.073,3.264 -0.117,2.1 0,0"
           style="fill:#fdfdfd;fill-opacity:1;fill-rule:evenodd;stroke:none"
           id="path86" />
      </g>
      <g
         id="g88"
         transform="translate(380.0937,168.249)">
        <path
           d="m 0,0 c 1.504,6.029 3.814,11.865 3.822,18.234 6.162,6.961 5.35,16.108 7.114,24.313 17.406,80.992 34.585,162.06 51.373,243.203 1.769,8.537 6.877,8.692 13.984,9.012 C 70.445,265.26 64.643,236.137 58.906,206.988 46.025,141.451 32.645,75.988 20.666,10.262 18.35,-2.506 12.012,-6.441 1.09,-7.701 0.73,-5.262 0.371,-2.619 0,0"
           style="fill:#fdfdfd;fill-opacity:1;fill-rule:evenodd;stroke:none"
           id="path90" />
      </g>
      <g
         id="g92"
         transform="translate(199.2534,593.3188)">
        <path
           d="M 0,0 C -1.97,8.06 2.328,15.936 0.566,23.982 0.272,25.363 0.026,27.13 2.29,27.24 3.981,27.337 5.337,26.228 5.397,24.664 5.49,16.366 15.175,11.565 12.8,1.821 c -1.182,-4.803 4.955,-4.8 7.949,-3.083 8.969,5.263 8.218,-2.045 8.061,-6.445 -0.286,-9.091 -2.922,-17.714 -9.544,-24.437 -2.74,-2.754 -3.623,-4.643 -0.47,-7.948 3.896,-4.062 4.865,-9.451 3.97,-15.029 -0.75,-4.331 -1.796,-8.168 -7.672,-7.761 -5.73,0.379 -9.666,-7.131 -16.441,-3.89 -1.735,0.831 -1.31,-2.006 -1.702,-3.269 -4.988,-17.12 -19.953,-21.605 -33.71,-10.111 -3.681,3.124 -6.877,6.722 -8.944,11.105 -1.916,4.021 -3.679,6.501 2.664,10.125 6.924,3.979 12.749,11.158 16.451,18.854 1.579,3.19 3.095,5.156 6.396,6.652 C -5.785,-27.072 0.987,-15.521 0,0"
           style="fill:#fefdf0;fill-opacity:1;fill-rule:evenodd;stroke:none"
           id="path94" />
      </g>
      <g
         id="g96"
         transform="translate(293.3374,455.3008)">
        <path
           d="m 0,0 c 0.484,4.751 1.25,8.543 -0.375,12.333 -3.839,8.918 -2.656,10.596 7.319,10.609 1.703,0.021 3.381,-0.006 6.558,0.006 -7.068,6.099 -6.439,12.177 -2.685,18.57 0.904,1.455 1.748,3.593 1.334,5.103 -3.348,12.768 6.578,17.075 14.127,23.084 2.119,1.67 3.355,1.326 5.426,0.149 6.207,-3.494 12.74,-3.145 18.865,0.009 3.758,1.966 5.512,1.538 7.756,-2.157 10.273,-17.236 9.963,-26.985 -2.772,-42.939 -2.482,-3.099 -2.498,-4.749 0.233,-7.281 2.529,-2.305 3.172,-5.632 3.957,-8.874 1.429,-6.07 -0.496,-8.909 -7.108,-8.815 C 35.311,0.023 18.014,-0.044 0,0"
           style="fill:#fefdf0;fill-opacity:1;fill-rule:evenodd;stroke:none"
           id="path98" />
      </g>
      <g
         id="g100"
         transform="translate(177.2915,666.334)">
        <path
           d="m 0,0 c 7.662,14.462 15.749,18.7 26.401,14.32 3.822,-1.563 6.307,-3.53 5.745,-8.622 -1.118,-10.202 1.52,-19.546 8.832,-27.068 -3.205,-2.872 -7.731,-5.036 -9.043,-8.451 -3.764,-9.631 -9.915,-9.164 -18.725,-4.459 3.51,-8.535 6.397,-15.551 5.626,-23.64 -18.303,16.973 -26.882,18.336 -45.077,6.844 -2.086,6.297 -5.515,11.606 -11.704,14.345 0.842,1.198 1.136,1.737 1.56,2.169 4.245,4.924 8.145,15.914 8.335,22.27 0.19,7.291 2.945,13.276 9.809,16.797 C -11.273,8.07 -5.568,5.577 0,0"
           style="fill:#fefdf0;fill-opacity:1;fill-rule:evenodd;stroke:none"
           id="path102" />
      </g>
      <g
         id="g104"
         transform="translate(243.9185,643.2061)">
        <path
           d="m 0,0 c 5.498,4.488 9.528,10.1 11.044,16.969 1.118,5.026 2.076,9.218 8.455,9.141 6.425,-0.086 10.992,-2.941 13.121,-8.91 1.226,-3.49 1.556,-7.317 2.268,-10.936 2.632,-0.2 2.964,2.036 4.07,3.226 10.023,10.69 23.075,11.963 33.479,3.164 11.465,-9.734 13.199,-28.437 3.805,-40.589 -8.444,-10.942 -21.692,-12.974 -33.263,-4.688 -3.282,2.329 -5.219,4.024 -8.144,-0.599 -2.588,-4.055 -7.257,-5.276 -12.021,-3.792 -6.303,1.963 -7.377,6.543 -2.556,11.242 5.171,5.048 10.106,10.254 12.221,17.379 C 34.516,-1.605 31.261,2.079 24.23,0.882 21.639,0.444 18.509,-0.023 16.722,-1.675 10.632,-7.199 5.377,-6.687 0,0"
           style="fill:#fefdf0;fill-opacity:1;fill-rule:evenodd;stroke:none"
           id="path106" />
      </g>
      <g
         id="g108"
         transform="translate(420.8594,612.4238)">
        <path
           d="m 0,0 c -0.105,-12.307 -6.613,-22.562 -17.807,-26.262 -3.918,-1.273 -5.216,-2.177 -3.146,-5.819 0.305,-0.527 0.592,-1.081 0.709,-1.655 2.746,-10.033 -0.766,-19.422 -8.557,-23.168 -6.457,-3.119 -14.006,-0.733 -18.783,5.849 -5.562,7.776 -5.428,19.449 1.732,25.334 5.157,4.205 5.37,6.789 1.276,11.568 -2.682,3.088 -3.727,7.35 -4.213,11.605 -2.068,17.281 7.437,31.306 21.932,32.123 C -12.17,30.401 0.15,16.863 0,0"
           style="fill:#fefdf0;fill-opacity:1;fill-rule:evenodd;stroke:none"
           id="path110" />
      </g>
      <g
         id="g112"
         transform="translate(362.9531,592.499)">
        <path
           d="M 0,0 C 1.281,1.437 2.326,2.911 3.635,4.077 5.105,5.342 6.904,7.63 8.76,4.953 10.057,3.044 12.178,1.47 9.902,-1.962 -3.027,-21.92 1.594,-36.147 22.182,-43.12 c 0.505,-8.282 -3.688,-11.684 -11.653,-12.151 -4.48,-0.284 -8.566,-3.339 -10.847,-7.254 -3.239,-5.418 -6.592,-3.932 -10.09,-0.941 -2.541,2.166 -4.178,4.41 -8.041,1.292 -5.824,-4.646 -12.588,-5.498 -18.947,-0.583 -4.045,3.148 -4.709,7.713 -2.987,12.179 2.813,7.444 8.951,12.243 16.526,11.207 7.99,-1.111 10.15,3.192 12.652,8.642 -16.609,2.568 -26.209,20.202 -19.609,35.722 4.548,10.654 14.552,12.987 22.992,5.065 C -5.084,7.449 -3.111,4.021 0,0"
           style="fill:#fefdf0;fill-opacity:1;fill-rule:evenodd;stroke:none"
           id="path114" />
      </g>
      <g
         id="g116"
         transform="translate(243.543,587.126)">
        <path
           d="m 0,0 c 8.397,0.866 13.644,4.698 13.965,13.434 0.133,3.911 0.838,5.253 5.257,3.257 6.277,-2.82 13.006,-4.643 18.309,2.295 2.322,3.077 4.241,0.414 6.023,-0.653 8.381,-4.903 16.948,-5.003 25.7,-1.349 2.439,1.052 4.453,2.875 6.588,-0.721 6.004,-10.025 6.631,-20.367 1.394,-30.633 -4.867,-9.511 -12.804,-14.732 -23.945,-13.831 -1.771,0.152 -3.846,0.144 -5.18,1.092 -6.821,4.685 -12.226,6.987 -20.224,-0.039 -5.764,-5.103 -16.263,3.547 -15.119,12.661 0.726,5.64 0.374,7.976 -5.68,8.249 C 4.074,-6.099 1.799,-3.768 0,0"
           style="fill:#fefdf0;fill-opacity:1;fill-rule:evenodd;stroke:none"
           id="path118" />
      </g>
      <g
         id="g120"
         transform="translate(285.5581,474.9912)">
        <path
           d="m 0,0 c -6.861,5.026 -11.457,11.153 -13.768,19.252 -1.055,3.602 -3.256,7.102 -5.713,10.033 -5.677,6.777 -11.014,6.205 -13.731,-1.952 -1.658,-4.837 -3.566,-3.506 -6.248,-2.172 -11.724,5.84 -16.546,28.464 -8.083,38.46 5.068,6.02 11.111,6.235 17.614,2.351 4.599,-2.724 6.839,-7.386 9.629,-12.485 4.518,4.538 8.734,9.41 15.671,8.635 C 1.042,61.484 5.36,58.323 8.894,54.113 19.038,42.057 19.522,21.107 8.682,13.375 3.471,9.684 1.542,5.335 0,0"
           style="fill:#fefdf0;fill-opacity:1;fill-rule:evenodd;stroke:none"
           id="path122" />
      </g>
      <g
         id="g124"
         transform="translate(281.6479,658.2222)">
        <path
           d="m 0,0 c -2.948,9.936 -8.659,15.496 -18.928,14.94 -2.014,-0.123 -3.468,0.341 -4.306,2.249 -1.217,2.867 1.291,3.353 2.787,4.617 10.356,8.837 12.475,19.715 5.536,31.786 -2.243,3.892 -1.872,5.455 1.9,7.448 9.209,4.914 22.646,3.151 29.859,-4.283 6.287,-6.473 6.096,-11.5 -0.882,-23.823 C 35.002,31.782 46.03,24.644 50.235,10.49 51.106,7.557 53.377,3.106 49.768,1.833 46.09,0.555 42.301,-2.724 37.266,0.507 22.538,10.046 15.388,9.717 0,0"
           style="fill:#fefdf0;fill-opacity:1;fill-rule:evenodd;stroke:none"
           id="path126" />
      </g>
      <g
         id="g128"
         transform="translate(138.5615,575.4331)">
        <path
           d="m 0,0 c -3.982,6.362 -8.617,9.906 -15.726,9.678 -5.758,-0.168 -8.311,4.14 -9.924,8.842 -2.024,5.938 -1.146,11.833 1.335,17.463 4.442,9.989 13.024,16.091 21.351,14.517 C 7.597,48.484 8.429,39.696 9.43,29.983 18.784,40.877 29.184,47.728 42.846,40.127 53.657,34.141 57.621,24.026 56.643,12.088 55.625,-0.067 49.192,-8.312 37.275,-12.454 34.437,-6.036 33.307,-0.893 38.158,5.829 42.735,12.203 40.705,20.323 34.936,26.316 28.37,33.189 16.66,30.781 15.361,21.504 14.356,14.2 11.597,10.125 5.584,6.885 3.457,5.743 2.255,2.898 0,0"
           style="fill:#fefdf0;fill-opacity:1;fill-rule:evenodd;stroke:none"
           id="path130" />
      </g>
      <g
         id="g132"
         transform="translate(220.9458,495.5356)">
        <path
           d="m 0,0 c 3.71,-3.026 7.182,-5.376 10.085,-8.35 5.171,-5.32 9.384,-11.111 2.668,-18.326 -0.41,-0.408 -0.547,-1.053 -0.836,-1.578 -2.701,-5.224 -1.042,-14.025 -11.982,-12.093 -6.376,1.141 -11.706,2.398 -17.712,5.622 -10.698,5.7 -13.578,16.373 -20.173,24.523 -3.782,4.636 2.05,9.122 5.663,11.337 6.912,4.2 11.705,7.89 12.204,17.544 0.354,7.517 8.074,12.117 16.416,12.561 C 3.37,31.558 8.685,28.277 10.871,21.671 13.394,13.988 10.272,7.7 4.049,2.865 2.867,1.979 1.631,1.145 0,0"
           style="fill:#fefdf0;fill-opacity:1;fill-rule:evenodd;stroke:none"
           id="path134" />
      </g>
      <g
         id="g136"
         transform="translate(231.7139,541.6875)">
        <path
           d="m 0,0 c -1.999,4.582 -7.791,6.056 -8.988,11.74 -0.612,2.765 -1.507,4.476 0.567,7.045 6.058,7.46 8.334,16.361 8.847,25.817 0.065,1.744 -0.286,3.957 1.943,4.448 1.941,0.404 3.262,-1.21 4.023,-2.868 2.474,-5.413 5.919,-9.634 12.029,-11.09 2.933,-0.679 1.73,-3.327 2.031,-5.238 2.467,-15.617 12.943,-20.687 26.136,-12.533 1.884,1.162 2.914,1.769 5.401,0.668 16.766,-7.504 22.51,-6.627 37.68,4.955 3.504,-5.445 6.734,-10.451 0.162,-16.346 -3.447,-3.07 -3.801,-7.876 -3.471,-12.542 0.508,-6.627 -5.377,-13.915 -11.791,-15.138 -3.623,-0.682 -3.256,2.403 -4.215,4.147 C 61.986,-1.603 52.701,2.059 36.78,-4.622 32.917,-6.261 32.832,-3.488 31.497,-2.095 21.239,8.499 12.268,8.553 1.6,-2.042 1.08,-1.368 0.543,-0.679 0,0"
           style="fill:#fefdf0;fill-opacity:1;fill-rule:evenodd;stroke:none"
           id="path138" />
      </g>
      <g
         id="g140"
         transform="translate(107.2803,565.709)">
        <path
           d="m 0,0 c -2.905,1.519 -5.836,2.548 -8.081,4.341 -4.997,4.037 -5.556,11.776 -1.088,15.778 5.217,4.69 10.838,3.839 14.811,-1.309 2.672,-3.521 4.87,-4.124 9.068,-3.565 8.208,1.109 13.727,-4.581 13.213,-13.745 -0.273,-4.195 0.489,-5.604 4.689,-6.425 6.246,-1.205 11.526,-4.696 15.618,-9.73 2.339,-2.901 4.198,-6.066 2.7,-9.819 -1.713,-4.151 -5.544,-5.042 -9.584,-5.308 -5.522,-0.374 -9.264,0.647 -19.739,5.523 C 18.19,-32.785 13.902,-40.84 3.141,-40.773 -3.999,-40.713 -8,-35.788 -10.277,-29.447 -13.988,-19.239 -10.583,-9.404 0,0"
           style="fill:#fefdf0;fill-opacity:1;fill-rule:evenodd;stroke:none"
           id="path142" />
      </g>
      <g
         id="g144"
         transform="translate(232.7368,645.6538)">
        <path
           d="m 0,0 c -17.153,0.984 -25.336,20.477 -15.9,37.204 4.337,7.706 10.463,13.195 20.338,11.159 2.833,-0.592 4.79,-0.598 4.209,3.11 -0.034,0.308 -0.024,0.598 0.003,0.918 1.292,9.925 6.619,17.127 13.037,16.877 6.691,-0.24 9.989,-5.028 11.764,-10.737 C 36.01,50.225 32.285,39.53 24.71,37.243 18.385,35.3 18.626,32.442 19.452,27.385 20.572,20.401 18.785,13.753 14.85,7.748 11.198,2.11 6.915,-2.122 0,0"
           style="fill:#fefdf0;fill-opacity:1;fill-rule:evenodd;stroke:none"
           id="path146" />
      </g>
      <g
         id="g148"
         transform="translate(215.085,593.6807)">
        <path
           d="m 0,0 c 1.599,5.615 4.037,8.186 0.396,12.2 -9.216,10.112 -9.512,22.102 -2.172,29.743 7.917,8.285 22.198,9.029 32.52,0.327 5.157,-4.386 8.139,-4.212 13.087,-0.289 3.68,2.927 9.588,7.852 13.276,3.335 3.098,-3.8 -1.915,-9.494 -5.528,-12.694 C 43.186,25.141 39.688,15.826 38.308,5.022 37.465,-1.542 30.165,-4.29 24.496,-0.644 17.269,4.03 9.996,6.85 0,0"
           style="fill:#fefdf0;fill-opacity:1;fill-rule:evenodd;stroke:none"
           id="path150" />
      </g>
      <g
         id="g152"
         transform="translate(401.3594,528.4502)">
        <path
           d="m 0,0 c 3.924,6.651 9.482,4.974 14.924,5.54 -4.061,6.223 -7.947,12.245 -7.613,19.727 0.419,9.191 6.668,18.625 14.408,20.895 8.527,2.533 15.943,0.367 21.599,-6.694 C 49.51,31.737 50.34,20.232 44.768,11.87 41.873,7.498 39.061,4.29 43.59,-1.028 c 2.441,-2.857 1.875,-7.717 -1.072,-10.798 -3.172,-3.18 -5.106,1.226 -7.471,2.161 -6.865,2.751 -13.348,2.462 -19.834,-0.81 C 12.197,-4.376 8.605,0.954 0,0"
           style="fill:#fefdf0;fill-opacity:1;fill-rule:evenodd;stroke:none"
           id="path154" />
      </g>
      <g
         id="g156"
         transform="translate(424.3789,462.1724)">
        <path
           d="m 0,0 c -20.961,-3.237 -40.852,-8.134 -61.57,-7.187 -5.485,0.239 -7.723,1.602 -6.75,7.075 0.211,1.174 0.81,2.741 0.295,3.499 -8.405,12.314 4.763,20.744 5.599,31.384 0.166,1.783 1.028,3.261 3.567,2.5 11.445,-3.297 20.533,-9.189 24.31,-21.148 C -32.113,8.327 -24.488,3.272 -18.037,7.241 -7.902,13.533 -4.768,6.819 0,0"
           style="fill:#fefdf0;fill-opacity:1;fill-rule:evenodd;stroke:none"
           id="path158" />
      </g>
      <g
         id="g160"
         transform="translate(324.8379,652.9927)">
        <path
           d="m 0,0 c 12.904,5.484 25.09,1.897 31.615,-9.654 2.196,-3.83 3.535,-5.386 8.53,-4.357 7.148,1.431 9.119,-1.994 6.121,-8.551 -3.155,-6.989 -4.282,-14.274 -2.727,-21.837 0.65,-3.215 0.588,-5.713 -2.627,-7.646 -3.9,-2.372 -4.324,1.579 -6.164,2.981 -6.953,5.181 -12.855,11.936 -23.203,10.698 -6.279,-0.752 -10.598,1.153 -7.549,9.993 C 7.299,-18.846 5.076,-8.936 0,0"
           style="fill:#fefdf0;fill-opacity:1;fill-rule:evenodd;stroke:none"
           id="path162" />
      </g>
      <g
         id="g164"
         transform="translate(352.7383,688.3267)">
        <path
           d="m 0,0 c 0.305,-5.546 -0.979,-10.407 -4.754,-14.82 -2.471,-2.803 -4.101,-6.481 -5.56,-9.995 -0.76,-1.81 0.031,-4.274 -3.264,-3.961 -3.404,0.332 -2.147,2.909 -2.395,4.718 -1.775,14.104 -9.859,22.994 -22.64,28.469 -2.803,1.214 -8.278,-0.399 -8.11,3.303 0.215,4.953 0.592,10.639 5.543,14.444 7.332,5.684 15.106,8.292 24.055,4.6 C -6.811,22.525 -1.674,14.265 -0.037,3.579 0.178,2.395 0.008,1.197 0,0"
           style="fill:#fefdf0;fill-opacity:1;fill-rule:evenodd;stroke:none"
           id="path166" />
      </g>
      <g
         id="g168"
         transform="translate(261.6152,455.3535)">
        <path
           d="m 0,0 c -6.887,0.032 -13.789,0.454 -20.646,-0.05 -7.165,-0.531 -7.283,2.724 -5.42,7.988 2.752,7.799 8.048,13.371 15.455,16.508 4.319,1.835 6.649,2.982 5.1,8.709 -1.366,5.078 -3.328,13.621 2.364,15.211 5.541,1.544 8.506,-6.561 9.962,-11.774 2.832,-10.317 9.307,-17.181 17.98,-22.656 3.474,-2.2 4.024,-5.697 3.33,-9.481 C 27.347,0.125 24.188,-0.126 20.648,-0.043 13.76,0.062 6.895,0.008 0,0"
           style="fill:#fefdf0;fill-opacity:1;fill-rule:evenodd;stroke:none"
           id="path170" />
      </g>
      <g
         id="g172"
         transform="translate(418.0488,474.6514)">
        <path
           d="m 0,0 c -3.219,2.67 -6.414,6.704 -10.061,0.316 -1.878,-3.272 -5.761,-3.125 -8.931,-1.894 -3.6,1.426 -6.037,4.589 -5.69,8.381 0.416,4.972 0.086,8.257 -5.935,9.11 -3.129,0.471 -7.028,4.203 -5.248,6.705 1.969,2.747 5.187,7.021 10.974,4.159 8.827,-4.381 15.502,-1.917 20.483,6.253 C 2.023,43.69 12.414,45.255 21.52,36.976 25.949,32.933 23.277,19.57 17.604,17.341 5.045,12.445 5.045,12.445 0,0"
           style="fill:#fefdf0;fill-opacity:1;fill-rule:evenodd;stroke:none"
           id="path174" />
      </g>
      <g
         id="g176"
         transform="translate(103.5967,514.8647)">
        <path
           d="M 0,0 C 2.506,2.946 4.459,5.392 7.811,5.282 9.512,5.247 11.621,5.076 12.837,4.058 14.896,2.365 12.425,0.985 11.6,-0.33 7.629,-6.722 6.483,-13.4 11.49,-19.437 c 5.134,-6.127 0.206,-10.529 -2.298,-14.605 -3.124,-5.057 -8.839,-6.202 -14.069,-2.69 -2.834,1.894 -4.75,2.665 -7.706,0.498 -2.87,-2.11 -6.176,-1.99 -9.095,0.414 -2.085,1.695 -2.896,3.803 -1.808,6.339 1.513,3.585 4.32,6.44 8.103,5.988 5.035,-0.571 7.717,1.464 9.821,6.259 -8.846,1.88 -13.571,7.397 -13.211,16.576 0.154,4.397 1.52,8.575 6.393,9.651 C -5.615,10.511 -3.489,4.463 0,0"
           style="fill:#fefdf0;fill-opacity:1;fill-rule:evenodd;stroke:none"
           id="path178" />
      </g>
      <g
         id="g180"
         transform="translate(393.8437,520.7593)">
        <path
           d="m 0,0 c 6.275,3.794 12.229,6.929 16.662,-0.556 3.451,-5.837 0.818,-11.178 -4.217,-14.77 -6.48,-4.637 -11.601,-2.407 -15.244,4.656 -6.656,-6.784 -13.66,-12.487 -23.494,-6.974 -6.477,3.642 -7.357,10.053 -5.785,16.429 2.027,8.146 7.371,13.56 16.055,14.632 C -6.793,14.551 -2.518,8.948 0,0"
           style="fill:#fefdf0;fill-opacity:1;fill-rule:evenodd;stroke:none"
           id="path182" />
      </g>
      <g
         id="g184"
         transform="translate(203.0547,455.5781)">
        <path
           d="m 0,0 c -18.655,0.051 -35.884,-1.441 -52.873,4.691 -0.209,4.319 4.856,5.208 6.322,8.559 -2.54,1.353 -5.378,2.376 -7.62,4.15 -5.032,4.051 -5.48,11.573 -0.942,15.704 4.771,4.361 10.273,4.108 14.161,-0.681 2.949,-3.702 5.218,-4.738 10.074,-4.01 7.766,1.16 13.697,-5.595 12.712,-14.392 C -18.622,9.96 -17.884,8.973 -14.114,8.3 -9.172,7.411 -4.467,5.501 0,0"
           style="fill:#fefdf0;fill-opacity:1;fill-rule:evenodd;stroke:none"
           id="path186" />
      </g>
      <g
         id="g188"
         transform="translate(386.8301,655.5161)">
        <path
           d="m 0,0 c -0.375,-4.361 -0.871,-9.5 -5.064,-13.075 -2.153,-1.851 -4.475,-1.849 -7.735,-1.694 -12.015,0.551 -17.123,11.203 -26.103,15.914 -3.082,1.64 -1.752,3.882 -1.135,6.145 2.799,10.226 12.385,17.158 21.887,15.843 C -8.197,21.705 -0.225,11.869 0,0"
           style="fill:#fefdf0;fill-opacity:1;fill-rule:evenodd;stroke:none"
           id="path190" />
      </g>
      <g
         id="g192"
         transform="translate(163.1108,547.1616)">
        <path
           d="m 0,0 c -3.49,5.766 -7.592,10.657 -13.346,14.141 -3.139,1.877 -8.866,1.375 -7.689,7.893 1.149,6.364 3.623,11.785 10.221,13.24 3.918,0.832 5.616,1.41 4.668,5.997 C -7.148,46.454 -6.351,51.779 -0.44,53.92 4.276,55.624 7.587,52.706 9.701,48.85 12.642,43.458 13.588,36.871 8.354,33.36 2.966,29.759 4.663,26.96 6.181,22.752 9.281,14.058 7.62,6.36 0,0"
           style="fill:#fefdf0;fill-opacity:1;fill-rule:evenodd;stroke:none"
           id="path194" />
      </g>
      <g
         id="g196"
         transform="translate(138.7891,480.6216)">
        <path
           d="m 0,0 c -0.714,1.276 -1.7,2.451 -2.101,3.833 -1.736,5.728 -2.369,10.97 -11.552,9.425 -5.763,-0.96 -9.971,5.434 -9.056,11.885 0.983,7.221 5.613,11.766 13.247,12.167 2.218,0.106 4.517,-0.927 7.107,-1.497 0.12,0.959 0.533,1.89 0.231,2.492 -1.925,3.784 -2.322,7.41 1.015,10.628 1.78,1.633 4.081,1.668 5.796,0.376 C 8.089,46.781 9.554,43.364 7.662,39.156 7.565,38.881 7.329,38.398 7.4,38.333 15.82,30.549 10.014,22.959 7.6,14.967 6.002,9.574 -0.154,6.316 0,0"
           style="fill:#fefdf0;fill-opacity:1;fill-rule:evenodd;stroke:none"
           id="path198" />
      </g>
      <g
         id="g200"
         transform="translate(444.4785,486.2622)">
        <path
           d="m 0,0 c -0.811,2.457 -1.412,3.812 -1.703,5.222 -1.059,4.835 0.779,9.037 5.648,9.126 C 8.227,14.438 10.1,10.187 9.99,5.926 9.961,3.537 8.338,1.77 10.77,-1.093 c 6.457,-7.803 2.791,-16.836 -7.354,-19.331 -2.895,-0.704 -5.955,-0.628 -8.789,-1.411 -5.691,-1.602 -10.731,-1.28 -14.215,4.102 -2.621,4.155 -2.336,8.567 0.336,12.555 3.4,5.029 7.91,7.927 14.365,6.314 C -3.783,0.844 -2.621,0.612 0,0"
           style="fill:#fefdf0;fill-opacity:1;fill-rule:evenodd;stroke:none"
           id="path202" />
      </g>
      <g
         id="g204"
         transform="translate(102.1763,472.4048)">
        <path
           d="m 0,0 c 8.037,-0.335 13.446,2.979 16.315,9.52 1.75,4.067 3.097,7.251 8.363,7.498 6.169,0.302 4.693,-4.963 6.392,-7.805 2.513,-4.184 5.333,-7.583 10.007,-9.65 2.158,-0.97 6.128,-2.309 4.619,-6.06 -1.47,-3.676 -3.938,-5.791 -8.974,-4.385 C 24.865,-7.604 12.2,-8.732 0.365,-4.994 -1.558,-4.383 -5.062,-5.781 -4.663,-1.729 -4.277,2.695 -1.221,-0.221 0,0"
           style="fill:#fefdf0;fill-opacity:1;fill-rule:evenodd;stroke:none"
           id="path206" />
      </g>
      <g
         id="g208"
         transform="translate(408.4121,568.209)">
        <path
           d="m 0,0 c -1.393,4.393 -5.51,9.499 -3.359,12.504 3.576,5.033 9.347,8.888 14.937,11.923 5.113,2.821 14.867,-4.316 15.266,-10.256 0.138,-1.982 -0.157,-2.675 -2.748,-2.992 C 8.729,9.327 8.725,9.155 0,0"
           style="fill:#fefdf0;fill-opacity:1;fill-rule:evenodd;stroke:none"
           id="path210" />
      </g>
      <g
         id="g212"
         transform="translate(150.9238,496.29)">
        <path
           d="M 0,0 C 4.128,5.008 5.123,10.303 4.867,16.505 7.445,10.398 19.54,13.833 16.662,3.287 13.285,-8.859 5.554,2.351 0,0"
           style="fill:#fefdf0;fill-opacity:1;fill-rule:evenodd;stroke:none"
           id="path214" />
      </g>
      <g
         id="g216"
         transform="translate(189.4634,503.0933)">
        <path
           d="m 0,0 c -3.985,-3.957 -8.537,-7.201 -10.936,-12.681 -2.3,-5.301 -7.38,-0.406 -10.819,-3.016 0.371,14.149 9.578,16.719 20.276,17.468 C -0.997,1.178 -0.499,0.589 0,0"
           style="fill:#fefdf0;fill-opacity:1;fill-rule:evenodd;stroke:none"
           id="path218" />
      </g>
      <g
         id="g220"
         transform="translate(402.1797,558.2656)">
        <path
           d="m 0,0 c 1.332,-2.286 0.33,-4.291 -0.996,-5.837 -4.076,-4.686 -6.168,-9.093 -1.481,-14.928 2.75,-3.475 -2.455,-5.456 -3.06,-9.719 -2.43,2.735 -3.926,5.412 -6.219,6.87 -5.707,3.719 -2.918,7.651 -0.439,11.134 1.627,2.342 4.531,3.752 6.732,5.716 C -3.305,-4.8 -2.947,-1.363 0,0"
           style="fill:#fefdf0;fill-opacity:1;fill-rule:evenodd;stroke:none"
           id="path222" />
      </g>
      <g
         id="g224"
         transform="translate(327.9043,576.2896)">
        <path
           d="M 0,0 C 3.518,-7.93 8.26,-14.404 16.295,-18.19 11.26,-18.358 5.721,-21.764 1.604,-19 -3.076,-15.827 -3.311,-5.333 0,0"
           style="fill:#fefdf0;fill-opacity:1;fill-rule:evenodd;stroke:none"
           id="path226" />
      </g>
      <g
         id="g228"
         transform="translate(236.1885,487.7769)">
        <path
           d="m 0,0 c 4.642,4.74 10.225,-1.323 14.66,2.645 0.327,0.278 1.67,-3.786 0.681,-5.523 C 12.536,-7.674 4.845,-7.642 1.784,-3.01 1.154,-2.047 0.594,-1.005 0,0"
           style="fill:#fefdf0;fill-opacity:1;fill-rule:evenodd;stroke:none"
           id="path230" />
      </g>
      <g
         id="g232"
         transform="translate(335.9062,609.9619)">
        <path
           d="m 0,0 c -3.688,-2.896 -4.652,-9.81 -10.521,-7.712 -2.116,0.747 -5.774,4.631 -3.879,7.86 C -10.23,7.341 -4.979,-1.198 0,0"
           style="fill:#fefdf0;fill-opacity:1;fill-rule:evenodd;stroke:none"
           id="path234" />
      </g>
      <g
         id="g236"
         transform="translate(118.6963,522.3301)">
        <path
           d="m 0,0 c 5.369,2.948 8.628,6.802 11.114,11.234 0.808,1.433 1.402,2.473 3.249,1.599 2.367,-1.101 1.418,-2.176 0.674,-4.008 C 10.983,-1.191 10.226,-1.813 0,0"
           style="fill:#fefdf0;fill-opacity:1;fill-rule:evenodd;stroke:none"
           id="path238" />
      </g>
      <g
         id="g240"
         transform="translate(451.375,526.9443)">
        <path
           d="M 0,0 C 2.205,-8 1.492,-14.226 -1.852,-20.555 -4.187,-17.279 -4.187,-17.279 0,0"
           style="fill:#fdfdfd;fill-opacity:1;fill-rule:evenodd;stroke:none"
           id="path242" />
      </g>
      <g
         id="g244"
         transform="translate(404.8184,548.5527)">
        <path
           d="m 0,0 c 1.229,-4.076 3.291,-7.089 2.406,-10.608 -0.228,-1.059 -2.455,-0.804 -2.951,0.279 C -1.965,-7.169 -5.924,-3.894 0,0"
           style="fill:#fdfdfd;fill-opacity:1;fill-rule:evenodd;stroke:none"
           id="path246" />
      </g>
      <g
         id="g248"
         transform="translate(187.9839,504.8638)">
        <path
           d="M 0,0 C 2.4,1.691 4.847,3.372 7.331,5.14 8.842,-0.313 4.765,-0.72 1.479,-1.771 0.98,-1.182 0.482,-0.592 0,0"
           style="fill:#fdfdfd;fill-opacity:1;fill-rule:evenodd;stroke:none"
           id="path250" />
      </g>
      <g
         id="g252"
         transform="translate(233.314,539.6455)">
        <path
           d="M 0,0 C -1.063,-1.085 -0.901,-4.359 -2.733,-3.285 -4.17,-2.446 -3.21,0.469 -1.6,2.042 -1.057,1.363 -0.52,0.674 0,0"
           style="fill:#fdfdfd;fill-opacity:1;fill-rule:evenodd;stroke:none"
           id="path254" />
      </g>
      <g
         id="g256"
         transform="translate(390.7109,311.4443)">
        <path
           d="m 0,0 c -1.098,-45.391 -54.121,-80.934 -118.356,-79.367 -64.258,1.572 -115.453,39.646 -114.335,85.049 1.087,45.394 54.111,80.937 118.351,79.379 C -50.1,83.48 1.104,45.402 0,0"
           style="fill:#ffffff;fill-opacity:1;fill-rule:evenodd;stroke:none"
           id="path258" />
      </g>
      <g
         id="g260"
         transform="translate(390.7109,311.4443)">
        <path
           d="m 0,0 c -1.098,-45.391 -54.121,-80.934 -118.356,-79.367 -64.258,1.572 -115.453,39.646 -114.335,85.049 1.087,45.394 54.111,80.937 118.351,79.379 C -50.1,83.48 1.104,45.402 0,0 Z"
           style="fill:none;stroke:#000000;stroke-width:4;stroke-linecap:butt;stroke-linejoin:miter;stroke-miterlimit:10;stroke-dasharray:none;stroke-opacity:1"
           id="path262" />
      </g>
    </g>
  </g>
</svg>
