<?xml version="1.0" encoding="UTF-8" standalone="no"?>
<!-- Created with Inkscape (http://www.inkscape.org/) -->

<svg
   version="1.1"
   id="svg2"
   width="543.63226"
   height="587.58826"
   viewBox="0 0 543.63226 587.58825"
   sodipodi:docname="breakfast_at_tiffanis.svg"
   xml:space="preserve"
   inkscape:version="1.2.2 (b0a8486541, 2022-12-01)"
   xmlns:inkscape="http://www.inkscape.org/namespaces/inkscape"
   xmlns:sodipodi="http://sodipodi.sourceforge.net/DTD/sodipodi-0.dtd"
   xmlns="http://www.w3.org/2000/svg"
   xmlns:svg="http://www.w3.org/2000/svg"><defs
     id="defs6" /><sodipodi:namedview
     id="namedview4"
     pagecolor="#ffffff"
     bordercolor="#666666"
     borderopacity="1.0"
     inkscape:showpageshadow="2"
     inkscape:pageopacity="0.0"
     inkscape:pagecheckerboard="0"
     inkscape:deskcolor="#d1d1d1"
     showgrid="false"
     inkscape:zoom="1.1912594"
     inkscape:cx="235.88481"
     inkscape:cy="310.17593"
     inkscape:window-width="1444"
     inkscape:window-height="1024"
     inkscape:window-x="224"
     inkscape:window-y="0"
     inkscape:window-maximized="0"
     inkscape:current-layer="g8" /><g
     inkscape:groupmode="layer"
     inkscape:label="Image"
     id="g8"
     transform="translate(-238.87025,-40.610683)"><rect
       style="fill:#e9bebe;stroke-width:1.00157;stop-color:#000000;fill-opacity:1"
       id="rect234"
       width="543.03516"
       height="589.01318"
       x="240.11284"
       y="40.826809" /><path
       style="fill:#000000;stroke-width:1.33333"
       d="m 526.85661,432.54446 c -3.98452,-42.8548 -0.86005,-75.74909 9.02857,-95.05269 3.80812,-7.43382 4.15276,-9.27322 4.77792,-25.50028 0.79858,-20.72854 -0.53976,-29.8502 -7.60674,-51.84478 -4.74499,-14.76783 -10.20518,-37.74863 -9.16586,-38.5772 0.24415,-0.19463 6.14391,0.41572 13.11058,1.35633 16.02562,2.16374 46.27376,2.20039 62.4257,0.0756 6.83414,-0.899 12.66063,-1.25442 12.94778,-0.78984 0.9626,1.55752 -5.7982,28.4562 -10.67915,42.48832 -9.72045,27.94509 -10.91849,54.71243 -3.23747,72.33385 7.4291,17.04351 10.47543,34.35637 10.51864,59.77955 0.0236,13.83964 -2.36149,51.73138 -3.33877,53.04443 -0.15465,0.20779 -2.40117,-1.74221 -4.99229,-4.33333 -3.28964,-3.28958 -5.91278,-4.71105 -8.69376,-4.71105 -6.24668,0 -16.14524,7.6125 -24.70575,19 l -7.76805,10.33333 -27.38549,53.65284 c -2.33315,-32.55831 -2.50946,-61.64832 -5.23586,-91.25508 z m 113.0778,-45.33109 c -1.69091,-1.69091 -1.99508,-21.13488 -0.44225,-28.27007 0.77226,-3.54848 1.64864,-4.05941 10.5466,-6.1488 5.3374,-1.25329 9.95905,-2.53342 10.27034,-2.84472 0.31131,-0.31129 2.40108,-9.84433 4.64396,-21.18453 2.24288,-11.3402 5.2441,-25.09568 6.66936,-30.56772 1.42528,-5.47205 2.38636,-10.15422 2.13574,-10.40485 -0.25062,-0.25063 -10.15706,2.57965 -22.0143,6.28951 -22.09162,6.91193 -23.93333,7.05626 -27.97038,2.19193 -2.03374,-2.45052 -0.93851,-8.23728 2.38346,-12.59333 2.16147,-2.83428 3.89247,-3.24482 18.17707,-4.31094 18.79459,-1.40273 30.86528,-3.51485 35.07947,-6.13817 1.69348,-1.0542 4.09348,-1.70744 5.33333,-1.45165 1.27923,0.26392 3.40769,-1.0898 4.92093,-3.12974 3.26217,-4.39753 17.95947,-16.32186 18.92617,-15.35522 0.3839,0.38396 -0.6082,2.53265 -2.2048,4.77486 -1.5966,2.24223 -2.3768,4.07678 -1.7337,4.07678 2.1262,0 5.4468,-3.29222 5.8999,-5.84952 0.2452,-1.38391 1.8619,-3.03906 3.5928,-3.6781 2.3386,-0.86344 2.9709,-0.73085 2.4612,0.51619 -0.3771,0.92295 -1.124,2.87809 -1.6597,4.34476 l -0.974,2.66667 2.2485,-2.66667 c 2.2076,-2.61831 2.2323,-2.60621 1.3597,0.66667 -2.4425,9.16106 -6.1735,13.19685 -16.818,18.19204 -5.7373,2.69233 -10.4266,4.95053 -10.4206,5.01821 0.01,0.0677 0.8776,6.72308 1.9371,14.78975 1.0595,8.06666 2.346,21.7711 2.8588,30.45429 l 0.9324,15.78764 6.1305,-1.00752 c 12.7507,-2.09553 12.4686,-2.23969 15.8463,8.09892 1.6772,5.13333 3.4056,11.86046 3.841,14.94918 0.7066,5.01295 0.4509,5.76418 -2.3826,6.99743 -2.2554,0.98163 -75.61291,17.38672 -77.74702,17.38672 -0.125,0 -0.94728,-0.72 -1.82728,-1.6 z m 40.83339,-40.97873 c 6.10504,-1.38065 11.26551,-2.71524 11.46771,-2.96577 0.7237,-0.89664 -1.7856,-38.00279 -3.29941,-48.78883 -1.56214,-11.1308 -1.9601,-11.67217 -7.48968,-10.18891 -2.3044,0.61814 -3.46888,2.92748 -5.76261,11.42819 -2.45936,9.11449 -10.66336,49.13943 -10.67783,52.09405 -0.008,1.52872 3.6339,1.16399 15.76182,-1.57873 z m -201.10006,-86.7546 c -4.03492,-4.03492 -3.2894,-7.13496 3.91912,-16.29654 3.62218,-4.60356 12.96787,-16.47012 20.76819,-26.37012 7.80033,-9.9 15.66103,-21.27962 17.46823,-25.28802 4.18788,-9.28882 6.49268,-11.80736 13.62168,-14.88477 6.98524,-3.01536 7.70161,-3.07904 5.55612,-0.49388 -1.19588,1.44095 -1.22982,2 -0.12147,2 0.84615,0 1.85599,-0.82753 2.24411,-1.83895 1.16329,-3.03149 12.8384,-3.88848 19.06006,-1.39906 4.99643,1.99917 5.82983,1.99313 11.26267,-0.0817 4.50049,-1.71876 7.22805,-1.96478 11.71077,-1.05634 5.45638,1.10576 5.81636,1.44476 5.43,5.11349 -0.63404,6.02039 -4.61768,9.2428 -11.21242,9.06988 -3.07892,-0.0808 -5.81255,-0.79029 -6.07472,-1.57681 -0.26216,-0.78651 -1.74476,-3.04215 -3.29467,-5.01252 l -2.818,-3.58251 -2.42652,2.99664 c -1.3346,1.64815 -2.42653,3.83017 -2.42653,4.84892 0,2.71603 -11.03668,2.92792 -14.27494,0.27408 -2.2085,-1.80996 -3.60361,-0.70811 -9.90718,7.82475 -3.00098,4.06226 -7.10148,8.33012 -9.11224,9.48414 -2.01076,1.15402 -7.09712,7.43087 -11.30303,13.94856 -7.62156,11.8108 -20.68036,37.45785 -20.71677,40.68709 -0.0499,4.4284 -13.30943,5.67674 -17.35246,1.63371 z m 62.89183,-77.1069 c -1.85552,-0.26282 -3.85352,0.54321 -4.95759,2 -3.09205,4.07982 -2.1794,4.4952 3.06576,1.39526 4.60288,-2.72032 4.75314,-2.98998 1.89183,-3.39526 z m -42.89183,-8.99426 c 0,-4.46314 5.52372,-13.82565 10.43827,-17.69248 7.40188,-5.82389 14.38676,-8.96288 28.97255,-13.02022 30.10888,-8.3754 68.22526,-2.31815 85.96281,13.66076 5.54672,4.99676 11.47449,15.36878 10.0764,17.63097 -0.3786,0.61259 -3.55975,0.58011 -7.0692,-0.0721 -11.21723,-2.08484 -82.84985,-2.88526 -103.4604,-1.15606 -10.40624,0.87307 -20.27043,1.91411 -21.92043,2.31342 -2.26545,0.54825 -3,0.14077 -3,-1.66423 z m 49.07008,-48.5655 c 2.57699,-7.05479 10.4068,-12 18.99974,-12 7.8675,0 18.59685,7.21939 18.59685,12.51315 0,1.02461 -5.95763,1.48685 -19.16357,1.48685 -16.4701,0 -19.0609,-0.28111 -18.43302,-2 z"
       id="path293"
       sodipodi:nodetypes="csssssssssssssscccssssssssssssssssssssscssscsscssssssssssscsssssssssssssssscsssssssssssssssssscsssssssss" /><path
       style="fill:#000000;fill-opacity:1;stroke:none;stroke-width:0.913661"
       d="m 336.93068,531.85735 c 17.53765,-0.072 30.46283,-27.392 32.55628,-46 8.77518,-0.837 19.85767,-2.61 26.20948,7.329 2.78816,4.363 1.33815,13.46 1.33815,18.671 v 46 h 6.67821 v -46 c 0,-5.234 -1.44166,-14.28 1.33815,-18.674 6.36099,-10.054 17.33163,-7.783 26.20948,-7.326 2.15789,19.181 15.47842,46.938 33.39106,47 -1.00591,-7.806 -8.33608,-12.776 -12.11261,-19 -6.48371,-10.687 -9.20675,-22.91 -8.72425,-36 0.38901,-10.551 4.13131,-21.541 9.28271,-30 5.12386,-8.4144 11.88555,-11.8894 10.71937,-23 10.56076,-1.0068 24.14758,-2.7562 28.849,-14.9113 2.08953,-5.4012 8.49218,-9.8929 1.18713,-14.3688 -12.63438,-7.7403 -31.24155,-6.6757 -45.06211,-7.8094 -32.72741,-2.6847 -64.97984,-0.5683 -97.66885,0.0864 -12.15009,0.2433 -24.83335,2.1778 -36.73016,5.2137 -3.32734,0.8492 -10.09905,2.0604 -11.05954,6.8936 -0.7619,3.8342 2.99175,6.2191 4.37164,9.0656 1.34641,2.7773 1.26552,5.7179 3.53945,7.8611 6.77338,6.3841 17.28155,2.8117 23.75574,8.145 2.58246,2.1275 1.53908,6.5467 3.27015,9.3997 5.53499,9.1222 12.15026,15.5584 15.81376,26.4244 5.44124,16.139 4.23607,35.39 -3.88338,50 -3.94966,7.107 -12.42732,12.134 -13.26886,21 m 59.26913,-101 -0.85815,12.3611 -9.15917,1.7989 -17.5303,7.84 -10.01732,-25 37.56494,3 m 45.91271,-3 -10.01732,25 c -10.14504,-5.06 -17.26485,-8 -28.3824,-8 l 1.55102,-13.2585 10.13585,-2.7268 z"
       id="path810" /><path
       d="m 424.20929,382.5819 -6.19302,-3.14463 29.37502,-0.0178 c 16.15626,-0.01 29.37502,0.0567 29.37502,0.14783 0,0.0911 -2.70995,1.52217 -6.02212,3.1802 l -6.02212,3.01457 -17.15988,-0.0178 -17.15987,-0.0178 z m 4.07701,-7.28099 c -3.71888,-5.41812 -6.45516,-13.8296 -6.96945,-21.42451 l -0.22102,-3.26389 h 26.20643 26.20643 l -0.16766,2.3433 -0.16766,2.34331 0.87588,0.002 c 2.54743,0.005 5.38788,1.77591 6.28189,3.91556 2.08498,4.99008 -3.549,11.72231 -9.93034,11.86607 l -1.6179,0.0365 -1.71242,2.80228 -1.71243,2.80228 h -18.04761 -18.04761 l -0.97653,-1.42273 z m 43.92267,-7.42014 c 2.83236,-0.85242 5.22918,-3.4311 5.22561,-5.62208 -0.002,-1.38389 -1.18231,-2.82773 -2.82332,-3.45443 -0.84822,-0.32394 -1.61872,-0.51247 -1.71222,-0.41897 -0.0935,0.0935 -0.53297,1.65932 -0.97659,3.4796 -0.44363,1.82027 -1.04165,3.96876 -1.32895,4.7744 -0.28729,0.80565 -0.52235,1.52119 -0.52235,1.5901 0,0.22185 0.5288,0.13562 2.13782,-0.34862 z m -22.53884,-21.96299 c -2.07373,-1.77277 -5.81318,-2.47398 -8.09715,-1.51835 -0.74357,0.31111 -1.90183,-1.6029 -2.17469,-3.59366 -0.42348,-3.08959 2.00664,-6.08573 7.38386,-9.10369 6.70715,-3.76438 9.36536,-8.77007 7.19642,-13.55159 l -0.67901,-1.4969 0.86101,0.80888 c 1.46367,1.37504 2.63203,4.18195 2.63043,6.31944 -0.002,2.7166 -1.00567,4.68956 -3.91732,7.70071 -3.3794,3.4949 -4.04652,4.85259 -4.05387,8.25025 -0.005,2.32498 0.13533,2.97598 1.06458,4.93768 0.5887,1.24279 1.04063,2.25349 1.00427,2.24601 -0.0364,-0.007 -0.58469,-0.45693 -1.21853,-0.99878 z"
       style="fill:#000000;stroke-width:0.334758"
       id="path1571" /></g></svg>
