<?xml version="1.0" encoding="UTF-8" standalone="no"?>
<!-- Created with Inkscape (http://www.inkscape.org/) -->

<svg
   version="1.1"
   id="svg2"
   width="1119.4707"
   height="1697.8436"
   viewBox="0 0 1119.4707 1697.8436"
   sodipodi:docname="Oscar.svg"
   inkscape:version="1.2.2 (b0a8486541, 2022-12-01)"
   xmlns:inkscape="http://www.inkscape.org/namespaces/inkscape"
   xmlns:sodipodi="http://sodipodi.sourceforge.net/DTD/sodipodi-0.dtd"
   xmlns="http://www.w3.org/2000/svg"
   xmlns:svg="http://www.w3.org/2000/svg">
  <defs
     id="defs6" />
  <sodipodi:namedview
     id="namedview4"
     pagecolor="#ffffff"
     bordercolor="#666666"
     borderopacity="1.0"
     inkscape:showpageshadow="2"
     inkscape:pageopacity="0.0"
     inkscape:pagecheckerboard="0"
     inkscape:deskcolor="#d1d1d1"
     showgrid="false"
     inkscape:zoom="0.20629883"
     inkscape:cx="33.931361"
     inkscape:cy="816.77632"
     inkscape:window-width="1755"
     inkscape:window-height="994"
     inkscape:window-x="140"
     inkscape:window-y="13"
     inkscape:window-maximized="0"
     inkscape:current-layer="g8" />
  <g
     inkscape:groupmode="layer"
     inkscape:label="Image"
     id="g8"
     transform="translate(-342.11513,-83.918017)">
    <path
       id="path3274"
       style="fill:#94b4af;fill-opacity:1;stroke-width:0.553798;stop-color:#000000"
       d="M 342.11513,1781.7617 H 1461.5858 V 83.918017 H 342.11513 Z"
       clip-path="none"
       sodipodi:nodetypes="ccccc" />
    <path
       d="m 819.35759,1744.3566 c -42.6485,-1.5487 -97.1499,-3.983 -110,-4.9133 -73.5715,-5.3261 -94.403,-7.7225 -100.211,-11.5281 -5.4854,-3.5941 2.5351,-6.0225 31.8061,-9.6298 l 18.0809,-2.2283 -0.6994,-15.5478 c -1.2353,-27.4593 -6.5257,-23.3478 55.0234,-42.7626 l 12,-3.7852 0.2615,-39.2143 0.2616,-39.2143 -7.5255,-3.6696 c -20.3237,-9.9102 -18.0303,-17.9193 9.1509,-31.958 l 9.5721,-4.9438 -0.5484,-28.8478 c -0.3016,-15.8662 -0.1648,-29.8568 0.3041,-31.09 2.3739,-6.2439 32.4357,-12.3103 70.0237,-14.1307 l 13.5,-0.6538 9.0377,-9.1389 c 27.7538,-28.0643 28.6134,-50.3804 4.5757,-118.7842 -21.1784,-60.2669 -23.4168,-87.4668 -12.1511,-147.6553 8.4575,-45.1856 7.8357,-54.1281 -6.2846,-90.3837 -24.996,-64.1801 -32.9358,-145.61177 -20.945,-214.81553 3.6066,-20.81531 3.7259,-22.28023 3.7462,-46 l 0.021,-24.5 -13,-0.65412 c -36.2036,-1.82165 -53.0588,-19.82545 -56.9639,-60.84588 -1.357,-14.2547 -1.475,-14.7073 -6.9743,-26.75354 -13.8739,-30.39095 -16.3195,-45.8018 -14.5597,-91.74646 l 0.498,-13 -5.8465,-12.5 c -11.089,-23.70875 -14.6564,-38.78885 -14.6495,-61.92622 0.016,-52.83206 21.747,-79.09028 72.8145,-87.9824 12.2694,-2.13642 11.719,-1.87142 32.1815,-15.4924 5.775,-3.84416 18.6,-11.81396 28.5,-17.71067 32.5041,-19.36033 31.0852,-16.36976 29.8375,-62.88831 l -0.657,-24.5 -3.9558,-7.5 c -8.0216,-15.2087 -9.0077,-24.07566 -8.5079,-76.5 0.3426,-35.93647 0.4815,-38.35689 2.558,-44.57218 17.7561,-53.14791 122.3556,-59.79336 147.1882,-9.35121 5.7756,11.73182 6.2778,17.53442 5.785,66.8353 -0.5142,51.44246 -0.2888,49.87713 -9.7029,67.40766 -2.0938,3.89899 -2.3948,6.18708 -3.0911,23.5 -1.5025,37.35711 0.9674,49.56995 11.3408,56.07619 1.2128,0.76069 11.11741,6.84408 22.01031,13.51866 10.8928,6.67457 24.5447,15.38684 30.3374,19.36058 5.7927,3.97375 11.7303,7.9596 13.1948,8.85744 1.4644,0.89784 8.0626,2.38507 14.6626,3.30497 51.6125,7.19363 72.524,34.77295 70.1839,92.56259 -0.912,22.52241 -5.0418,39.3579 -14.3694,58.57904 l -4.8145,9.92096 0.5,12.5 c 1.8384,45.96038 -1.2061,65.34062 -15.1598,96.5 -4.4325,9.898 -5.0281,12.102 -5.9452,22 -4.084,44.07854 -20.9494,63.0049 -56.0581,62.90868 l -11.6631,-0.032 -0.8369,11.56165 c -1.3323,18.40504 -0.8144,31.33772 1.9847,49.56164 7.4185,48.29979 8.2721,76.30259 3.7154,121.87978 -3.9359,39.36838 -12.519,73.02118 -28.9182,113.38428 -9.1262,22.4621 -9.2576,37.9722 -0.739,87.2359 8.7487,50.5945 5.3964,83.6769 -14.43861,142.4886 -21.7683,64.5438 -20.6644,86.38 5.74131,113.5725 l 11.453,11.7942 6.1822,0.5126 c 3.4003,0.2819 12.9323,0.9787 21.1823,1.5483 25.2379,1.7427 49.0519,6.7212 52.9959,11.0792 1.7141,1.8941 1.7842,3.8385 1.1535,31.962 l -0.6717,29.9453 4.7612,2.6773 c 32.5822,18.3218 34.5554,24.9977 10.5299,35.6253 l -4.2688,1.8883 v 38.7982 38.7982 l 10.25,3.2095 c 63.005,19.7286 58.0636,16.0497 57.5571,42.8519 l -0.3071,16.2514 h 3.1033 c 1.7068,-8e-4 5.9818,0.2166 9.5,0.4831 5.8964,0.4466 6.123,0.3928 2.8967,-0.6885 -1.925,-0.6452 -3.7921,-1.6038 -4.1491,-2.1302 -0.357,-0.5265 -1.3695,-0.6808 -2.25,-0.3429 -0.8805,0.3379 -1.6009,0.2088 -1.6009,-0.2869 0,-0.4957 0.9,-1.1869 2,-1.536 1.1,-0.3491 2,-1.2936 2,-2.0988 0,-0.8052 0.7127,-1.7375 1.5838,-2.0717 1.2753,-0.4894 1.324,-0.7726 0.25,-1.4534 -1.0748,-0.6813 -1.0425,-0.874 0.1662,-0.9924 0.825,-0.081 -0.075,-0.5163 -2,-0.9677 -5.3961,-1.2654 90.3577,-0.084 128,1.5791 85.1878,3.7641 118,7.3324 118,12.8326 0,4.8542 -28.2451,8.7828 -95,13.2133 -4.675,0.3103 -16.6,1.4355 -26.5,2.5005 -53.6515,5.7715 -76.566,7.0423 -161.5,8.9565 -26.125,0.5888 -59.2,1.5053 -73.5,2.0367 -30.4299,1.1309 -220.90631,1.0257 -252.99991,-0.1396 z"
       style="fill:#ffeeaa;fill-opacity:1"
       id="path3284" />
    <g
       id="g3089"
       transform="translate(-120.26148,-111.95846)"
       clip-path="none">
      <path
         style="fill:#f0b94f"
         d="m 947.8907,1857.2143 c -114.21948,-3.7331 -207.72918,-10.6245 -218.25,-16.0843 -8.33246,-4.3242 1.43411,-8.1561 28.75,-11.28 7.7,-0.8806 15.575,-1.8369 17.5,-2.1251 l 3.5,-0.5239 -0.74502,-12.2044 c -1.44455,-23.6635 0.0915,-27.6179 12.51672,-32.2245 3.97556,-1.474 8.5783,-3.2342 10.2283,-3.9116 1.65,-0.6774 6.825,-2.3069 11.5,-3.6211 4.675,-1.3142 8.725,-2.6719 9,-3.0171 0.275,-0.3452 1.18221,-0.6207 2.01602,-0.6122 2.1692,0.022 12.73521,-3.2191 17.73398,-5.44 l 4.25,-1.8881 0.0528,-16.2449 c 0.20011,-61.5681 0.12361,-62.5821 -4.73113,-62.7131 -6.82935,-0.1843 -17.0666,-11.3637 -15.77812,-17.2301 0.84763,-3.8592 14.09598,-13.2318 29.20645,-20.6622 1.60645,-0.79 1.75236,-3.2714 1.77881,-30.25 0.0202,-20.5914 0.38027,-30.017 1.20283,-31.4856 3.37983,-6.0344 30.96143,-11.3926 68.57929,-13.3226 l 14.81093,-0.7599 6.53681,-6.4107 c 3.59524,-3.5259 7.66412,-8.1626 9.04194,-10.3038 1.37782,-2.1412 3.50556,-4.8412 4.72831,-6 7.80092,-7.393 11.84863,-25.72 9.631,-43.6069 -1.93717,-15.6247 -8.77122,-41.7222 -13.14995,-50.2162 -0.48659,-0.9439 -1.316,-3.4189 -1.84314,-5.5 -0.52714,-2.0811 -3.22115,-10.4005 -5.98668,-18.4876 -12.62008,-36.9041 -17.98929,-83.7689 -12.57915,-109.7962 0.28582,-1.375 1.14174,-6.1 1.90205,-10.5 0.76032,-4.4 1.44298,-8.1078 1.51703,-8.2395 0.51167,-0.9102 1.03296,-3.3817 1.53138,-7.2605 0.73559,-5.7244 0.99339,-7.2782 2.32274,-14 3.14913,-15.9234 4.15042,-35.8692 2.18371,-43.5 -2.40092,-9.3155 -5.27359,-17.5 -6.14233,-17.5 -0.51349,0 -0.70893,-0.3635 -0.43431,-0.8079 0.27461,-0.4443 -1.04332,-4.6068 -2.92874,-9.25 -5.17657,-12.7482 -16.12789,-48.6673 -17.97078,-58.9421 -2.63303,-14.6802 -4.55563,-26.1905 -5.01098,-30 -0.29584,-2.475 -1.00038,-6.75 -1.56565,-9.5 -0.56527,-2.75 -1.25845,-9.5 -1.5404,-15 -0.28195,-5.5 -0.87609,-11.1519 -1.32032,-12.5597 -0.83165,-2.6357 -0.53549,-58.2981 0.34819,-65.4403 0.27219,-2.2 0.7156,-6.025 0.98534,-8.5 0.56057,-5.1434 3.23416,-21.50777 4.00277,-24.49996 2.09719,-8.16433 4.67015,-29.40417 4.48212,-37 -0.0545,-2.2 -0.31662,-9.22127 -0.58258,-15.60283 l -0.48356,-11.60283 -12.14834,-0.59339 c -14.96501,-0.73097 -25.53578,-4.07314 -35.42685,-11.20095 -3.23971,-2.33463 -11.22149,-10.43718 -11.22149,-11.39128 0,-0.57109 -0.88324,-1.51105 -1.96276,-2.08879 -1.15373,-0.61746 -1.72792,-1.66244 -1.39301,-2.53518 0.31336,-0.81661 0.0716,-1.48475 -0.53724,-1.48475 -0.60885,0 -1.03555,-0.3375 -0.94823,-0.75 0.0873,-0.4125 -0.10247,-1.425 -0.42175,-2.25 -3.40652,-8.80237 -4.90196,-16.26474 -5.80316,-28.95843 -1.07417,-15.13009 -1.66316,-17.21337 -9.30718,-32.92014 -1.84266,-3.78626 -3.67218,-8.175 -4.06559,-9.75277 -0.39342,-1.57776 -1.29731,-4.21866 -2.00864,-5.86866 -5.66191,-13.13331 -7.32274,-29.16519 -6.24815,-60.31309 l 0.8043,-23.3131 -5.05794,-10.1869 c -2.78187,-5.6028 -5.0563,-10.52931 -5.0543,-10.94781 0.002,-0.41849 -0.84308,-2.66849 -1.87798,-5 -11.6449,-26.23472 -12.09773,-69.04914 -0.99054,-93.65323 10.83559,-24.00242 29.77036,-36.91278 63.2386,-43.11817 13.66525,-2.53369 14.63949,-2.97692 32.63357,-14.84678 7.975,-5.26074 15.4,-10.06188 16.5,-10.6692 1.1,-0.60732 7.85,-4.60389 15,-8.88126 7.15,-4.27738 15.40768,-9.19306 18.35041,-10.92375 9.46007,-5.5637 9.67425,-6.52667 9.51519,-42.78143 -0.13791,-31.43414 -0.57462,-35.49424 -4.27691,-39.76302 -5.44757,-6.2811 -7.27669,-16.77149 -8.30001,-47.60226 -2.01841,-60.81139 0.30646,-78.83864 11.72933,-90.95042 1.9151,-2.03059 3.48199,-4.01292 3.48199,-4.40517 0,-0.39226 1.2375,-1.4506 2.75,-2.35188 1.5125,-0.90127 3.65,-2.47622 4.75,-3.49989 1.63105,-1.51786 11.83744,-6.58358 23,-11.41555 29.9333,-12.95731 85.8598,-1.38592 100.1244,20.71608 1.0316,1.59832 2.5304,3.68467 3.3306,4.63633 6.7346,8.0086 8.5064,26.87802 7.2558,77.2705 -1.1016,44.38436 -1.1153,44.4908 -7.3608,57.17521 -5.2438,10.65015 -6.1235,17.79017 -5.5845,45.32479 0.6391,32.64859 -0.2538,31.13999 28.7345,48.55163 20.4426,12.27871 30.6582,18.89651 46.5,30.12307 2.1254,1.50619 6.8866,2.74615 16.331,4.25308 52.3616,8.35468 72.0275,33.46963 70.5682,90.12105 -0.6232,24.19298 -4.3896,40.4521 -14.0024,60.44583 l -5.7416,11.94203 1.0004,20.03165 c 1.8634,37.31413 -2.1808,60.72325 -15.2644,88.35547 -3.6827,7.77777 -4.5928,10.92828 -5.4885,19 -5.3071,47.82744 -20.9758,66.17619 -56.5105,66.17619 -6.7522,0 -10.2892,0.35756 -9.8922,1 0.3399,0.55 0.1415,1 -0.441,1 -0.5824,0 -1.1345,-0.7875 -1.2267,-1.75 -0.3205,-3.34435 -1.5879,19.31576 -1.6918,30.25 -0.058,6.05 0.5712,15.275 1.3972,20.5 6.6424,42.01866 6.7777,43.59816 6.8497,79.99996 0.1052,53.2119 -3.1727,80.4831 -14.123,117.5 -1.9524,6.6 -3.7727,13.35 -4.0452,15 -0.2725,1.65 -0.7782,3.225 -1.1237,3.5 -0.6497,0.5171 -11.6335,29.162 -15.9131,41.5 -2.3136,6.6701 -2.4027,7.8247 -1.8916,24.5 0.5106,16.6574 1.3138,23.2133 6.8611,56 5.0594,29.9031 3.5061,70.9788 -3.687,97.5 -0.7459,2.75 -1.8415,6.8 -2.4346,9 -1.79,6.6388 -4.7863,16.0796 -11.1082,35 -15.1684,45.3967 -17.3285,79.0054 -5.913,92 0.9663,1.1 2.5425,3.5521 3.5026,5.4492 0.9601,1.8971 6.0753,7.7963 11.367,13.1094 l 9.6213,9.6601 14,0.6927 c 24.9279,1.2335 50.6884,4.9669 60.197,8.7243 8.6207,3.4064 8.4391,2.5545 7.6976,36.1104 l -0.6465,29.2539 5.876,3.3452 c 3.2317,1.8398 6.5509,3.7452 7.3759,4.2341 0.825,0.4889 3.525,2.093 6,3.5647 17.1227,10.1815 15.488,20.1486 -4.6318,28.2411 l -3.1318,1.2596 0.1318,38.6777 0.1318,38.6776 6,1.7643 c 3.3,0.9704 8.25,2.4276 11,3.2384 11.2397,3.3135 25.2712,7.8378 29.5,9.5119 2.475,0.9797 7.0401,2.7603 10.1446,3.9568 9.5744,3.6898 11.0337,6.5555 10.8366,21.2786 l -0.1172,8.75 21.318,0.018 c 97.0041,0.082 216.6585,6.6647 231.068,12.712 11.7462,4.9296 -2.7818,10.1728 -36.75,13.2633 -6.6,0.6005 -16.725,1.5193 -22.5,2.0419 -5.775,0.5226 -19.95,1.6502 -31.5,2.5057 -11.55,0.8554 -23.925,1.963 -27.5,2.4612 -30.9345,4.311 -87.5315,7.3395 -169,9.043 -27.775,0.5808 -62.875,1.4762 -78,1.9897 -32.0882,1.0896 -198.681,1.0089 -233,-0.1127 z m 23.65349,-201.1704 c 0.5446,-0.8812 2.32029,-39.8222 1.88795,-41.4033 -0.0228,-0.083 -6.40527,-0.476 -14.18328,-0.8726 l -14.14183,-0.721 -0.1539,12.7019 c -0.0846,6.9861 0.14921,16.4375 0.51967,21.0033 l 0.67357,8.3013 5.12216,0.988 c 7.72763,1.4905 19.35508,1.4919 20.27566,0 z m -92.84157,-23.2517 c -0.51992,-9.35 -0.897,-18.9167 -0.83794,-21.2593 0.0937,-3.7155 -0.2253,-4.3858 -2.4984,-5.25 -5.08564,-1.9335 -4.97558,-2.3872 -4.97558,20.5091 v 21.5007 l 3.5,0.5816 c 1.925,0.3199 3.95,0.7082 4.5,0.8629 0.55,0.1546 1.05788,0.2303 1.12862,0.1681 0.0707,-0.062 -0.29677,-7.7631 -0.8167,-17.1131 z m 62.91725,-34.1042 c -0.33229,-0.3323 -1.1948,-0.3678 -1.91667,-0.079 -0.79773,0.3192 -0.56078,0.5562 0.60417,0.6042 1.05416,0.043 1.64479,-0.193 1.3125,-0.5253 z m 23.56414,-1.8303 20.20669,0.2522 -20,-0.7717 c -11,-0.4245 -23.375,-1.0342 -27.5,-1.355 -7.0455,-0.5479 -7.16827,-0.5245 -2.02599,0.3869 3.01071,0.5336 5.91321,1.4093 6.45,1.9461 0.5368,0.5368 1.35548,0.5965 1.8193,0.1327 0.46383,-0.4638 9.93633,-0.7299 21.05,-0.5912 z m -17.56414,0.8303 c -0.33229,-0.3323 -1.1948,-0.3678 -1.91667,-0.079 -0.79773,0.3192 -0.56078,0.5562 0.60417,0.6042 1.05416,0.043 1.64479,-0.193 1.3125,-0.5253 z m -23,-4 c -0.33229,-0.3323 -1.1948,-0.3678 -1.91667,-0.079 -0.79773,0.3192 -0.56078,0.5562 0.60417,0.6042 1.05416,0.043 1.64479,-0.193 1.3125,-0.5253 z m -51.72917,-2.3958 c 0.825,-0.5332 1.05,-0.9694 0.5,-0.9694 -0.55,0 -1.675,0.4362 -2.5,0.9694 -0.825,0.5332 -1.05,0.9694 -0.5,0.9694 0.55,0 1.675,-0.4362 2.5,-0.9694 z m 23.73335,-1.4319 c 1.77835,-0.3959 3.47699,-0.6667 3.77476,-0.602 0.29777,0.065 1.76776,-0.5275 3.26665,-1.3162 1.49888,-0.7887 3.85024,-1.9021 5.22524,-2.4742 5.86315,-2.4398 -13.015,-0.3749 -28,3.0626 l -5.5,1.2617 4,0.5 c 5.28693,0.6609 13.21637,0.4621 17.23335,-0.4319 z m -3.40002,-1.2348 c 0.36667,-0.3666 0.96667,-0.3666 1.33334,0 0.36666,0.3667 0.0667,0.6667 -0.66667,0.6667 -0.73333,0 -1.03333,-0.3 -0.66667,-0.6667 z m 14.15959,-0.3218 c 0.35034,-0.5669 -0.0511,-0.7346 -0.94098,-0.3931 -1.73242,0.6648 -2.04939,1.3816 -0.61096,1.3816 0.51754,0 1.21592,-0.4448 1.55194,-0.9885 z m 45.51835,-8.0115 c 0.60872,0 0.82865,-0.45 0.48873,-1 -0.33992,-0.55 -0.23308,-1 0.23742,-1 3.48663,0 19.83082,-17.9136 21.69066,-23.7734 0.34264,-1.0796 1.51149,-2.7669 2.59745,-3.7497 1.08596,-0.9828 1.97447,-2.5906 1.97447,-3.5729 0,-0.9823 0.44409,-2.0604 0.98686,-2.3959 0.54277,-0.3354 1.69729,-3.0537 2.56559,-6.0405 0.86829,-2.9869 1.99921,-5.6905 2.51314,-6.0081 1.71939,-1.0627 0.18627,-33.5057 -1.81744,-38.4595 -0.61997,-1.5328 -0.69774,-1.9258 -1.58295,-8 -0.83378,-5.7213 -2.88339,-13.4099 -3.93197,-14.75 -0.53797,-0.6875 -0.64292,-1.25 -0.23323,-1.25 0.40969,0 0.25407,-0.5914 -0.34583,-1.3142 -1.10651,-1.3333 -3.17434,-8.8927 -5.65848,-20.6858 -0.75305,-3.575 -2.94158,-11 -4.86341,-16.5 -4.65252,-13.3149 -11.38054,-40.0721 -12.71307,-50.5596 -2.97972,-23.4517 -1.51415,-45.0038 5.19801,-76.4404 2.78035,-13.0218 5.26857,-38.698 4.26394,-44 -0.20843,-1.1 -0.5584,-7.4 -0.7777,-14 -0.48525,-14.6031 -1.82385,-20.5704 -10.11889,-45.1085 -7.87193,-23.2864 -13.70777,-48.0558 -20.47227,-86.8915 -4.61016,-26.4675 -3.80821,-89.4876 1.51432,-118.99996 3.93645,-21.82679 4.7471,-38.01202 2.11702,-42.26758 -1.29645,-2.09771 -2.13631,-1.36361 -2.31336,2.02206 -0.6094,11.65331 -3.44141,29.99951 -4.84799,31.40609 -1.16518,1.16518 -1.42786,2.76573 -1.01831,6.20483 0.40256,3.3805 0.29111,4.09341 -0.41188,2.6346 -0.72412,-1.50265 -0.82986,-1.0053 -0.42519,2 0.29624,2.2 -0.39863,10.93196 -1.54415,19.40456 -2.97103,21.9743 -2.76507,56.4243 0.47585,79.5954 0.41228,2.9476 0.28488,3.6054 -0.48425,2.5 -0.85738,-1.2322 -1.04647,-1.0877 -1.05905,0.809 -0.008,1.27 0.37849,2.0657 0.85981,1.7682 0.48131,-0.2975 0.64019,1.5434 0.35305,4.0908 -0.29468,2.6144 -0.1314,4.3959 0.37489,4.0904 0.49332,-0.2976 0.99026,2.453 1.10431,6.1126 0.51658,16.5753 10.8496,58.1806 22.26012,89.629 12.43885,34.2825 13.18674,52.7592 3.98875,98.5429 -10.03213,49.9358 -6.85797,80.9856 14.37081,140.5761 23.35736,65.5655 21.25232,91.5932 -10.0647,124.4446 -8.4383,8.8517 -12.05046,13.325 -11.63471,14.4084 0.50275,1.3102 0.99125,1.1523 2.9399,-0.9504 1.28533,-1.3869 2.83501,-2.5216 3.44373,-2.5216 z m -35.24961,3.3129 c -0.95609,-0.2503 -2.75609,-0.2594 -4,-0.02 -1.24391,0.2392 -0.46166,0.444 1.73834,0.4551 2.2,0.011 3.21775,-0.1846 2.26166,-0.4349 z m 7.90501,0.02 c -0.36667,-0.3666 -0.96667,-0.3666 -1.33334,0 -0.36666,0.3671 -0.0667,0.6671 0.66667,0.6671 0.73333,0 1.03333,-0.3 0.66667,-0.6667 z m 61.75154,0.06 c 1.87146,-0.7181 2.0759,-3.4989 0.38179,-5.193 -0.93333,-0.9333 -0.92022,-1.2 0.059,-1.2 0.69246,0 0.9809,-0.45 0.64098,-1 -1.41257,-2.2856 -8.43338,-1.0811 -11.65742,2 -1.72656,1.65 -3.52247,3 -3.99089,3 -0.46843,0 -0.85169,0.675 -0.85169,1.5 0,1.5627 11.88001,2.2507 15.41821,0.893 z m -0.48542,-12.6343 c 9.81543,-8.0031 21.73491,-32.414 16.75951,-34.3233 -3.68576,-1.4143 -9.50651,1.4698 -10.76477,5.334 -0.66813,2.0518 -4.00638,8.2306 -7.41833,13.7306 -10.26925,16.5538 -10.21298,16.4375 -8.49979,17.5694 2.11489,1.3973 6.67919,0.3345 9.92338,-2.3107 z m 96.19081,-4.5087 c -0.5207,-0.9625 -2.5808,-4.45 -4.5779,-7.75 -1.9971,-3.3 -4.9859,-10.3523 -6.6418,-15.6719 -2.9731,-9.5511 -4.8234,-12.6139 -6.8601,-11.3552 -3.6215,2.2383 2.3429,20.876 9.9562,31.111 3.2354,4.3496 10.1918,7.4889 8.1236,3.6661 z m -43.8862,-272.5571 c 0.3259,-142.0592 -0.312,-215.8846 -1.87,-216.4038 -1.5277,-0.5092 -2.201,42.4441 -2.9832,190.2936 -0.597,112.853 -0.2331,142.3661 1.7176,139.2868 0.6069,-0.9581 0.8912,-0.4682 0.9463,1.6305 0.075,2.8525 0.1242,2.8866 1.0042,0.6929 0.5428,-1.3531 1.0328,-49.1112 1.1851,-115.5 z m -59.76009,111.5763 c 0.9448,-5.0362 0.7651,-15.165 -0.43057,-24.2692 -1.2422,-9.4585 -1.23709,-34.9837 0.009,-45.5 2.72224,-22.972 1.9354,-28.5 -4.05659,-28.5 -4.60164,0 -9.99927,25.0954 -9.99927,46.4899 0,17.8237 5.38891,46.9674 9.53097,51.5443 0.80797,0.8928 1.46903,2.1503 1.46903,2.7945 0,2.9275 2.84013,0.837 3.47731,-2.5595 z m 2.60087,-147.591 c -1.43349,-1.4335 -1.38322,-2.9848 0.0677,-2.0881 0.79061,0.4887 0.96576,-0.036 0.56498,-1.6909 -0.31948,-1.3196 -0.89326,-5.6617 -1.27506,-9.6492 l -0.69418,-7.25 h -3.07079 c -2.38839,0 -2.80412,0.2667 -1.87079,1.2 0.66,0.66 1.2,1.9807 1.2,2.9349 0,0.9542 0.52119,3.0017 1.1582,4.55 0.637,1.5483 1.29312,4.3819 1.45804,6.2968 0.52738,6.1238 2.81638,12.9461 3.21194,9.5731 0.1805,-1.5391 -0.157,-3.2836 -0.75,-3.8766 z m -4.07818,-15.1781 c 0,-0.275 0.225,-0.5 0.5,-0.5 0.275,0 0.5,0.225 0.5,0.5 0,0.275 -0.225,0.5 -0.5,0.5 -0.275,0 -0.5,-0.225 -0.5,-0.5 z m -7.91157,-96.2326 c 0.74369,-1.956 0.58803,-8.2788 -0.54778,-22.25 -0.87269,-10.7346 -2.71173,-33.6826 -4.08676,-50.9956 -3.60829,-45.4317 -8.08406,-71.5658 -12.74588,-74.42333 -7.96796,-4.88409 -14.01823,40.94793 -8.77762,66.49223 1.06171,5.1751 2.21478,12.1093 2.56236,15.4093 3.16895,30.0864 10.46218,55.1624 18.99202,65.2995 3.26421,3.8793 3.30507,3.8835 4.60366,0.4679 z m 67.91157,-90.7674 c 0,-0.275 -0.225,-0.5 -0.5,-0.5 -0.275,0 -0.5,0.225 -0.5,0.5 0,0.275 0.225,0.5 0.5,0.5 0.275,0 0.5,-0.225 0.5,-0.5 z m -1.9318,-9.8318 c -0.5875,-0.5875 -1.0682,-1.9532 -1.0682,-3.0349 0,-1.0816 -0.2525,-1.7142 -0.561,-1.4056 -0.3086,0.3086 0.029,3.4211 0.75,6.9167 1.2437,6.0295 1.3273,6.1564 1.6292,2.4738 0.175,-2.135 -0.1625,-4.3625 -0.75,-4.95 z m -2.4059,-9.9182 c -0.2774,-0.6875 -0.5044,-0.125 -0.5044,1.25 0,1.375 0.227,1.9375 0.5044,1.25 0.2774,-0.6875 0.2774,-1.8125 0,-2.5 z m 9.8532,-35.9828 c 0.3259,-11.14695 0.6808,-38.08224 0.7886,-59.85623 0.2167,-43.78363 0.3394,-42.91093 -6.0335,-42.91093 -2.7384,0 -3.357,-0.33233 -2.889,-1.55194 0.3415,-0.88992 0.1738,-1.29132 -0.3931,-0.94098 -1.3698,0.84663 -1.2437,3.49292 0.1665,3.49292 0.7405,0 0.6154,0.628 -0.3486,1.75 -1.2551,1.46076 -1.3599,3.40283 -0.634,11.75 0.4783,5.5 1.3268,19 1.8856,30 0.5587,11 1.391,25.85 1.8494,33 0.4585,7.15 1.1542,20.65 1.5462,29.99996 1.1883,28.3472 3.1619,26.0476 4.0619,-4.7328 z m -116.84883,1.5662 c -0.36667,-0.3667 -0.66667,-0.067 -0.66667,0.6666 0,0.7334 0.3,1.0334 0.66667,0.6667 0.36666,-0.3667 0.36666,-0.9667 0,-1.3333 z m 54.33333,-20.83336 c 0,-0.275 -0.225,-0.5 -0.5,-0.5 -0.275,0 -0.5,0.225 -0.5,0.5 0,0.275 0.225,0.5 0.5,0.5 0.275,0 0.5,-0.225 0.5,-0.5 z m -4,-10 c 0,-0.275 -0.225,-0.5 -0.5,-0.5 -0.275,0 -0.5,0.225 -0.5,0.5 0,0.275 0.225,0.5 0.5,0.5 0.275,0 0.5,-0.225 0.5,-0.5 z m -1,-2 c 0,-0.275 -0.225,-0.5 -0.5,-0.5 -0.275,0 -0.5,0.225 -0.5,0.5 0,0.275 0.225,0.5 0.5,0.5 0.275,0 0.5,-0.225 0.5,-0.5 z m 0.99013,-4.53441 c -1.83641,-6.40319 -15.40499,-17.99798 -14.59378,-12.47086 0.30327,2.06635 5.66426,7.50527 7.39773,7.50527 0.83956,0 1.18893,0.60189 0.85479,1.47263 -0.31685,0.82572 0.29229,2.07317 1.38665,2.8397 1.07347,0.75188 1.61712,1.73634 1.20812,2.18769 -0.409,0.45135 -0.27215,0.55318 0.30411,0.22629 0.57626,-0.32689 1.70126,-0.18093 2.5,0.32436 0.79874,0.50529 1.53334,0.9256 1.63244,0.93402 0.0991,0.008 -0.21142,-1.35018 -0.69006,-3.0191 z M 959.8907,948.85126 c 0,-0.24254 -0.51953,-0.76207 -1.15451,-1.15451 -0.7153,-0.44208 -0.88306,-0.27432 -0.44098,0.44098 0.71244,1.15275 1.59549,1.54767 1.59549,0.71353 z m -18.71729,-12.89129 c 0.30004,-2.84225 1.45085,-7.2648 2.55735,-9.82787 2.3619,-5.47103 2.10723,-5.9716 -5.42761,-10.6685 -6.89249,-4.29649 -7.41894,-4.14816 -7.37756,2.07864 0.1246,18.74992 8.604,33.98939 10.24782,18.41773 z M 908.1407,907.62996 c -0.6875,-0.27741 -1.8125,-0.27741 -2.5,0 -0.6875,0.27741 -0.125,0.50439 1.25,0.50439 1.375,0 1.9375,-0.22698 1.25,-0.50439 z m -9,-1 c -0.6875,-0.27741 -1.8125,-0.27741 -2.5,0 -0.6875,0.27741 -0.125,0.50439 1.25,0.50439 1.375,0 1.9375,-0.22698 1.25,-0.50439 z m 16,0 c -0.6875,-0.27741 -1.8125,-0.27741 -2.5,0 -0.6875,0.27741 -0.125,0.50439 1.25,0.50439 1.375,0 1.9375,-0.22698 1.25,-0.50439 z m -21.75,-1.33772 c -1.1,-0.47269 -2.675,-0.85943 -3.5,-0.85943 -0.94548,0 -0.76064,0.31771 0.5,0.85943 1.1,0.47269 2.675,0.85943 3.5,0.85943 0.94548,0 0.76064,-0.31771 -0.5,-0.85943 z m 27.63922,-0.96673 c 1.29843,-1.0817 1.79828,-1.9817 1.11078,-2 -0.6875,-0.0183 -1.25,0.41673 -1.25,0.96673 0,0.55 -0.64844,1 -1.44098,1 -0.79254,0 -1.7191,0.45 -2.05902,1 -1.0452,1.69117 1.14817,1.10852 3.63922,-0.96673 z m -33.13922,-0.53327 c 0,-0.275 -0.225,-0.5 -0.5,-0.5 -0.275,0 -0.5,0.225 -0.5,0.5 0,0.275 0.225,0.5 0.5,0.5 0.275,0 0.5,-0.225 0.5,-0.5 z m -2,-1 c 0,-0.275 -0.225,-0.5 -0.5,-0.5 -0.275,0 -0.5,0.225 -0.5,0.5 0,0.275 0.225,0.5 0.5,0.5 0.275,0 0.5,-0.225 0.5,-0.5 z m -2,-1 c 0,-0.275 -0.225,-0.5 -0.5,-0.5 -0.275,0 -0.5,0.225 -0.5,0.5 0,0.275 0.225,0.5 0.5,0.5 0.275,0 0.5,-0.225 0.5,-0.5 z m -4.30576,-3.0316 c -1.54317,-1.35762 -2.52503,-2.4684 -2.18191,-2.4684 0.34312,0 -0.24317,-1.2375 -1.30286,-2.75 -2.20228,-3.1433 -7.43534,-16.44405 -9.256,-23.52576 -0.6753,-2.62667 -1.61609,-5.01573 -2.09064,-5.30902 -0.47456,-0.29329 -0.86283,-0.98325 -0.86283,-1.53325 0,-0.55 0.3375,-0.79014 0.75,-0.53363 0.4125,0.25651 0.60044,-2.13431 0.41764,-5.31292 -0.1828,-3.17861 0.0681,-7.29942 0.55767,-9.15735 1.38959,-5.27406 0.002,-10.17803 -4.46773,-15.79203 -15.2717,-19.18045 -19.78615,-51.73974 -14.57053,-105.08604 0.38464,-3.93419 -0.0747,-5.31728 -3.65339,-11 -20.00092,-31.76023 -22.19929,-81.8005 -4.75592,-108.25651 16.51573,-25.04909 43.8058,-32.74225 109.933,-30.99048 13.28823,0.35202 20.61958,0.16021 22.5,-0.58865 7.28361,-2.90064 9.29621,-3.35411 16.28926,-3.67023 6.90277,-0.31204 26.4916,-4.59542 27.8961,-6.0999 1.82,-1.94948 -62.956,1.11391 -103.6461,4.90164 -4.05104,0.3771 -4.13261,-0.0922 -0.25119,-1.4453 1.64935,-0.57497 2.718,-1.49977 2.37477,-2.05512 -0.38915,-0.62966 0.17589,-0.75583 1.50119,-0.3352 1.23344,0.39148 2.12523,0.2398 2.12523,-0.36148 0,-0.5698 0.74882,-0.74865 1.66404,-0.39745 0.99008,0.37993 1.41335,0.23292 1.04507,-0.36297 -0.34712,-0.56166 1.73314,-1.74296 4.73656,-2.6897 2.94554,-0.9285 5.60022,-2.32584 5.89929,-3.10521 0.76315,-1.98873 16.36653,-12.34831 34.65504,-23.00858 21.46176,-12.50993 25.77863,-21.64844 21.57411,-45.67088 -3.02036,-17.25681 -4.52496,-16.8833 -4.57616,1.13602 -0.0743,26.13342 -1.03342,27.62881 -28.12147,43.84316 -19.13393,11.45317 -36.83021,22.93185 -49.59255,32.16817 -2.46421,1.78339 -6.82716,3.62978 -10.5,4.44359 -32.86675,7.28237 -40.90036,10.43413 -51.8478,20.34099 -25.30964,22.90392 -28.70324,71.14776 -8.06858,114.70409 l 6.63245,14 -0.5,14.5 c -1.65147,47.89268 0.27368,60.8968 13.47181,91 6.2691,14.29901 6.37258,14.68195 7.46527,27.62652 1.30693,15.48266 2.99407,22.58815 7.2668,30.60461 2.70829,5.08127 11.74193,14.83142 13.65427,14.73727 0.35302,-0.0174 -0.62074,-1.14238 -2.16391,-2.5 z m 163.22246,-4.10908 c 0.2291,-0.19762 -1.0084,-0.35932 -2.75,-0.35932 -1.7417,0 -3.1667,0.45857 -3.1667,1.01905 0,0.89686 4.7222,0.37032 5.9167,-0.65973 z m -184.9167,0.14068 c 0,-0.275 -0.225,-0.5 -0.5,-0.5 -0.275,0 -0.5,0.225 -0.5,0.5 0,0.275 0.225,0.5 0.5,0.5 0.275,0 0.5,-0.225 0.5,-0.5 z m 125.57143,-28.07143 c -0.86429,-0.86428 -1.57143,-2.06428 -1.57143,-2.66667 0,-0.60238 -0.2729,-0.82233 -0.60645,-0.48878 -0.33355,0.33354 -1.5434,-0.26646 -2.68856,-1.33334 -1.14516,-1.06688 -2.67226,-1.93978 -3.39355,-1.93978 -0.72129,0 -1.31144,-0.45 -1.31144,-1 0,-0.55 -0.675,-1 -1.5,-1 -0.825,0 -2.41406,-0.91406 -3.53125,-2.03125 -1.11719,-1.11719 -3.37655,-2.30031 -5.02081,-2.62916 -1.64426,-0.32885 -3.2325,-0.99101 -3.52944,-1.47146 -0.29779,-0.48184 -1.40948,-0.40814 -2.47919,0.16435 -1.06662,0.57084 -1.93931,0.77931 -1.93931,0.46328 0,-0.31604 -0.6252,0.006 -1.38934,0.71481 -0.88813,0.82427 -1.02084,1.52055 -0.36787,1.93011 0.56181,0.35237 0.0383,0.95271 -1.16331,1.33409 -1.74225,0.55297 -1.94861,0.97799 -1.01882,2.09832 0.64127,0.77269 1.56497,1.15829 2.05265,0.85688 0.48768,-0.3014 0.88669,-0.10866 0.88669,0.42831 0,1.5446 8.56099,4.41583 10.92721,3.66482 1.47088,-0.46684 2.03852,-0.27433 1.84791,0.6267 -0.17721,0.8377 0.97041,1.39016 3.22488,1.55243 1.925,0.13855 5.525,0.66292 8,1.16527 6.36278,1.29146 6.30716,1.2968 4.57143,-0.43893 z m -30.57143,-8.92857 c 0,-0.275 0.225,-0.5 0.5,-0.5 0.275,0 0.5,0.225 0.5,0.5 0,0.275 -0.225,0.5 -0.5,0.5 -0.275,0 -0.5,-0.225 -0.5,-0.5 z m -72.50501,-14.1327 c 0.87347,-1.33308 1.30569,-2.88079 0.96048,-3.43935 -0.34521,-0.55856 -0.0797,-1.67585 0.59011,-2.48287 0.66977,-0.80702 1.99686,-2.92481 2.9491,-4.7062 0.95223,-1.78138 3.25548,-3.97242 5.11833,-4.86898 24.0195,-11.56014 28.75265,-15.38059 67.74441,-54.68125 34.02725,-34.2968 44.99608,-40.64575 77.03458,-44.58897 10.5492,-1.29836 15.6471,-3.10764 12.2448,-4.34573 -1.1307,-0.41149 -1.1357,-0.63662 -0.029,-1.32063 2.7696,-1.7117 -0.4689,-2.21498 -13.8331,-2.14976 -36.06777,0.17601 -52.64577,9.66455 -83.46665,47.77277 -14.44447,17.85974 -24.00852,26.0149 -39.80815,33.94394 -18.24886,9.15819 -27.60368,16.84359 -33.34706,27.39606 -5.60274,10.29409 -2.1071,22.55052 3.84205,13.47097 z M 867.73607,767.7689 c 12.03908,-10.13022 12.93565,-57.47666 1.0884,-57.47666 -14.6288,0 -19.28071,58.56959 -4.7605,59.93661 0.37031,0.0349 2.02275,-1.07211 3.6721,-2.45995 z m 115.15463,-2.97666 c 0,-0.275 -0.225,-0.5 -0.5,-0.5 -0.275,0 -0.5,0.225 -0.5,0.5 0,0.275 0.225,0.5 0.5,0.5 0.275,0 0.5,-0.225 0.5,-0.5 z m 46.0117,-53.4752 c 2.2328,-0.52491 2.7036,-0.85692 1.3081,-0.92244 -1.9373,-0.091 -2.0843,-0.43662 -1.3198,-3.10236 0.5674,-1.97826 0.5019,-3 -0.1923,-3 -0.7064,0 -0.6863,-0.44131 0.061,-1.34201 1.535,-1.84963 0.4306,-2.64558 -3.7856,-2.72828 -2.9473,-0.0578 -3.2283,-0.22746 -1.5833,-0.95584 1.3453,-0.59569 0.527,-0.6977 -2.5,-0.31164 -6.6677,0.85038 -8.7592,2.54922 -9.5388,7.74781 -1.052,7.01506 2.9096,8.05673 17.5505,4.61476 z m -103.5117,-9.0248 c -0.33992,-0.55 -1.15398,-1.01604 -1.80902,-1.03564 -1.53195,-0.0459 -11.50632,-4.83017 -10.22954,-4.90672 0.52879,-0.0317 -0.79051,-0.95084 -2.93178,-2.04252 -5.55368,-2.83142 -5.45039,-1.81379 0.18232,1.79635 7.73026,4.95451 16.2215,8.50795 14.78802,6.18853 z m -20.5,-11.37756 c 0,-0.20765 -0.7875,-0.99515 -1.75,-1.75 -1.58606,-1.24387 -1.62143,-1.2085 -0.37756,0.37756 1.30637,1.66575 2.12756,2.19548 2.12756,1.37244 z m -4,-4 c 0,-0.20765 -0.7875,-0.99515 -1.75,-1.75 -1.58606,-1.24387 -1.62143,-1.2085 -0.37756,0.37756 1.30637,1.66575 2.12756,2.19548 2.12756,1.37244 z m 174.9861,-10.12244 c 1.1663,-2.33276 1.6127,-8.57315 2.0069,-28.05767 l 0.507,-25.05766 4.8312,-9.6031 c 6.1962,-12.31615 6.045,-13.98351 -1.3754,-15.16235 -25.3094,-4.0208 -38.7407,19.33537 -30.9849,53.88078 4.7951,21.35791 19.3528,35.32486 25.0152,24 z M 910.1312,657.25429 c 1.50727,-2.17913 3.32264,-3.96205 4.03416,-3.96205 1.55039,0 10.12549,-8.67304 14.95933,-15.13019 16.28346,-21.75182 32.5127,-32.42747 56.75997,-37.3369 6.36438,-1.28862 8.03795,-3.93167 3.32248,-5.24718 -28.98439,-8.08604 -66.84229,18.54073 -79.74889,56.09014 -3.616,10.52009 -3.48603,11.59898 0.67295,5.58618 z m -40.60349,-18.88453 c 10.54011,-4.78612 18.61943,-16.7152 18.77573,-27.7223 0.29902,-21.05747 -33.33958,-16.6272 -40.83764,5.37839 -5.65122,16.58542 6.8534,29.24988 22.06191,22.34391 z M 983.55737,476.62557 c -0.36667,-0.36666 -0.66667,-0.0667 -0.66667,0.66667 0,0.73333 0.3,1.03333 0.66667,0.66667 0.36666,-0.36667 0.36666,-0.96667 0,-1.33334 z m 5.40406,-6.58333 c -1.22842,-2.14434 -2.25387,-7.13015 -3.01424,-14.65536 -0.63383,-6.27295 -1.54255,-12.13434 -2.01939,-13.02533 -1.65695,-3.09602 -6.0371,-16.42972 -6.0371,-18.37762 0,-3.66142 -2.26304,-9.64588 -3.39848,-8.98705 -0.60583,0.35153 -0.30123,-0.27527 0.6769,-1.39289 1.49645,-1.70986 1.59392,-2.49023 0.61475,-4.9219 -0.72025,-1.78865 -1.10825,-8.22467 -1.01823,-16.88985 0.08,-7.7 0.25336,-25.925 0.38525,-40.5 0.22673,-25.05407 0.3656,-26.81135 2.54527,-32.2062 3.589,-8.88305 14.73864,-18.64888 21.409,-18.75188 l 2.71444,-0.0419 -2.04062,4.75 c -3.6773,8.55962 -4.16561,14.28722 -2.83153,33.21167 1.38079,19.58708 2.17628,21.99356 7.30825,22.10862 2.7327,0.0613 2.8783,0.1917 1.135,1.01647 -1.4375,0.68008 -0.7344,0.78654 2.5,0.37853 5.7307,-0.72291 6.5098,-1.56508 4.7187,-5.10039 -7.2805,-14.37057 -3.011,-40.43604 8.4844,-51.79628 6.9927,-6.91047 7.009,-6.93948 5.4282,-9.61567 -2.6754,-4.52902 10.8589,-9.62739 26.7268,-10.06795 l 4.1419,-0.115 -4,-0.82737 c -30.8105,-6.37292 -68.89888,7.78252 -79.53078,29.55737 -9.57899,19.61843 -7.61526,95.3831 3.07375,118.59174 3.74137,8.12349 3.95703,9.11703 3.95703,18.22977 0,12.12305 4.40301,22.39497 9.71627,22.6674 0.11896,0.006 -0.62154,-1.45141 -1.64554,-3.23891 z m 26.59597,-31.41667 c -0.3667,-0.36666 -0.9667,-0.36666 -1.3334,0 -0.3666,0.36667 -0.067,0.66667 0.6667,0.66667 0.7333,0 1.0333,-0.3 0.6667,-0.66667 z m 4,-1 c -0.3667,-0.36666 -0.9667,-0.36666 -1.3334,0 -0.3666,0.36667 -0.067,0.66667 0.6667,0.66667 0.7333,0 1.0333,-0.3 0.6667,-0.66667 z m 5.0625,-0.9375 c -0.3323,-0.33229 -1.1948,-0.36781 -1.9167,-0.0789 -0.7977,0.31922 -0.5608,0.55618 0.6042,0.60416 1.0541,0.0434 1.6448,-0.19293 1.3125,-0.52522 z m 14.2708,-36.18673 c 0,-1.545 0.4305,-3.23961 0.9567,-3.7658 1.4662,-1.46621 1.6691,-14.21754 0.2488,-15.63783 -0.9407,-0.94063 -1.2055,-0.9341 -1.2055,0.0297 0,0.92198 -0.5031,0.96595 -1.9839,0.17342 -1.7935,-0.95982 -2.0463,-0.67195 -2.6332,2.99832 -0.6841,4.27826 -1.0959,4.62269 -1.7125,1.43236 -0.4015,-2.0779 -2.5027,-7.27144 -2.6052,-6.43928 -0.034,0.275 0.6078,6.8 1.4259,14.5 0.8181,7.7 1.4923,14.40424 1.4982,14.89831 0.01,0.49408 1.3607,-0.51433 3.0107,-2.24089 1.8764,-1.96343 3,-4.19136 3,-5.94832 z m -24.5,-37.2091 c -0.3399,-0.55 -1.604,-0.95514 -2.809,-0.90032 -2.0396,0.0928 -2.0183,0.155 0.309,0.90032 1.375,0.44035 2.6391,0.8455 2.809,0.90032 0.17,0.0548 0.031,-0.35032 -0.309,-0.90032 z m 280.5,1448.49996 c 0,-0.275 0.225,-0.5 0.5,-0.5 0.275,0 0.5,0.225 0.5,0.5 0,0.275 -0.225,0.5 -0.5,0.5 -0.275,0 -0.5,-0.225 -0.5,-0.5 z"
         id="path3095" />
      <path
         style="fill:#955923"
         d="m 968.8907,1857.6324 c -4.125,-0.1502 -21.9,-0.7567 -39.5,-1.3477 -105.13155,-3.5302 -187.76181,-10.0327 -198.75,-15.6404 -8.33927,-4.2559 0.73707,-7.5152 30.25,-10.8629 7.975,-0.9046 15.42319,-1.8209 16.55153,-2.0362 1.99634,-0.3809 2.04022,-0.8707 1.6311,-18.2042 l -0.42044,-17.8127 2.62399,-3.1185 c 3.18601,-3.7863 8.88211,-5.9514 41.29445,-15.6962 l 23.81937,-7.1612 0.2882,-35.9801 c 0.36196,-45.1878 1.08012,-41.4068 -8.84577,-46.5709 -10.10324,-5.2562 -12.60261,-8.4944 -12.10087,-15.6776 0.17375,-2.4877 11.93454,-10.7977 24.40474,-17.2441 l 6.7463,-3.4875 0.004,-29.5275 c 0.003,-24.6991 0.25039,-29.8797 1.51234,-31.6814 3.98178,-5.6848 32.96214,-11.4361 64.99136,-12.8979 18.66305,-0.8518 19.05174,-1.0008 27.79586,-10.6607 26.52368,-29.3015 27.2716,-50.3437 4.12186,-115.9657 -21.70316,-61.5215 -24.15611,-89.7135 -12.9507,-148.8444 8.48688,-44.7851 7.93407,-54.8858 -4.79398,-87.5934 -27.86056,-71.5941 -35.14146,-152.27 -20.65153,-228.82896 2.2116,-11.68522 3.8591,-47.17097 2.58247,-55.62412 l -0.66087,-4.37588 -10.92297,-0.0873 c -36.16872,-0.28902 -55.60967,-20.81055 -58.92894,-62.20437 -1.01418,-12.64765 -1.18517,-13.30562 -6.45765,-24.84999 -13.40605,-29.35256 -15.12887,-38.0907 -15.15374,-76.85834 l -0.0199,-31 -5.11318,-10.5 c -15.19451,-31.20215 -19.06113,-63.68575 -11.23765,-94.40773 7.92161,-31.10735 29.82721,-49.04682 67.75648,-55.48881 14.12483,-2.39899 11.95101,-1.42338 30.8968,-13.86648 8.10553,-5.3235 24.18733,-15.34222 35.73733,-22.26384 27.45935,-16.45566 25,-11.29368 25,-52.47314 v -32 l -4.74664,-9 c -7.06337,-13.39272 -7.56626,-17.73287 -7.87901,-68 l -0.26131,-42 2.47233,-8 c 17.99778,-58.23739 131.59704,-61.84339 150.81784,-4.78743 3.7356,11.08894 4.2621,21.79387 3.2358,65.78743 -1.0521,45.09507 -1.2445,46.56793 -7.5908,58.11366 -4.6076,8.38257 -5.4791,14.77068 -5.5098,40.38634 -0.044,37.18936 -0.9209,35.68478 32.6222,56 13.3503,8.08552 36.6147,23.30426 41.5054,27.1513 3.1164,2.45137 5.3535,3.1183 14.9226,4.44864 53.3572,7.41797 72.4261,30.43682 72.4025,87.40006 -0.012,28.52729 -2.583,40.96898 -12.8124,62 l -5.1072,10.5 -0.036,31.5 c -0.044,38.79746 -2.1456,49.5569 -15.8208,81 -3.5024,8.05303 -4.72,12.24783 -5.2249,18 -4.1236,46.97846 -22.4217,67.52267 -58.5894,65.78108 l -9.6082,-0.46267 -0.6422,12.5908 c -1.1157,21.87476 -0.7367,29.15533 2.7677,53.16922 4.767,32.66543 5.9673,50.48153 5.3034,78.71823 -1.3699,58.2607 -9.5588,98.0002 -31.3639,152.2033 -8.6783,21.5727 -8.9914,41.1664 -1.32,82.627 9.5958,51.8614 6.4459,85.8884 -13.5495,146.373 -22.0108,66.5809 -20.8672,87.3039 6.3458,114.9961 l 10.6662,10.854 13.5,0.6384 c 32.68,1.5455 61.1069,6.803 66.222,12.2478 2.2193,2.3623 2.2284,2.5166 1.9325,32.5686 l -0.2974,30.1951 7.5072,3.815 c 27.4273,13.9381 30.129,22.3415 10.3857,32.3041 l -6.75,3.406 -0.1189,36.2375 c -0.066,19.9306 -0.178,37.3624 -0.25,38.7374 -0.1164,2.2198 0.5415,2.7031 5.8689,4.312 28.5926,8.6349 55.6594,18.1754 58.652,20.6737 l 3.348,2.795 v 11.4896 11.4896 l 46.5,0.6579 c 127.0608,1.798 210,7.9517 210,15.5811 0,4.6024 -16.7387,8.0956 -52.5,10.9563 -49.3746,3.9496 -64.1867,5.226 -81,6.9798 -42.4689,4.43 -62.769,5.4895 -145,7.5679 -33,0.834 -75.525,1.9536 -94.5,2.4881 -30.0063,0.8451 -187.135,1.1089 -208.00001,0.3492 z m -164.33333,-29.0069 c -0.36667,-0.3666 -0.96667,-0.3666 -1.33334,0 -0.36666,0.3667 -0.0667,0.6667 0.66667,0.6667 0.73333,0 1.03333,-0.3 0.66667,-0.6667 z m -4,-1 c -0.36667,-0.3666 -0.96667,-0.3666 -1.33334,0 -0.36666,0.3667 -0.0667,0.6667 0.66667,0.6667 0.73333,0 1.03333,-0.3 0.66667,-0.6667 z m -4.66667,-2.8333 c 0,-0.275 -0.225,-0.5 -0.5,-0.5 -0.275,0 -0.5,0.225 -0.5,0.5 0,0.275 0.225,0.5 0.5,0.5 0.275,0 0.5,-0.225 0.5,-0.5 z m 2.5,-0.5 c 0.33992,-0.55 0.39303,-1 0.11803,-1 -0.275,0 -0.77811,0.45 -1.11803,1 -0.33992,0.55 -0.39303,1 -0.11803,1 0.275,0 0.77811,-0.45 1.11803,-1 z m 3.5,-0.5 c 0,-0.275 -0.225,-0.5 -0.5,-0.5 -0.275,0 -0.5,0.225 -0.5,0.5 0,0.275 0.225,0.5 0.5,0.5 0.275,0 0.5,-0.225 0.5,-0.5 z m 159.50562,-9.25 c 0.15078,-2.1185 -0.22473,-2.2521 -6.42274,-2.2853 -3.62058,-0.019 -21.43064,-0.6591 -39.5779,-1.4216 -18.14726,-0.7625 -33.18476,-1.1966 -33.41667,-0.9647 -0.2319,0.2319 0.12991,0.4216 0.80404,0.4216 0.67413,0 0.97466,0.4062 0.66785,0.9026 -1.56607,2.5339 21.70759,4.6439 59.9398,5.4341 18.72854,0.3871 17.82208,0.4922 18.00562,-2.0867 z m -64.75562,-2.9123 c 0.6875,-0.2774 1.8125,-0.2774 2.5,0 0.6875,0.2774 0.125,0.5044 -1.25,0.5044 -1.375,0 -1.9375,-0.227 -1.25,-0.5044 z m 132.75,3.6623 c 2.2578,-0.9702 -0.9373,-1.1582 -24.8011,-1.4591 -10.79272,-0.1361 -15.26127,0.163 -16.50004,1.1044 -2.0093,1.527 37.77794,1.8687 41.30114,0.3547 z m -194.39393,-25.9501 c 6.16783,-2.1726 11.58528,-4.5351 12.03877,-5.25 0.4535,-0.715 0.83143,-0.919 0.83985,-0.4535 0.008,0.4655 1.44811,-0.772 3.19931,-2.75 1.7512,-1.978 3.8887,-3.5648 4.75,-3.5261 1.1302,0.051 1.00942,0.3094 -0.434,0.9297 -2.48324,1.0671 -0.01,1.1033 3.5,0.051 2.18065,-0.6536 1.88647,-0.848 -2.30292,-1.5218 -5.35335,-0.861 -11.15852,0.5576 -38.19708,9.3341 -14.8986,4.8359 -14.96958,4.8731 -10.5,5.499 4.49882,0.63 9.56076,1.176 13.69591,1.4774 1.20776,0.088 7.24233,-1.6176 13.41016,-3.7901 z m 12.89393,-10.5499 c 0,-0.275 0.225,-0.5 0.5,-0.5 0.275,0 0.5,0.225 0.5,0.5 0,0.275 -0.225,0.5 -0.5,0.5 -0.275,0 -0.5,-0.225 -0.5,-0.5 z m 9.66667,1.8333 c -0.36667,-0.3666 -0.96667,-0.3666 -1.33334,0 -0.36666,0.3667 -0.0667,0.6667 0.66667,0.6667 0.73333,0 1.03333,-0.3 0.66667,-0.6667 z m 4.33333,-0.8333 c 0,-0.275 -0.225,-0.5 -0.5,-0.5 -0.275,0 -0.5,0.225 -0.5,0.5 0,0.275 0.225,0.5 0.5,0.5 0.275,0 0.5,-0.225 0.5,-0.5 z m 2.66667,-1.1667 c -0.36667,-0.3666 -0.96667,-0.3666 -1.33334,0 -0.36666,0.3667 -0.0667,0.6667 0.66667,0.6667 0.73333,0 1.03333,-0.3 0.66667,-0.6667 z m 4.99067,-21.5833 c -0.35654,-6.1875 -0.72594,-16.875 -0.8209,-23.75 -0.13411,-9.7094 -0.31007,-11.1605 -0.78815,-6.5 l -0.6155,6 -0.85445,-3.8927 -0.85446,-3.8927 -1.83971,2.3927 c -1.71432,2.2296 -1.84226,2.2564 -1.87725,0.3927 -0.0207,-1.1 -0.47904,-2.675 -1.01864,-3.5 -0.65344,-0.999 -0.8988,5.8473 -0.73469,20.5 l 0.24641,22 3.5,0.6184 c 6.78111,1.198 6.36749,1.9561 5.65734,-10.3684 z m -2.15734,9.25 c 0.33992,-0.55 0.81648,-1 1.05902,-1 0.24254,0 0.44098,0.45 0.44098,1 0,0.55 -0.47656,1 -1.05902,1 -0.58246,0 -0.7809,-0.45 -0.44098,-1 z m -0.5,-32 c 0,-0.7333 0.3,-1.0333 0.66667,-0.6667 0.36666,0.3667 0.36666,0.9667 0,1.3334 -0.36667,0.3666 -0.66667,0.067 -0.66667,-0.6667 z m -5.45017,-33.9194 c -0.31252,-0.5056 0.127,-1.6146 0.97669,-2.4643 0.8497,-0.8497 1.55835,-1.8984 1.57477,-2.3306 0.0164,-0.4321 0.78785,-0.6544 1.71429,-0.494 1.44662,0.2505 1.47266,0.1468 0.18442,-0.7347 -3.61137,-2.4711 -6,-1.2995 -6,2.943 0,2.2 0.47656,4 1.05902,4 0.58246,0 0.80332,-0.4137 0.49081,-0.9194 z m 7.45017,-5.5806 c 0,-0.275 -0.225,-0.5 -0.5,-0.5 -0.275,0 -0.5,0.225 -0.5,0.5 0,0.275 0.225,0.5 0.5,0.5 0.275,0 0.5,-0.225 0.5,-0.5 z m 127.74377,-10.6644 c -1.51593,-0.5535 -2.54256,-1.3521 -2.28141,-1.7747 0.26115,-0.4225 -3.22355,-1.047 -7.74377,-1.3877 -4.52022,-0.3407 -11.11216,-1.5148 -14.64874,-2.6092 -3.53658,-1.0944 -12.87739,-2.9664 -20.75735,-4.1601 l -14.3272,-2.1704 -6.24265,2.8832 c -5.98078,2.7624 -6.78797,2.8738 -19.24265,2.656 -38.8027,-0.6786 -9.33447,3.9866 44.5,7.0449 14.57664,0.8281 43.39771,0.4872 40.74377,-0.482 z m -108.0146,-6.4398 c -0.33229,-0.3323 -1.1948,-0.3678 -1.91667,-0.079 -0.79773,0.3192 -0.56078,0.5562 0.60417,0.6042 1.05416,0.043 1.64479,-0.193 1.3125,-0.5253 z m -14.72917,-3.0012 c -6.325,-1.3372 -12.5259,-2.66 -13.77979,-2.9395 l -2.27979,-0.5082 2.9134,-4.2234 c 1.60236,-2.3229 3.85515,-5.0711 5.0062,-6.1071 4.96352,-4.4675 -2.32482,-4.857 -12.1845,-0.6512 -7.68258,3.2771 -14.26815,7.8629 -13.01011,9.0594 0.76126,0.7241 26.72985,6.3024 33.83459,7.268 9.85819,1.3398 9.56587,0.2302 -0.5,-1.898 z m 237.75,-16.9922 3.25,-0.6294 10e-5,-21.1365 1e-4,-21.1365 -52.2501,0.3684 c -81.93191,0.5778 -165.107,-3.3823 -185.94456,-8.853 -8.43539,-2.2146 -7.70655,-4.3559 -7.05813,20.736 l 0.54917,21.2514 3.60171,0.9509 c 12.52042,3.3056 53.64877,6.8002 111.10171,9.44 12.22203,0.5615 123.2139,-0.3065 126.75,-0.9913 z m -24.7359,-54.4061 c 36.1344,-1.5443 60.6301,-3.4133 92.2046,-7.035 10.5236,-1.2071 11.7813,-1.638 11.7813,-4.0369 0,-1.1405 0.5165,-1.6634 1.3333,-1.35 0.7746,0.2973 1.3334,-0.1705 1.3334,-1.1161 0,-1.1599 -0.6619,-1.5012 -2.3031,-1.1875 -1.2667,0.2422 -2.0963,0.1057 -1.8435,-0.3032 0.5311,-0.8594 -8.4317,-2.3893 -9.2432,-1.5778 -0.2969,0.2969 -1.3706,0.095 -2.3859,-0.4481 -1.4967,-0.801 -1.7292,-0.6837 -1.2289,0.6203 0.4653,1.2123 1.506,1.4818 4.2275,1.095 1.9857,-0.2823 2.8229,-0.2876 1.8604,-0.012 -0.9625,0.2758 -1.75,0.8225 -1.75,1.215 0,0.7324 -3.5924,0.4278 -22.238,-1.8853 -5.9059,-0.7327 -11.0802,-0.99 -11.4985,-0.5718 -1.3452,1.3452 2.669,3.358 8.0338,4.0283 29.7045,3.7113 -3.9349,5.0978 -121.2973,4.9994 -86.37491,-0.072 -136.87445,-2.1056 -117.77704,-4.742 15.02278,-2.0738 24.56234,-8.6899 12.52704,-8.688 -18.91671,0 -59.75,6.8978 -59.75,10.089 0,1.3906 6.8986,4.1631 8.66867,3.4838 0.8161,-0.3131 1.16537,-0.1141 0.80967,0.4614 -0.40307,0.6522 0.73428,0.8002 3.19807,0.4161 2.10297,-0.3279 11.02359,0.3257 19.82359,1.4525 22.18416,2.8404 48.84791,4.2029 98.5,5.0335 23.375,0.391 47.2313,0.7901 53.0141,0.8869 5.7827,0.097 21.0827,-0.2757 34,-0.8277 z m -202.0141,-5.4963 c 0,-0.275 -0.225,-0.5 -0.5,-0.5 -0.275,0 -0.5,0.225 -0.5,0.5 0,0.275 0.225,0.5 0.5,0.5 0.275,0 0.5,-0.225 0.5,-0.5 z m 310,-4.5 c 0,-0.55 -0.45,-1 -1,-1 -0.55,0 -1,0.45 -1,1 0,0.55 0.45,1 1,1 0.55,0 1,-0.45 1,-1 z m 2,-3.5 c 0,-0.275 -0.225,-0.5 -0.5,-0.5 -0.275,0 -0.5,0.225 -0.5,0.5 0,0.275 0.225,0.5 0.5,0.5 0.275,0 0.5,-0.225 0.5,-0.5 z M 999.58,1584.7283 c 1.7489,-0.3545 2.3305,-1.3985 2.8912,-5.1899 0.3861,-2.6104 2.4633,-8.7604 4.616,-13.6667 4.7172,-10.7509 9.3422,-26.3625 10.8376,-36.5821 4.0049,-27.3697 -4.9242,-180.1179 -12.1144,-207.2379 -1.3476,-5.0829 -4.7366,-8.1903 -11.62753,-10.6611 -9.32261,-3.3428 -10.4547,-4.2442 -14.33276,-11.4119 -5.32327,-9.8389 -5.95941,-10.1915 -5.95941,-3.3031 0,4.0711 -0.87239,7.9621 -2.94656,13.1421 -9.85662,24.6158 -9.499,56.044 1.06146,93.2812 17.82558,62.8549 25.09806,106.4538 20.42402,122.4433 -2.29143,7.8388 -2.58583,7.2799 -1.87395,-3.5575 0.40668,-6.1912 0.22852,-10.023 -0.5321,-11.4442 -0.62893,-1.1752 -1.35826,-5.1993 -1.62074,-8.9425 -1.08052,-15.409 -5.4281,-33.5641 -16.47689,-68.8058 -13.64218,-43.5137 -17.06,-84.9747 -10.05701,-122 3.89706,-20.604 4.91136,-42.2601 3.04748,-65.0661 -0.67128,-8.2136 -1.15636,-17.0293 -1.07794,-19.5904 0.18571,-6.0655 -2.71453,-17.2672 -10.05694,-38.8435 -8.55456,-25.1383 -13.36822,-45.3792 -18.05443,-75.917 -3.78217,-24.6466 -2.55217,-93.6726 2.09525,-117.58296 1.06903,-5.5 2.68631,-15.4 3.59395,-22 1.63707,-11.90399 2.40947,-15.06583 2.54469,-10.41667 0.0653,2.24403 0.13168,2.2738 0.92971,0.41667 1.18251,-2.75185 1.17334,-3.5 -0.0429,-3.5 -0.5736,0 -3.42699,-1.8 -6.34087,-4 -2.91387,-2.2 -5.5318,-4 -5.81761,-4 -0.2858,0 -0.76779,5.0625 -1.07107,11.25 -0.30329,6.1875 -1.91033,18.225 -3.5712,26.75 -12.94822,66.46126 -5.48248,142.55916 21.26891,216.79256 12.37155,34.3303 13.29678,54.0041 4.57212,97.2204 -10.22385,50.6423 -7.60019,80.757 11.89575,136.541 26.31722,75.3019 24.37974,97.6711 -11.66582,134.6876 -12.89205,13.2394 -13.67373,12.7155 18.07589,12.1149 13.85825,-0.2621 26.18199,-0.6763 27.38611,-0.9204 z m -10.6893,-40.9361 c 0,-0.275 0.225,-0.5 0.5,-0.5 0.275,0 0.5,0.225 0.5,0.5 0,0.275 -0.225,0.5 -0.5,0.5 -0.275,0 -0.5,-0.225 -0.5,-0.5 z m 1,-3 c 0,-0.275 0.225,-0.5 0.5,-0.5 0.275,0 0.5,0.225 0.5,0.5 0,0.275 -0.225,0.5 -0.5,0.5 -0.275,0 -0.5,-0.225 -0.5,-0.5 z m 0,-6.5 c 0,-0.7333 0.3,-1.0333 0.66667,-0.6667 0.36666,0.3667 0.36666,0.9667 0,1.3334 -0.36667,0.3666 -0.66667,0.067 -0.66667,-0.6667 z m 114.393,48.4182 c 1.2823,-3.3416 0.2807,-5.2927 -8.9415,-17.4182 -24.4623,-32.1633 -25.7224,-53.8494 -6.9436,-119.5 19.5098,-68.2065 23.0532,-100.8813 13.9002,-128.1785 -2.9847,-8.9014 -12.8808,-11.1815 -24.2746,-5.593 -7.0952,3.4802 -11.2889,30.5061 -16.1025,103.7715 -0.5782,8.8 -1.9897,29.95 -3.1367,47 -4.3816,65.132 -2.891,86.1886 7.8574,111 4.628,10.6832 4.2473,10.5 21.8156,10.5 12.955,0 15.309,-0.2353 15.8257,-1.5818 z m -63.9892,-69.4182 c 0.9623,-6.325 2.1331,-20.275 2.6018,-31 0.4687,-10.725 1.3409,-21.975 1.9383,-25 2.669,-13.5149 1.0015,-386.6477 -1.7504,-391.6843 -1.4442,-2.6431 -1.5973,-15.9481 -0.1935,-16.8157 0.55,-0.3399 1.0613,-2.954 1.1362,-5.809 0.075,-2.8551 0.3087,-4.066 0.5197,-2.691 2.1746,14.1756 3.1965,5.3248 2.0545,-17.7933 -0.436,-8.8263 -0.4129,-40.94601 0.051,-71.37721 0.936,-61.34406 1.4169,-57.24687 -6.7247,-57.29464 -8.3448,-0.049 -8.4969,0.23827 -6.9479,13.12237 1.7301,14.39014 1.7273,45.98475 -0.01,89.06188 -1.3608,33.7833 -1.3404,35.6585 0.5,46 1.5862,8.9132 1.8734,14.6789 1.6578,33.2809 -0.1434,12.375 -0.6741,63.225 -1.1792,113 -0.5052,49.775 -1.2624,91.625 -1.6828,93 l -0.7643,2.5 -0.7067,-2.5 c -1.094,-3.8696 -0.9338,30.2574 0.1948,41.5 0.5521,5.5 0.9465,11.0125 0.8764,12.25 -0.2423,4.2792 -0.3876,18.7594 -0.2131,21.25 0.096,1.375 0.015,10.15 -0.1805,19.5 -0.2066,9.8776 -0.055,14.4862 0.3622,11 l 0.7178,-6 0.1681,8.25 c 0.1008,4.9454 -0.2325,8.25 -0.8319,8.25 -0.55,0 -0.9931,0.7875 -0.9847,1.75 0.013,1.4955 0.1563,1.5319 0.9847,0.25 0.6527,-1.01 0.9782,2.9104 0.9964,12 0.039,19.6432 1.8905,98.5505 2.4634,105 0.3166,3.5645 0.2037,4.6202 -0.321,3 -0.6193,-1.9126 -0.9734,-0.6202 -1.5069,5.5 -0.3887,4.4598 -0.2784,9.3276 0.2494,11 0.9744,3.0874 1.6787,1.0252 1.1955,-3.5 -0.1424,-1.3333 -0.046,-1.3333 0.8662,0 0.5645,0.825 1.1109,3.3 1.2141,5.5 0.1033,2.2 0.4824,0.175 0.8424,-4.5 0.3601,-4.675 1.442,-13.675 2.4043,-20 z m -8.4038,-164.5 c 0,-0.275 0.225,-0.5 0.5,-0.5 0.275,0 0.5,0.225 0.5,0.5 0,0.275 -0.225,0.5 -0.5,0.5 -0.275,0 -0.5,-0.225 -0.5,-0.5 z m -0.4171,-61.3658 c -0.4307,-0.697 -0.5131,-1.5373 -0.183,-1.8674 0.8949,-0.895 1.8707,0.4213 1.3874,1.8714 -0.3388,1.0162 -0.5743,1.0154 -1.2044,0 z m 13.0794,178.6158 c -0.2774,-0.6875 -0.5044,-0.125 -0.5044,1.25 0,1.375 0.227,1.9375 0.5044,1.25 0.2774,-0.6875 0.2774,-1.8125 0,-2.5 z m 48.9812,-196.1215 c 1.2744,-3.6931 6.6085,-31.7966 6.1,-32.1386 -0.1339,-0.09 -3.3478,-0.9108 -7.142,-1.8238 -7.7799,-1.8722 -17.973,-7.2 -23.7361,-12.4067 l -3.8654,-3.4921 v 13.8663 c 0,7.6265 -0.2955,18.9142 -0.651,25.0838 l -0.6463,11.2173 2.6694,1.015 c 11.3704,4.323 25.5655,3.6354 27.2759,-1.3212 z m -81.5228,1.7759 c 8.5796,-1.9514 7.6123,2.6686 8.2502,-39.4044 l 0.5383,-35.5 -1.946,5.4372 c -6.3531,17.7507 -23.01412,31.921 -39.79346,33.8446 -3.83415,0.4395 -4.26183,0.7382 -3.73306,2.6073 0.32846,1.161 1.96766,8.6055 3.64266,16.5432 1.67501,7.9378 3.48321,15.2503 4.01825,16.25 1.29734,2.4241 18.75411,2.5577 29.02311,0.2221 z m 82.5727,-75.1405 c 20.0496,-12.9777 35.9507,-72.1176 37.0407,-137.7639 1.0724,-64.58171 -6.4646,-75.29444 -26.6721,-37.9103 -3.5409,6.5506 -9.7933,16.8603 -13.8944,22.9103 -11.4431,16.8813 -14.0642,24.1123 -17.5806,48.5 -9.8641,68.4129 0.1405,117.8347 21.1064,104.2639 z m -100.04339,-7.1921 c 16.57009,-10.1038 22.22239,-61.6444 12.28149,-111.9879 -2.2876,-11.5849 -5.0807,-17.4111 -12.98431,-27.0839 -11.79364,-14.4337 -17.26867,-27.1721 -18.83541,-43.8232 -1.28888,-13.69797 -9.0115,-24.17676 -17.81776,-24.17676 -22.55466,0 -22.61857,103.85756 -0.1055,171.45716 9.58943,28.794 24.85153,43.3036 37.46149,35.6146 z m 25.14649,-153.0718 c 1.604,-2.9853 1.0113,-48.17151 -0.8067,-61.49996 -4.1401,-30.35359 -15.6523,-50.03962 -34.4898,-58.97836 -9.38201,-4.45193 -24.5,-8.54507 -24.5,-6.63328 0,0.46109 -2.8125,1.39214 -6.25,2.069 -3.4375,0.67685 -6.83587,1.40819 -7.55194,1.62519 -0.71606,0.217 -1.03047,-0.0447 -0.69867,-0.58156 0.3318,-0.53686 -1.21691,-1.7044 -3.44158,-2.59453 -2.22466,-0.89014 -3.84255,-1.94574 -3.59531,-2.34578 0.24724,-0.40004 -0.0932,-0.74511 -0.75649,-0.76682 -0.6633,-0.0217 -1.80867,-0.20921 -2.54525,-0.41667 -4.0192,-1.13199 -5.41045,4.28774 -4.16857,16.23902 1.73885,16.73394 2.89836,18.81897 12.09117,21.7423 25.11774,7.9875 37.83317,26.19737 37.89219,54.26576 0.0275,13.07939 1.25114,17.87739 6.19733,24.30029 10.22611,13.2792 28.66102,20.9504 32.62362,13.5754 z m 59.9048,-4.9353 c 15.4378,-7.3033 19.0276,-13.4577 17.3239,-29.7005 -2.1383,-20.38673 1.9166,-30.8819 19.3749,-50.14727 11.6687,-12.87665 8.1596,-22.21689 -8.347,-22.21689 -23.4429,0 -34.2605,23.80518 -38.0507,83.73396 -1.4538,22.9873 -1.1916,23.4828 9.6989,18.3307 z M 916.3907,907.17318 c 15.88554,-4.39994 12.67023,-8.7334 -6.03515,-8.13394 -30.59233,0.98041 -41.53816,-11.42644 -41.84323,-47.42838 -0.11868,-14.00468 -0.29889,-15.39984 -2.325,-18 -5.04426,-6.47341 -7.21712,-9.95991 -7.67724,-12.31862 -0.26822,-1.375 -2.07545,-6.33753 -4.01605,-11.02784 -3.89671,-9.41809 -6.15545,-21.46744 -7.11816,-37.97216 -0.60915,-10.44319 -0.50192,-11.46704 4.71293,-45 l 1.01084,-6.5 -5.50586,-5.82639 c -13.01457,-13.77223 -18.41525,-33.11818 -17.44477,-62.48956 0.65312,-19.76692 8.60457,-48.49289 11.17833,-40.38368 0.38397,1.2098 1.02923,2.19963 1.4339,2.19963 0.40466,0 -0.27734,3.9375 -1.51557,8.75 -3.96177,15.39779 -2.77678,38.62238 2.4982,48.96219 11.06508,21.68935 30.98406,13.64401 48.00379,-19.38888 6.80029,-13.19839 14.00539,-23.63907 14.10141,-20.43391 0.0229,0.76417 -1.21774,3.46417 -2.75697,6 -14.91983,24.57993 -15.14562,37.63746 -0.89005,51.47227 16.03155,15.55838 34.60918,19.67004 75.68865,16.75165 21.44732,-1.52367 21.33543,-1.4965 23.3225,-5.66348 2.2168,-4.64866 6.2432,-6.89388 16.0559,-8.95313 12.0947,-2.53814 11.4823,-1.54445 12.7068,-20.61933 3.8277,-59.62846 -5.771,-74.13046 -51.25448,-77.43668 -9.32219,-0.67764 -9.63974,-0.77893 -8.84611,-2.82178 0.45276,-1.16541 1.30024,-2.01182 1.8833,-1.88092 0.58306,0.13091 0.82871,-0.36503 0.54588,-1.10208 -3.26905,-8.51899 37.08261,-4.03467 51.19281,5.68911 13.7333,9.46413 15.7779,17.40757 21.9911,85.43869 0.6206,6.79512 0.8324,7.30106 3.2829,7.8426 14.2254,3.14377 26.3516,9.19827 27.4876,13.72438 0.7062,2.81393 1.5927,3.00914 21.6318,4.76339 56.9679,4.98704 90.8596,-11.96461 83.9391,-41.98393 -2.9405,-12.75504 -18.1275,-42.85288 -25.8659,-51.26136 -14.2139,-15.44466 -44.9987,-22.2856 -73.8149,-16.40298 -4.5329,0.92537 -8.6643,1.42127 -9.1809,1.10202 -0.5166,-0.31926 -1.2219,-0.12312 -1.5673,0.43585 -1.1309,1.82986 -3.353,1.13149 -2.8249,-0.88784 0.3106,-1.18782 -0.01,-1.88094 -0.8436,-1.84247 -5.0486,0.23213 -5.0747,-0.43677 -0.1238,-3.16653 7.7653,-4.2815 13.2041,-5.8544 24.5479,-7.09935 30.1032,-3.30371 35.7673,-4.08786 39.7968,-5.50957 2.4216,-0.85437 8.1444,-1.93265 12.7173,-2.39616 13.6714,-1.38573 12.7176,-2.12676 -5.7798,-4.49033 -62.9907,-8.04886 -146.69294,-8.45637 -221.81946,-1.07994 -13.96144,1.37083 4.23648,-4.56773 21.31946,-6.95722 24.77364,-3.46521 50.69446,-5.33671 79,-5.70384 18.3211,-0.23763 19.1599,-0.35041 17.4981,-2.35278 -0.6045,-0.72836 -1.3028,-2.44757 -1.5517,-3.82047 -0.5878,-3.24122 -6.4184,-13.52181 -11.9968,-21.15286 -5.3502,-7.31892 -12.9322,-17.22149 -15.5077,-20.25422 -1.0415,-1.22644 -2.2003,-3.4513 -2.5749,-4.94413 -0.3747,-1.49283 -3.1981,-5.44402 -6.27413,-8.78041 -3.17511,-3.44381 -7.53819,-9.8533 -10.09287,-14.8267 l -4.5,-8.76052 -0.58256,17.77083 c -0.90482,27.60158 -2.3724,30.96484 -17.19193,39.39902 -20.05171,11.41195 -36.70395,21.99804 -60.93075,38.73464 -4.48413,3.09778 -7.26657,4.19231 -13,5.11386 -53.20683,8.55203 -74.54109,36.44045 -69.73894,91.1636 1.60014,18.23449 3.32491,24.25925 12.65107,44.1914 l 6.47179,13.8317 -0.69622,26.1683 c -0.99443,37.37678 0.95877,48.85029 13.20262,77.55515 6.32579,14.83036 6.70421,16.16465 7.54785,26.61315 3.28561,40.69229 25.61055,61.8721 56.26707,53.38094 z m 82.44254,-385.9883 c -0.85577,-1.59902 -0.82887,-2.38299 0.11152,-3.25 0.93766,-0.86449 1.07064,-0.84339 0.5464,0.0867 -0.38112,0.67614 -0.20631,2.13864 0.38848,3.25 0.59476,1.11137 0.85646,2.02067 0.58146,2.02067 -0.275,0 -1.00755,-0.94831 -1.62786,-2.10736 z m -6.94254,-15.39264 c 0,-0.275 0.225,-0.5 0.5,-0.5 0.275,0 0.5,0.225 0.5,0.5 0,0.275 -0.225,0.5 -0.5,0.5 -0.275,0 -0.5,-0.225 -0.5,-0.5 z m -1,-2.5 c 0,-0.73333 0.3,-1.03333 0.66667,-0.66667 0.36666,0.36667 0.36666,0.96667 0,1.33334 -0.36667,0.36666 -0.66667,0.0667 -0.66667,-0.66667 z m -1,-3.5 c 0,-0.275 0.225,-0.5 0.5,-0.5 0.275,0 0.5,0.225 0.5,0.5 0,0.275 -0.225,0.5 -0.5,0.5 -0.275,0 -0.5,-0.225 -0.5,-0.5 z m -84.20936,377.01741 c 12.02743,-5.59937 18.52626,-12.20639 38.87034,-39.51741 12.66392,-17.00075 23.97478,-28.4844 35.52772,-36.07047 13.1736,-8.65025 13.30543,-8.60031 17.84437,6.75889 1.59813,5.40784 2.48703,7.04922 3.58873,6.62646 0.8055,-0.30908 1.2358,-0.79057 0.9564,-1.06999 -1.8866,-1.88664 5.8785,-6.12519 12.195,-6.65658 20.9791,-1.7649 26.8363,-3.45454 33.734,-9.73133 8.6875,-7.90542 17.4928,-34.54928 17.4928,-52.93124 0,-4.65197 3.2059,-7.21913 6.7313,-5.39014 1.4439,0.74912 2.9951,1.13352 3.447,0.8542 0.4519,-0.27931 0.8217,0.0437 0.8217,0.71785 0,0.67413 0.2582,0.9675 0.5737,0.65195 1.6245,-1.62451 -5.5222,-10.20897 -11.6411,-13.98294 -8.877,-5.47507 -29.1146,-8.00766 -46.5009,-5.81924 -28.29491,3.5615 -41.16461,12.26721 -69.58029,47.06765 -11.88912,14.56049 -22.7856,24.54474 -32.71365,29.97493 -28.68226,15.68787 -35.64074,21.18241 -41.24619,32.56869 -3.59815,7.30887 -5.45295,18.43927 -3.2851,19.71342 0.85246,0.50103 1.12691,1.801 0.76366,3.61726 -3.554,17.77 15.01206,30.72253 32.42051,22.61804 z m 187.20936,-1.45964 c 6.325,-1.17567 13.9239,-2.55602 16.8864,-3.06746 6.9022,-1.19153 7.0164,-1.38884 1.8859,-3.25832 -7.3459,-2.67671 -10.6223,-3.48982 -35.2723,-8.75356 -13.2,-2.81872 -27.2967,-6.02866 -31.326,-7.13319 -7.5242,-2.06259 -21.315,-0.9704 -15.6562,1.23993 3.2992,1.2887 -9.858,0.99528 -24.5178,-0.54677 -15.24857,-1.60398 -25.31996,-4.15673 -34.31597,-8.6979 -18.24638,-9.21074 -33.52935,1.04875 -19.83731,13.31683 12.38344,11.09557 22.44142,13.63722 74.15328,18.73853 16.7249,1.64988 54.7673,0.62157 68,-1.83809 z m 105.1392,-14.97157 c 6.6299,-5.37458 1.1617,-23.96305 -10.1223,-34.41009 -7.2346,-6.69793 -12.2443,-8.70482 -31.9059,-12.78165 -29.1288,-6.0398 -47.7005,-14.75245 -64.515,-30.26627 -7.6233,-7.03368 -11.6173,-5.71 -8.1086,2.68739 l 1.5199,3.6377 -2.6707,-1.01539 c -2.7696,-0.80387 -6.0244,0.91212 -7.6959,2.41817 -5.3447,5.11976 -11.2029,10.07627 -11.9478,10.10875 -2.7988,2.63018 -6.5017,4.83025 -6.8079,5.28519 -2.3092,2.64107 -3.885,7.35699 -3.885,7.35699 l -1.488,3.53599 -3.7146,4.35702 c 0,0 -8.517,10.03205 -12.2974,11.02063 -4.9464,1.04173 11.2008,2.46129 26,2.28575 22.4458,-0.26624 35.3368,-4.27285 39.0365,-12.13284 l 2.0365,-4.32647 18.4635,12.35079 c 37.564,25.12768 69.0922,37.19287 78.1027,29.88834 z m 7.0213,-60.54927 c 13.7346,-9.33294 21.0329,-38.23382 15.5398,-61.53693 -6.7773,-28.75139 -9.5388,-34.89102 -15.7278,-34.9684 -6.013,-0.0752 -9.3617,6.65994 -16.6025,33.39269 -10.0755,37.19834 -0.1236,74.60603 16.7905,63.11264 z m -321.60469,-8.42306 c 18.54284,-8.42241 22.06672,-41.45276 7.69355,-72.11387 -9.1061,-19.42529 -15.72675,-23.50758 -26.0254,-16.04727 -3.45279,2.50118 -9.99872,11.26216 -7.05575,9.44331 0.82952,-0.51267 0.93682,-0.1652 0.36744,1.18992 -5.4257,12.91306 -5.71997,41.22773 -0.58285,56.08152 6.57019,18.99743 15.15772,26.19079 25.60301,21.44639 z m 247.07609,-20.74348 c 8.5411,-4.053 20.2162,-25.97221 17.8332,-33.48048 -1.0371,-3.26759 -15.31,-7.87883 -37.9994,-12.27678 -19.6289,-3.80471 -21.2538,-3.28308 -15.058,4.83386 1.8798,2.46274 4.8222,8.20716 6.5387,12.76536 10.7083,28.43736 16.3749,33.99977 28.6855,28.15804 z M 953.10786,748.88889 c 3.69443,-3.90316 6.73193,-7.35757 6.75,-7.67646 0.0181,-0.3189 4.56234,-4.58407 10.0984,-9.47815 11.57008,-10.22838 11.55678,-10.2645 -2.79839,-7.59495 -11.15467,2.07437 -20.97038,3.61335 -30.01717,4.70632 -2.8875,0.34885 -5.25,1.04204 -5.25,1.54043 0,0.49839 -0.88963,0.90616 -1.97695,0.90616 -7.59691,0 -5.46828,9.93367 4.09512,19.11064 8.70862,8.35674 9.84106,8.26697 19.09899,-1.51399 z m 87.56314,-37.2492 c 8.4042,-0.35016 15.4997,-0.99151 15.7678,-1.42523 2.17,-3.51115 2.1091,-10.10075 -0.1068,-11.55267 -5.7335,-3.7567 -44.2279,-0.80102 -44.4849,3.41563 -0.024,0.39315 -0.4333,2.73592 -0.9098,5.20616 -1.1733,6.08293 -0.8233,6.35119 7.3394,5.62534 3.9127,-0.34793 13.9902,-0.91908 22.3943,-1.26923 z m 182.6573,-31.2971 c 1.6157,-1.06506 3.2561,-1.73968 3.6452,-1.49916 0.3892,0.24053 0.9746,-0.25846 1.301,-1.10887 0.3787,-0.98693 0.1867,-1.29492 -0.5307,-0.85151 -0.6182,0.38207 -0.1467,-0.62725 1.0478,-2.24294 7.3927,-9.99914 7.1231,-37.82913 -0.5541,-57.2013 -16.3983,-41.37808 -70.3957,-37.5956 -55.8927,3.91524 4.2378,12.12935 31.3315,54.57941 37.4438,58.66626 4.1856,2.79861 9.5881,2.9272 13.5397,0.32228 z m 2.5624,0.44965 c 0,-0.275 -0.225,-0.5 -0.5,-0.5 -0.275,0 -0.5,0.225 -0.5,0.5 0,0.275 0.225,0.5 0.5,0.5 0.275,0 0.5,-0.225 0.5,-0.5 z m -150,-85 c 0,-0.275 -0.225,-0.5 -0.5,-0.5 -0.275,0 -0.5,0.225 -0.5,0.5 0,0.275 0.225,0.5 0.5,0.5 0.275,0 0.5,-0.225 0.5,-0.5 z m 81.6667,-22.16667 c -0.3667,-0.36666 -0.9667,-0.36666 -1.3334,0 -0.3666,0.36667 -0.067,0.66667 0.6667,0.66667 0.7333,0 1.0333,-0.3 0.6667,-0.66667 z m -7.6667,-15.83333 c 0,-0.275 -0.225,-0.5 -0.5,-0.5 -0.275,0 -0.5,0.225 -0.5,0.5 0,0.275 0.225,0.5 0.5,0.5 0.275,0 0.5,-0.225 0.5,-0.5 z m -89.7651,-2 c 0.4042,-0.55 1.4341,-3.475 2.2885,-6.5 0.8545,-3.025 1.9641,-6.4 2.4658,-7.5 1.7189,-3.76886 5.2584,-19.5857 4.5412,-20.29312 -3.481,-3.43317 -19.4698,28.29664 -17.2171,34.1672 0.6068,1.58133 6.7799,1.67945 7.9216,0.12592 z m 86.4318,-0.16667 c -0.3667,-0.36666 -0.9667,-0.36666 -1.3334,0 -0.3666,0.36667 -0.067,0.66667 0.6667,0.66667 0.7333,0 1.0333,-0.3 0.6667,-0.66667 z m -8.6667,-4.83333 c 0,-0.275 -0.225,-0.5 -0.5,-0.5 -0.275,0 -0.5,0.225 -0.5,0.5 0,0.275 0.225,0.5 0.5,0.5 0.275,0 0.5,-0.225 0.5,-0.5 z m -88.1622,-68.00447 c 0.3324,-0.33235 -0.04,-1.00261 -0.828,-1.48947 -1.1637,-0.71919 -0.9143,-1.36522 1.3297,-3.44488 11.5934,-10.74444 7.0598,-15.24968 -16.3156,-16.21332 -15.7257,-0.64828 -15.8527,-0.67212 -16.3094,-3.06088 -0.7801,-4.08103 2.2967,-5.02897 20.2731,-6.246 17.509,-1.18538 18.2576,-1.38742 17.3928,-4.6943 -0.8003,-3.06027 -5.175,-3.47441 -28.477,-2.69582 -19.1127,0.63861 -20.0946,0.5815 -19.7578,-1.14911 1.0453,-5.37138 40.0571,-8.78231 56.8544,-4.97097 13.4735,3.05717 12.7795,3.46102 16.1063,-9.3728 1.6175,-6.23959 3.5234,-10.39806 7.5623,-16.5 5.8668,-8.86338 8.3314,-15.51805 8.3314,-22.49561 v -4.47463 l -14.9061,0.64518 c -21.0604,0.91157 -22.8601,2.06426 -25.1011,16.0776 -3.2346,20.22562 -5.3025,23.58948 -14.5015,23.58948 -9.9883,0 -10.9358,-1.02321 -12.0381,-13 -0.7733,-8.40208 -3.8826,-19.63188 -6.1397,-22.17422 -1.6342,-1.84082 -8.9422,-3.21721 -25.3135,-4.7676 -18.23173,-1.72657 -22.66314,-3.70982 -21.54979,-9.64445 2.13655,-11.38882 17.80204,-17.28273 34.54979,-12.99884 15.4947,3.96337 17.784,7.8799 20.4873,35.04946 1.6142,16.22404 1.8764,16.98405 6.2627,18.1529 7.1499,1.90526 8.1721,-0.0815 9.3219,-18.11725 1.8846,-29.56061 5.051,-33.95671 26.4281,-36.69075 4.95,-0.63308 9.0992,-1.21086 9.2205,-1.28394 0.7267,-0.43807 1.1309,-40.15307 0.5167,-50.77553 -0.607,-10.49834 -0.4948,-12.75017 0.6352,-12.75 4.7675,7.5e-4 -6.4531,-6.89557 -16.8724,-10.37004 -34.9748,-11.66288 -81.62053,1.5327 -93.21751,26.37026 -4.77435,10.22534 -5.2087,14.74165 -5.24149,54.5 -0.0355,42.97484 0.69481,48.94461 7.76221,63.45503 3.99993,8.21246 4.18332,9.01193 4.71281,20.54497 0.60737,13.22926 1.06002,14.5291 6.89562,19.80121 6.81028,6.15268 16.04016,10.11255 27.26156,11.6959 6.6222,0.93442 33.6192,0.54378 34.6646,-0.50158 z m -3.8378,-0.99553 c 0,-0.275 0.225,-0.5 0.5,-0.5 0.275,0 0.5,0.225 0.5,0.5 0,0.275 -0.225,0.5 -0.5,0.5 -0.275,0 -0.5,-0.225 -0.5,-0.5 z m -56.93489,-21.80272 c -1.83433,-5.55807 -3.92359,-17.9025 -3.30346,-19.51854 2.91361,-7.59273 6.09215,-2.31569 7.80813,12.96312 1.03509,9.21626 -2.11406,13.79905 -4.50467,6.55542 z m -5.12726,-38.5247 c -5.27786,-7.13147 -9.03401,-16.47642 -7.31398,-18.19645 1.09424,-1.09424 15.6426,18.59934 16.1786,21.90037 0.81489,5.01859 -3.85259,3.06837 -8.86462,-3.70392 z m 11.31215,-49.83486 c -0.6875,-0.27741 -1.8125,-0.27741 -2.5,0 -0.6875,0.27741 -0.125,0.50439 1.25,0.50439 1.375,0 1.9375,-0.22698 1.25,-0.50439 z m 105.75,-51.83772 c 0,-0.275 -0.225,-0.5 -0.5,-0.5 -0.275,0 -0.5,0.225 -0.5,0.5 0,0.275 0.225,0.5 0.5,0.5 0.275,0 0.5,-0.225 0.5,-0.5 z m -1.8779,-5.175 c -1.1789,-2.02721 -1.4635,-1.37835 -0.4986,1.13634 0.343,0.8937 0.8342,1.41426 1.0917,1.15679 0.2575,-0.25747 -0.01,-1.28938 -0.5931,-2.29313 z m -3.2134,-6.27372 c -1.2206,-2.17179 -4.0311,-5.65929 -6.2455,-7.75 -3.851,-3.636 -3.8211,-3.56214 0.6883,1.69872 2.5929,3.025 4.9733,6.5125 5.2898,7.75 0.3165,1.2375 1.0055,2.25 1.5311,2.25 0.5256,0 -0.043,-1.77692 -1.2637,-3.94872 z"
         id="path3093"
         sodipodi:nodetypes="cssssscsscssssccsssssssscsscscsssssscsscsssscssscsccssscssssssscssscssccssscccssssssccsssssssssssssssssssssssscsssssssssssssscscssssssssccssssssssssssssssssssscccsssscssssssssssssssssssssssssssssscsssssscsssscssssssscccssscssssssssssscssssssscscsssssssssssssssssssssssssssssssssssssssssssssssssssssssssssssssssssssssssssssssssssscssssscscsscsssscssscsscsssscssssssssccssssscssccsssscssscsscsccsscssssssssssssssssssssssssssssssssssssssssssssssssscssssssssssssssssssssssssssscscssssssssscssssscsssssscssssssssssssssssssssssssssssssssssssscsssssssssssssssssssssssscccccccccsscsssssssssssssssssscssssssssssscssssssssscsssssssssssssssssssssssssscsssssssssssscsscsssssssscscsssssssssscsssssssssssssssssssssssssssssssscsscssssss" />
      <path
         style="fill:#352321"
         d="m 940.3907,1856.1873 c -42.64844,-1.5487 -97.14988,-3.983 -110,-4.9133 -73.57142,-5.3261 -94.40293,-7.7225 -100.21098,-11.5281 -5.48535,-3.5941 2.53515,-6.0225 31.80612,-9.6298 l 18.08087,-2.2283 -0.69941,-15.5478 c -1.23525,-27.4593 -6.52562,-23.3478 55.0234,-42.7626 l 12,-3.7852 0.26157,-39.2143 0.26158,-39.2143 -7.52555,-3.6696 c -20.32361,-9.9102 -18.03026,-17.9193 9.15094,-31.958 l 9.57213,-4.9438 -0.54841,-28.8478 c -0.30163,-15.8662 -0.16478,-29.8568 0.3041,-31.09 2.37391,-6.2439 32.43569,-12.3103 70.02364,-14.1307 l 13.5,-0.6538 9.03773,-9.1389 c 27.75382,-28.0643 28.61346,-50.3804 4.5757,-118.7842 -21.17838,-60.2669 -23.41677,-87.4668 -12.15109,-147.6553 8.45753,-45.1856 7.83573,-54.1281 -6.28459,-90.3837 -24.99598,-64.1801 -32.93577,-145.6118 -20.94505,-214.81556 3.6066,-20.81531 3.72591,-22.28023 3.74627,-46 l 0.021,-24.5 -13,-0.65412 c -36.20364,-1.82165 -53.0588,-19.82545 -56.96388,-60.84588 -1.35702,-14.2547 -1.47501,-14.7073 -6.97431,-26.75354 -13.87394,-30.39095 -16.31957,-45.8018 -14.55973,-91.74646 l 0.49795,-13 -5.84645,-12.5 c -11.08897,-23.70875 -14.65638,-38.78885 -14.64953,-61.92622 0.0157,-52.83206 21.74704,-79.09028 72.81451,-87.9824 12.26943,-2.13642 11.71897,-1.87142 32.18147,-15.4924 5.775,-3.84416 18.6,-11.81396 28.5,-17.71067 32.50416,-19.36033 31.08526,-16.36976 29.83762,-62.88831 l -0.65709,-24.5 -3.95577,-7.5 c -8.02162,-15.2087 -9.00775,-24.07566 -8.50794,-76.5 0.34262,-35.93647 0.48152,-38.35689 2.55799,-44.57218 17.75621,-53.14791 122.35569,-59.79336 147.18829,-9.35121 5.7756,11.73182 6.2778,17.53442 5.785,66.8353 -0.5142,51.44246 -0.2888,49.87713 -9.7029,67.40766 -2.0938,3.89899 -2.3948,6.18708 -3.0911,23.5 -1.5025,37.35711 0.9674,49.56995 11.3408,56.07619 1.2128,0.76069 11.1174,6.84408 22.0103,13.51866 10.8928,6.67457 24.5447,15.38684 30.3374,19.36058 5.7927,3.97375 11.7303,7.9596 13.1948,8.85744 1.4644,0.89784 8.0626,2.38507 14.6626,3.30497 51.6125,7.19363 72.524,34.77295 70.1839,92.56259 -0.912,22.52241 -5.0418,39.3579 -14.3694,58.57904 l -4.8145,9.92096 0.5,12.5 c 1.8384,45.96038 -1.2061,65.34062 -15.1598,96.5 -4.4325,9.898 -5.0281,12.102 -5.9452,22 -4.084,44.07854 -20.9494,63.0049 -56.0581,62.90868 l -11.6631,-0.032 -0.8369,11.56165 c -1.3323,18.40504 -0.8144,31.33772 1.9847,49.56164 7.4185,48.29979 8.2721,76.30259 3.7154,121.87979 -3.9359,39.3684 -12.519,73.0212 -28.9182,113.3843 -9.1262,22.4621 -9.2576,37.9722 -0.739,87.2359 8.7487,50.5945 5.3964,83.6769 -14.4386,142.4886 -21.7683,64.5438 -20.6644,86.38 5.7413,113.5725 l 11.453,11.7942 6.1822,0.5126 c 3.4003,0.2819 12.9323,0.9787 21.1823,1.5483 25.2379,1.7427 49.0519,6.7212 52.9959,11.0792 1.7141,1.8941 1.7842,3.8385 1.1535,31.962 l -0.6717,29.9453 4.7612,2.6773 c 32.5822,18.3218 34.5554,24.9977 10.5299,35.6253 l -4.2688,1.8883 v 38.7982 38.7982 l 10.25,3.2095 54.8833,18.8807 3.9986,4.2498 -0.8526,22.0729 c 24.2506,0.6334 91.1087,1.422 138.7207,3.3936 85.1878,3.7641 118,7.3324 118,12.8326 0,4.8542 -28.2451,8.7828 -95,13.2133 -4.675,0.3103 -16.6,1.4355 -26.5,2.5005 -53.6515,5.7715 -76.566,7.0423 -161.5,8.9565 -26.125,0.5888 -59.2,1.5053 -73.5,2.0367 -30.4299,1.1309 -220.90636,1.0257 -253,-0.1396 z m 32.5,-0.8951 c 0.99657,-0.644 -3.86996,-0.907 -14.5,-0.7836 l -16,0.1859 12,0.5977 c 6.6,0.3287 13.125,0.6813 14.5,0.7836 1.375,0.1022 3.175,-0.2504 4,-0.7836 z m 72.3189,0.2511 c -12.7497,-0.1582 -33.8997,-0.1584 -47.00004,-4e-4 -13.10037,0.158 -2.66886,0.2874 23.18114,0.2876 25.85,2e-4 36.5685,-0.129 23.8189,-0.2872 z m 29.4311,0.06 c -0.9625,-0.2516 -2.5375,-0.2516 -3.5,0 -0.9625,0.2515 -0.175,0.4573 1.75,0.4573 1.925,0 2.7125,-0.2058 1.75,-0.4573 z m 29.5,-0.043 c -2.3375,-0.2105 -6.1625,-0.2105 -8.5,0 -2.3375,0.2105 -0.425,0.3828 4.25,0.3828 4.675,0 6.5875,-0.1723 4.25,-0.3828 z m 28.25,-0.2681 c 1.9162,-0.4876 -1.3353,-0.8006 -9,-0.8664 -8.0778,-0.069 -11.5097,0.2139 -10.5,0.8664 1.7376,1.1229 15.087,1.1229 19.5,0 z m 27.75,-1.7322 c -2.3375,-0.2105 -6.1625,-0.2105 -8.5,0 -2.3375,0.2105 -0.425,0.3828 4.25,0.3828 4.675,0 6.5875,-0.1723 4.25,-0.3828 z m 30.75,-1.9976 c 0.275,-0.3043 -1.3,-0.2695 -3.5,0.077 -2.2,0.3467 -6.25,0.6947 -9,0.7731 -4.6178,0.1318 -4.7324,0.1919 -1.5,0.7869 3.3743,0.6211 12.9737,-0.5015 14,-1.6373 z m -229.79915,-13.5202 c 0.22815,-0.6875 0.14052,-4.4 -0.19473,-8.25 -0.57157,-6.5637 -0.9388,-6.8187 -2.55991,-1.778 -0.47355,1.4724 -0.68869,1.5086 -1.48469,0.25 -0.51199,-0.8096 -0.94086,-1.022 -0.95304,-0.472 -0.0122,0.55 -1.70657,2.121 -3.76531,3.4911 -2.05874,1.3701 -3.96817,2.7201 -4.24317,3 -0.70833,0.721 -3.12159,1.2891 -5.75,1.3536 -1.2375,0.03 -2.25,0.4153 -2.25,0.8553 0,0.44 -1.4625,0.8905 -3.25,1.0011 -1.7875,0.1107 2.15,0.4702 8.75,0.7989 6.6,0.3287 12.73936,0.6882 13.64301,0.7989 0.90366,0.1106 1.82968,-0.3614 2.05784,-1.0489 z m -55.20085,-1.25 c 0,-0.275 -0.225,-0.5 -0.5,-0.5 -0.275,0 -0.5,0.225 -0.5,0.5 0,0.275 0.225,0.5 0.5,0.5 0.275,0 0.5,-0.225 0.5,-0.5 z m 14.28017,-0.2307 c -2.3209,-0.2098 -6.3709,-0.2122 -9,-0.01 -2.62909,0.2067 -0.73017,0.3783 4.21983,0.3813 4.95,0 7.10108,-0.166 4.78017,-0.3757 z m -25.28017,-1.0431 c -2.9494,-0.3823 -3.18537,-0.5821 -1.5,-1.2697 1.61518,-0.6589 1.67507,-0.8295 0.31127,-0.8862 -1.24501,-0.052 -1.85267,-1.3184 -2.31268,-4.8203 -0.34317,-2.6125 -0.9957,-6.6837 -1.45007,-9.047 l -0.82613,-4.2971 17.6388,0.7971 c 37.61066,1.6995 221.59541,0.7522 251.63881,-1.2956 7.7772,-0.5301 8,-0.6167 8,-3.1082 v -2.5628 l -9,0.6122 c -57.3255,3.9 -224.6829,3.09 -279,-1.3503 -29.06873,-2.3763 -56.34963,-5.1116 -69.61081,-6.9793 -7.88399,-1.1105 -14.72651,-2.019 -15.2056,-2.019 -0.47908,0 -0.63026,4.6125 -0.33593,10.25 0.29432,5.6375 0.5615,11.4771 0.59373,12.9769 0.0676,3.1437 3.12287,5.5471 8.63072,6.7894 l 3.61726,0.8158 -0.34468,-11.6661 -0.34469,-11.666 5.5,0.082 c 3.025,0.045 14.05,1.0634 24.5,2.2629 10.45,1.1996 24.28746,2.5501 30.74991,3.0013 14.26175,0.9956 13.27422,2e-4 13.13715,13.2427 l -0.11295,10.9111 9.61295,-0.16 c 5.28712,-0.088 8.03794,-0.3642 6.11294,-0.6138 z m 224,-21.7262 c 0,-0.275 0.225,-0.5 0.5,-0.5 0.275,0 0.5,0.225 0.5,0.5 0,0.275 -0.225,0.5 -0.5,0.5 -0.275,0 -0.5,-0.225 -0.5,-0.5 z M 949.33183,1799.824 c -1.06762,-0.8075 -2.32617,-1.4825 -2.79677,-1.5 -0.47061,-0.017 -2.19263,-1.1568 -3.82673,-2.5318 -1.63409,-1.375 -3.61155,-2.5 -4.39436,-2.5 -0.7828,0 -1.42327,-0.45 -1.42327,-1 0,-0.55 0.62686,-1 1.39301,-1 0.76616,0 1.65897,-0.6931 1.98403,-1.5402 0.34654,-0.903 0.0806,-1.4745 -0.64301,-1.3815 -3.19819,0.4112 -4.308,-0.057 -2.73403,-1.1543 2.95223,-2.0574 -4.98318,0.2035 -14.81497,4.221 -10.65814,4.3552 -20.83874,6.855 -27.91707,6.855 -11.09636,0 -1.77355,1.3824 13.47618,1.9983 32.65478,1.3189 43.89123,1.1931 41.69699,-0.4665 z m -3.62863,-0.2149 c 0.72187,-0.2889 1.58438,-0.2534 1.91667,0.079 0.33229,0.3323 -0.25834,0.5687 -1.3125,0.5253 -1.16495,-0.048 -1.4019,-0.285 -0.60417,-0.6042 z m -102.70219,-12.4388 c 9.01433,-3.3671 18.63969,-6.4435 21.38969,-6.8364 5.5558,-0.7938 5.04267,-1.1714 -4.79599,-3.5294 -7.76301,-1.8605 -8.84343,-1.6313 -41.00925,8.7005 -15.85899,5.094 -17.61993,6.3121 -10.19476,7.0523 14.66184,1.4615 17.42818,1.0309 34.61031,-5.387 z m 125.18148,-47.0937 c 0.33572,-19.3685 0.50112,-35.3248 0.36754,-35.4584 -0.48012,-0.4801 -28.17639,-2.0411 -28.90933,-1.6293 -0.4125,0.2317 -0.75,16.3399 -0.75,35.7959 v 35.3746 l 2.75,0.4165 c 1.5125,0.2292 7.96581,0.4841 14.34069,0.5665 l 11.5907,0.1498 z m -98.29179,-9.2404 -0.5,-36.956 -3.95729,-0.8215 c -7.29468,-1.5141 -6.89978,-3.8196 -6.30537,36.8116 0.2939,20.0898 0.74859,36.7412 1.01042,37.003 0.82287,0.8229 9.22776,2.12 9.75224,1.5051 0.275,-0.3224 0.275,-17.2164 0,-37.5422 z m 235.6683,-45.6154 c 22.497,-1.0557 40.8501,-2.5358 34.665,-2.7956 -1.7416,-0.073 -3.3389,-0.6499 -3.5495,-1.2817 -0.2852,-0.8555 -5.7318,-0.7379 -21.3334,0.4605 -26.1689,2.0101 -82.8099,3.0088 -94.9504,1.6742 -4.95,-0.5442 -16.6549,-1.6527 -26.01084,-2.4635 -9.35595,-0.8108 -19.25595,-2.1648 -22,-3.0089 -15.97088,-4.9129 -36.53473,-6.5513 -42.70661,-3.4027 -8.79467,4.4867 -42.61521,2.2352 -65.03255,-4.3293 -4.69556,-1.3751 -4.68445,-1.5005 0.63884,-7.2168 2.41386,-2.5921 3.87636,-4.8646 3.25,-5.0499 -4.33408,-1.2827 -6.53896,-1.1501 -11.45489,0.6892 -12.02331,4.4985 -19.86312,10.2161 -15.99412,11.6645 32.31828,12.0989 165.71297,19.6947 264.47847,15.06 z m 11.8317,-27.4705 c 48.6732,-2.9693 81.0443,-6.6056 83.8646,-9.4206 2.1895,-2.1854 2.1329,-44.3141 -0.059,-43.7099 -49.2366,13.5724 -276.6081,13.6814 -329.5558,0.158 l -2.75,-0.7024 v 22.0494 c 0,12.1271 0.39046,22.2907 0.86769,22.5856 13.404,8.2842 167.69381,13.9165 247.63231,9.0399 z m 4.5,-51.997 c 24.2801,-1.4645 33.7689,-2.4635 56.5,-5.9483 33.0207,-5.0622 32.3047,-10.1877 -2.0855,-14.929 -6.097,-0.8406 -16.1763,-1.8375 -22.3984,-2.2154 l -11.3129,-0.6871 0.7223,2.9093 c 0.3973,1.6002 1.1419,3.0603 1.6547,3.2448 0.5127,0.1845 0.6779,0.747 0.367,1.25 -0.3109,0.503 -0.4262,0.9214 -0.2562,0.9297 0.1699,0.01 2.0604,0.6247 4.201,1.3699 l 3.892,1.3548 -8.392,0.6556 c -46.5438,3.6361 -185.72596,3.1872 -217.392,-0.7012 l -10,-1.2279 6.5,-1.8236 c 21.75442,-6.1033 9.66342,-9.9447 -19.33605,-6.1432 -46.90406,6.1485 -46.74569,11.4761 0.53468,17.9868 37.65849,5.1857 159.64757,7.4222 216.80137,3.9748 z m -105.0354,-18.9965 c 5.6572,-3.3235 6.9035,-6.6019 8.1441,-21.4244 1.3139,-15.6971 0.5203,-94.7722 -1.0593,-105.5402 -2.3536,-16.0452 -4.3615,-250.5806 -2.0974,-245 0.71,1.7501 0.8574,1.6251 1.1797,-1 0.2254,-1.8363 0.9501,-3 1.8683,-3 3.5728,0 4.0706,15.556 3.4559,108 -0.3565,53.6062 -0.1442,108.7144 0.5431,141 0.6206,29.15 1.3064,67.1964 1.5241,84.5475 0.419,33.3968 1.0676,38.5465 5.037,39.9955 8.0696,2.9458 9.0394,-6.5459 10.528,-103.043 1.4351,-93.0322 0.5901,-399.052 -1.1303,-409.3464 -1.0114,-6.0518 -0.6086,-14.6377 0.6287,-13.4004 1.734,1.7339 5.3775,30.7 5.3945,42.8859 0.037,26.3229 3.7826,78.4244 6.8922,95.8609 1.1973,6.7138 1.4368,27.7051 0.3213,28.1667 -0.443,0.1833 -0.4527,11.8083 -0.022,25.8333 1.6238,52.8222 -0.1734,147.2885 -4.1666,219 -4.0528,72.7838 -4.2155,107.9796 -0.5249,113.6121 3.1223,4.7653 4.0635,4.8879 37.5185,4.8879 46.1137,0 46.8535,-0.4232 28.5863,-16.3536 -35.0086,-30.5302 -37.9645,-55.6675 -15.036,-127.8686 20.2315,-63.7086 22.4688,-87.3101 13.4874,-142.2778 -7.8,-47.737 -6.9755,-67.4886 3.9657,-95 28.4049,-71.4237 35.6446,-143.8654 22.4909,-225.0472 -1.2964,-8.00097 -2.6748,-18.46347 -3.0632,-23.25 -0.815,-10.04424 -0.3432,-9.7298 -7.8325,-5.21996 -13.1361,7.91013 -21.4763,16.18134 -31.0043,30.74774 -3.473,5.30947 -5.2224,5.61802 -4.8326,0.85234 1.1915,-14.56612 15.392,-32.4198 33.0331,-41.53108 12.0589,-6.22814 15.5275,-14.39501 13.501,-31.7875 -2.7337,-23.46089 -58.225,-14.92412 -73.6072,11.32371 -4.9302,8.41267 -10.8837,40.20796 -12.1544,64.91199 -2.0457,39.76936 -2.5409,59.07516 -1.6672,64.99996 3.2097,21.7667 3.4916,24.8805 2.4591,27.1639 -0.9519,2.1052 -1.1738,1.7432 -2.2459,-3.6639 -0.6544,-3.3 -2.4976,-10.5 -4.0961,-16 -5.7707,-19.8553 -8.3458,-112.91497 -4.3602,-157.57329 0.7592,-8.50722 -0.4556,-9.9329 -8.4453,-9.91136 -8.5336,0.023 -8.5733,0.0847 -7.8055,12.13229 0.9171,14.3928 -0.4871,19.20934 -2.1822,7.48503 -1.788,-12.36626 -3.2551,-13.60852 -21.4607,-18.1723 -37.67993,-9.44559 -52.8647,-17.06228 -59.1463,-29.66781 -4.01283,-8.05271 -3.51453,-9.68557 1.6661,-5.45952 22.02439,17.96617 92.2679,24.69251 152.0797,14.56275 17.6017,-2.98104 22.4538,-3.06644 24.6388,-0.43366 1.2767,1.53832 -2.6176,5.16075 -6.631,6.16805 -6.1886,1.55325 -3.6617,3.36437 14.6625,10.50892 7.975,3.10943 19.675,8.02302 26,10.9191 29.1984,13.36928 46.8668,-3.40076 49.5008,-46.98383 0.6807,-11.26283 0.7667,-11.57639 6.0359,-22 13.4995,-26.70507 16.8713,-49.51135 14.1302,-95.57433 l -0.8331,-14 5.6011,-10 c 10.8541,-19.37853 15.2102,-39.67481 14.2727,-66.5 -1.5582,-44.58563 -17.3075,-61.81992 -64.4501,-70.52684 -7.505,-1.38612 -14.9773,-3.18464 -16.6051,-3.99669 -3.5809,-1.78639 -5.3536,-1.87299 -5.8821,-0.28738 -0.4103,1.23091 -9.2436,0.75668 -48.7703,-2.61825 -33.8825,-2.89301 -69.708,-3.86727 -112.8063,-3.06773 -22.93154,0.42542 -45.40277,0.79932 -49.93608,0.83089 -4.5333,0.0316 -7.6833,0.41244 -7,0.84638 0.70755,0.44934 -0.81921,0.79559 -3.54658,0.80431 -4.63261,0.0148 -4.73055,-0.0448 -3,-1.82616 1.89039,-1.94588 15.72673,-3.98585 42.28896,-6.2349 44.7961,-3.79294 165.7569,1.58313 176.3835,7.83931 3.0007,1.76658 7.6355,0.91508 5.883,-1.08082 -2.105,-2.39726 -32.6104,-22.50692 -43.2665,-28.52199 -23.5398,-13.28754 -27.6517,-19.8929 -29.5681,-47.49849 l -0.683,-9.83835 -7.6859,8.11023 c -4.2273,4.46063 -8.0934,7.76289 -8.5915,7.33836 -0.4981,-0.42454 -0.3791,-0.0763 0.2644,0.77393 0.9878,1.30496 0.7489,1.53133 -1.5329,1.4529 -3.3923,1.99189 -16.969,5.95196 -19.7619,7.95155 1.641,3.92156 9.2606,-0.10615 10.1686,0.64071 1.0069,0.83573 1.1941,1.47439 0.5,1.70578 -0.6104,0.20344 -1.1097,1.68239 -1.1097,3.28655 0,1.63057 -0.5512,2.94651 -1.25,2.98435 -0.6875,0.0372 -0.2375,0.55599 1,1.15281 2.4904,1.2011 2.8451,2.29369 1.0955,3.375 -0.7153,0.44208 -0.8831,0.27432 -0.441,-0.44098 0.3924,-0.63498 0.2284,-1.15451 -0.3645,-1.15451 -0.6455,0 -0.8307,0.98564 -0.4616,2.45648 0.6192,2.46714 -0.5033,3.17491 -5.5784,3.5172 -0.825,0.0556 -3.7901,0.34787 -6.589,0.6494 -4.9937,0.53797 -10.411,-2.94821 -10.411,-6.69981 0,-0.5078 -0.675,-0.92327 -1.5,-0.92327 -0.8333,0 -1.5,-0.88889 -1.5,-2 0,-1.7004 -0.6667,-2 -4.4503,-2 -3.1905,0 -4.7262,-0.49303 -5.425,-1.74167 -0.5361,-0.95792 -1.2287,-1.48767 -1.5391,-1.17723 -0.3105,0.31045 0.3764,1.57442 1.5265,2.80882 1.9231,2.06422 1.9423,2.21892 0.2394,1.92723 -3.0103,-0.51564 -4.0548,-2.04534 -3.7781,-5.53284 0.1868,-2.3544 -0.1597,-3.28431 -1.2238,-3.28431 -1.0293,0 -1.2898,-0.61315 -0.8496,-2 0.4534,-1.42842 0.1797,-2 -0.9576,-2 -8.4626,0 -30.57442,-16.54105 -35.41491,-26.49256 l -1.81089,-3.72298 -0.61667,17.85777 c -1.07771,31.20878 -0.52769,30.31309 -29.09928,47.38748 -12.04464,7.19788 -27.93123,17.22328 -35.30353,22.27867 -18.85712,12.93085 -19.72222,13.36726 -30.03289,15.1507 -43.35333,7.49882 -62.07493,25.95439 -66.36098,65.41801 -2.80382,25.81606 1.48965,48.1357 13.96994,72.62291 l 4.58699,9 0.0297,33.5 0.0297,33.5 3.1443,11.64218 c 1.72936,6.4032 5.82023,17.8782 9.09082,25.5 7.81117,18.2032 7.25174,16.22153 8.33412,29.52217 1.1134,13.68184 3.79794,25.01956 7.56139,31.93425 9.95998,18.29976 35.1657,26.26773 55.38158,17.50708 12.31543,-5.33695 15.25958,-4.9794 9.83854,1.19482 l -3.1297,3.56454 0.67227,8.90548 c 1.39917,18.53454 2.98762,22.60654 9.7956,25.1112 2.36034,0.86837 6.92118,2.53583 10.1352,3.70546 17.00088,6.18676 29.6568,25.52165 29.6568,45.30702 0,9.61549 -0.77279,10.19699 -3.33755,2.51115 -5.86517,-17.57607 -12.8027,-26.71404 -25.85547,-34.05626 -3.27463,-1.84198 -8.78006,-5.23015 -12.23429,-7.52927 l -6.28043,-4.1802 -0.60808,10.6802 c -0.33445,5.87412 -1.93639,17.65521 -3.55988,26.18021 -12.72851,66.83806 -5.92332,145.23346 18.35946,211.49996 11.75766,32.0861 12.53319,35.683 12.47052,57.838 -0.0479,16.9413 -1.57585,29.5948 -6.29866,52.162 -9.26113,44.2528 -6.19916,74.5974 13.37009,132.5 24.95808,73.8473 23.58226,95.2342 -8.27571,128.6447 -13.05836,13.6947 -13.95531,15.1073 -11.10088,17.4829 4.17308,3.4729 64.48548,3.762 70.31548,0.337 z m 78.0569,-298.7146 c -0.6375,-3.9875 -1.4951,-8.3508 -1.9057,-9.6963 -0.4304,-1.41 -0.2075,-4.0111 0.5262,-6.1406 0.7,-2.0319 2.2022,-8.5811 3.3381,-14.5538 3.2387,-17.0291 6.6773,-24.9252 9.9686,-22.891 3.4959,2.1606 0.7438,33.9549 -3.7877,43.7587 -1.5947,3.4502 -3.4532,8.6355 -4.13,11.523 -1.6624,7.0927 -2.6331,6.6085 -4.0095,-2 z m -119.0215,-15.691 c 0,-1.0675 -0.45,-2.2191 -1,-2.559 -0.55,-0.3399 -1,-1.5775 -1,-2.7501 0,-2.0941 0.0277,-2.0976 1.55178,-0.191 1.49027,1.8642 1.52424,1.842 0.85695,-0.5589 -0.38215,-1.375 -1.41795,-3.175 -2.30178,-4 -0.9365,-0.8742 -1.60695,-3.102 -1.60695,-5.3398 0,-2.2298 -0.58019,-4.1646 -1.38378,-4.6146 -2.17281,-1.2167 -2.68468,-10.3959 -0.73494,-13.1796 0.8903,-1.271 1.61872,-1.7343 1.61872,-1.0295 0,0.7048 0.42742,1.0174 0.94983,0.6945 1.89899,-1.1736 8.18178,23.829 6.62204,26.3527 -0.28266,0.4574 -0.12143,2.2001 0.35828,3.8728 0.5731,1.9982 0.49458,3.4188 -0.22897,4.1423 -1.73431,1.7343 -3.70118,1.288 -3.70118,-0.8398 z m 3,-3.559 c 0,-0.275 -0.225,-0.5 -0.5,-0.5 -0.275,0 -0.5,0.225 -0.5,0.5 0,0.275 0.225,0.5 0.5,0.5 0.275,0 0.5,-0.225 0.5,-0.5 z m -7,-24 c 0,-0.275 -0.225,-0.5 -0.5,-0.5 -0.275,0 -0.5,0.225 -0.5,0.5 0,0.275 0.225,0.5 0.5,0.5 0.275,0 0.5,-0.225 0.5,-0.5 z m 92.2691,-72.25 c -1.9983,-7.1454 -0.27,-77.4401 1.8227,-74.1357 0.6659,1.0515 0.8813,0.8799 0.8929,-0.7113 0.023,-3.081 3.5758,-6.9907 4.4004,-4.8418 0.8144,2.1224 0.7838,5.9365 -0.054,6.7747 -0.3681,0.3681 -0.817,2.3556 -0.9975,4.4167 -0.1805,2.0611 -0.9856,8.0224 -1.7891,13.2474 -2.9533,19.2048 -4.2226,53.4753 -2.1074,56.8978 0.3747,0.6062 0.2132,1.1022 -0.3587,1.1022 -0.572,0 -1.3861,-1.2375 -1.809,-2.75 z m -30.0371,-110.25 c 0,-1.925 0.2058,-2.7125 0.4573,-1.75 0.2516,0.9625 0.2516,2.5375 0,3.5 -0.2515,0.9625 -0.4573,0.175 -0.4573,-1.75 z m 43.2091,-26.4448 c 1.0677,-0.8554 2.6427,-1.5197 3.5,-1.4763 1.3466,0.068 1.3546,0.1547 0.059,0.6352 -0.825,0.3059 -2.4,0.9702 -3.5,1.4762 -1.968,0.9053 -1.9689,0.8951 -0.059,-0.6351 z m -47.2091,-18.5552 c 0,-1.925 0.2058,-2.7125 0.4573,-1.75 0.2516,0.9625 0.2516,2.5375 0,3.5 -0.2515,0.9625 -0.4573,0.175 -0.4573,-1.75 z m -0.232,-5 c 0,-0.7333 0.3,-1.0333 0.6667,-0.6667 0.3666,0.3667 0.3666,0.9667 0,1.3334 -0.3667,0.3666 -0.6667,0.067 -0.6667,-0.6667 z m 2,-86.49996 c 0,-0.275 0.225,-0.5 0.5,-0.5 0.275,0 0.5,0.225 0.5,0.5 0,0.275 -0.225,0.5 -0.5,0.5 -0.275,0 -0.5,-0.225 -0.5,-0.5 z m -25.8214,-87.23834 c -0.7268,-0.69391 -1.6429,-1.26166 -2.0357,-1.26166 -1.5509,0 -0.6042,-4.03621 1.0714,-4.56801 0.9821,-0.31172 1.7857,-0.9383 1.7857,-1.39239 0,-1.52916 4.8369,-1.75625 4.8369,-1.75625 l 2.6631,-0.0721 c 0,0 5.397,2.08389 8.3267,2.77268 3.8876,0.21933 6.2406,3.96631 9.5303,4.15222 2.3539,0.102 2.5781,0.24498 0.893,0.56955 -11.4451,5.3717 -18.3084,9.10389 -27.0714,1.55593 z m 195.2175,2.9661 c -1.1572,-0.95027 -3.7754,-4.29561 -5.8183,-7.4341 -8.3791,-12.87295 -16.3665,-16.89444 -44.346,-22.32731 -28.9885,-5.62881 -57.7376,-22.45903 -64.8534,-37.96635 -1.3066,-2.84742 -3.1824,-10.59671 -4.3571,-18 -4.4345,-27.94704 -14.4346,-35.01223 -49.5213,-34.98712 -37.11443,0.0266 -51.46108,8.39885 -84.71923,49.43966 -12.00194,14.81048 -21.67081,23.11325 -34.86216,29.93652 -22.15572,11.46013 -31.4215,19.0725 -37.81429,31.0666 -3.73514,7.00783 -5.10432,7.59224 -5.10432,2.1787 0,-10.34917 12.54156,-26.49281 26.12802,-33.63229 9.85516,-5.17874 11.54678,-7.05112 12.37752,-13.70008 1.60524,-12.84796 -5.29473,-47.35313 -16.11128,-80.56879 -8.10171,-24.87887 -8.82641,-36.26927 -2.98555,-46.92505 4.05191,-7.39213 5.96738,-7.71436 3.5168,-0.59163 -4.89472,14.22675 1.62772,28.81128 17.57449,39.29756 1.65,1.08501 2.5275,1.97571 1.95,1.97933 -0.5775,0.004 -1.57093,-0.51434 -2.20762,-1.15103 -0.87682,-0.87682 -1.5783,-0.81618 -2.89196,0.25 -1.12485,0.91295 -1.47043,0.96834 -0.98336,0.15762 0.49195,-0.81885 0.11753,-1.25 -1.08554,-1.25 -1.01008,0 -2.8071,-0.67983 -3.99337,-1.51072 -4.01182,-2.80999 -3.54239,0.3987 2.09284,14.30509 5.42411,13.38542 11.46453,35.57467 15.16435,55.70563 3.76251,20.47207 6.7353,20.05263 24.73373,-3.48975 16.85512,-22.04691 33.75896,-37.99866 46.70153,-44.07111 6.8404,-3.20941 8.92884,-5.55861 9.10001,-10.23619 0.3988,-10.89791 12.40699,-16.68013 37.91939,-18.25909 24.8471,-1.53778 37.2797,3.50305 40.4859,16.4151 0.907,3.65257 2.1166,8.44104 2.6881,10.64104 0.5714,2.2 2.9761,8.275 5.3436,13.5 2.3675,5.225 5.5041,14 6.9701,19.5 8.0696,30.27416 36.7468,54.41445 60.8072,51.18727 5.6096,-0.7524 5.5771,-0.67029 7.2247,-18.25024 2.7491,-29.33409 6.9689,-52.63176 12.4924,-68.97266 1.7889,-5.29214 2.6094,-9.09058 2.007,-9.29138 -0.5605,-0.18681 -1.019,-0.97716 -1.019,-1.75632 0,-0.77917 -0.213,-1.41667 -0.4732,-1.41667 -1.244,0 -9.5268,4.49308 -9.5268,5.16788 0,0.42314 -0.6767,0.50969 -1.5037,0.19234 -2.0176,-0.77424 -10.4963,3.28967 -10.4963,5.03096 0,0.75952 -1.575,2.12832 -3.5,3.0418 -1.925,0.91347 -3.5,2.31965 -3.5,3.12484 0,2.09948 -4.0576,10.44218 -5.0787,10.44218 -0.4722,0 -0.5995,-0.675 -0.2829,-1.5 0.6494,-1.69245 -2.128,-2.13493 -3.1384,-0.5 -0.3399,0.55 -1.068,1 -1.618,1 -0.55,0 -0.6621,-0.5625 -0.2491,-1.25 0.5103,-0.84936 0.2087,-0.81011 -0.9409,0.12244 -1.2739,1.0333 -1.692,1.06626 -1.692,0.13337 0,-0.74703 -0.7948,-1.03124 -2.0014,-0.7157 -1.1007,0.28785 -1.7492,0.11534 -1.441,-0.38337 0.3083,-0.49871 -0.1411,-0.90674 -0.9986,-0.90674 -0.9168,0 -1.559,-0.86455 -1.559,-2.09879 0,-1.96033 -3.7795,-6.23254 -8.3393,-9.42632 -1.5867,-1.11135 -1.741,-1.6732 -0.7782,-2.83332 0.9409,-1.13366 0.9212,-1.5409 -0.091,-1.88027 -0.7104,-0.23825 4.1083,-0.75426 10.7083,-1.14669 42.7742,-2.54331 62.2527,-21.1354 52.9604,-50.55049 -1.3967,-4.42152 -2.4092,-8.20059 -2.25,-8.39793 0.1593,-0.19734 -0.2986,-1.06756 -1.0176,-1.93382 -1.1296,-1.36115 -1.0257,-1.50145 0.7649,-1.03318 1.5458,0.40423 1.9267,0.16304 1.4997,-0.94963 -1.9956,-5.20044 2.8849,-1.70798 7.798,5.58023 7.8569,11.65509 9.2327,14.54568 7.2796,15.29516 -0.8443,0.32397 -1.535,1.01744 -1.535,1.54106 0,0.52361 0.5084,0.63783 1.1297,0.25381 0.685,-0.42336 0.9494,-0.15135 0.6717,0.69098 -0.2519,0.76406 -1.3818,1.52599 -2.5108,1.69317 -1.9097,0.28278 -2.087,1.15372 -2.5439,12.5 -0.4411,10.95147 -1.0158,13.98184 -5.6315,29.69603 -8.1093,27.6084 -13.168,57.55346 -13.0588,77.30122 0.081,14.57001 0.3824,15.09957 14.5412,25.52493 13.886,10.22448 16.726,13.47958 18.8391,21.59232 1.9886,7.63474 1.145,9.24656 -3.0406,5.80929 z M 1030.8907,712.23252 c 4.675,-0.49761 12.4194,-0.91274 17.2099,-0.92251 l 8.7098,-0.0178 1.1367,-3.79395 c 2.919,-9.74258 -0.708,-11.66451 -20.5564,-10.8928 -22.1678,0.8619 -25.6243,2.33399 -27.0936,11.53867 -0.8735,5.47234 0.3528,6.44219 7.0936,5.61022 2.75,-0.33942 8.825,-1.02426 13.5,-1.52186 z m 163,-49.44028 c 0,-0.275 -0.225,-0.5 -0.5,-0.5 -0.275,0 -0.5,0.225 -0.5,0.5 0,0.275 0.225,0.5 0.5,0.5 0.275,0 0.5,-0.225 0.5,-0.5 z m -12,-18 c 0,-0.275 -0.225,-0.5 -0.5,-0.5 -0.275,0 -0.5,0.225 -0.5,0.5 0,0.275 0.225,0.5 0.5,0.5 0.275,0 0.5,-0.225 0.5,-0.5 z m 0,-2 c 0,-0.275 -0.225,-0.5 -0.5,-0.5 -0.275,0 -0.5,0.225 -0.5,0.5 0,0.275 0.225,0.5 0.5,0.5 0.275,0 0.5,-0.225 0.5,-0.5 z m -34,86 c 0,-0.275 0.225,-0.5 0.5,-0.5 0.275,0 0.5,0.225 0.5,0.5 0,0.275 -0.225,0.5 -0.5,0.5 -0.275,0 -0.5,-0.225 -0.5,-0.5 z m -3.775,-3.27111 c 0.6635,-0.79951 1.3517,-0.9987 1.5364,-0.4447 0.184,0.55192 1.3254,0.75982 2.5365,0.462 1.2112,-0.29782 1.8674,-0.17787 1.4584,0.26655 -1.4786,1.60639 -6.8704,1.3297 -5.5313,-0.28385 z m 13.775,-157.72889 c 0,-0.275 0.225,-0.5 0.5,-0.5 0.275,0 0.5,0.225 0.5,0.5 0,0.275 -0.225,0.5 -0.5,0.5 -0.275,0 -0.5,-0.225 -0.5,-0.5 z m -136,-52 c 0,-0.275 0.225,-0.5 0.5,-0.5 0.275,0 0.5,0.225 0.5,0.5 0,0.275 -0.225,0.5 -0.5,0.5 -0.275,0 -0.5,-0.225 -0.5,-0.5 z m -2,-4.5 c 0,-0.73333 0.3,-1.03333 0.6667,-0.66667 0.3666,0.36667 0.3666,0.96667 0,1.33334 -0.3667,0.36666 -0.6667,0.0667 -0.6667,-0.66667 z m 47,-3.5 c 0,-0.825 0.1769,-1.5 0.393,-1.5 0.2162,0 0.652,0.675 0.9686,1.5 0.3166,0.825 0.1398,1.5 -0.393,1.5 -0.5327,0 -0.9686,-0.675 -0.9686,-1.5 z m -4.4069,-3.34929 c -0.4479,-0.72483 1.2137,-1.85488 5.9069,-4.01712 0.55,-0.2534 -0.2607,0.73788 -1.8015,2.20284 -3.0871,2.93511 -3.3428,3.0481 -4.1054,1.81428 z m 7.7402,-3.81738 c 0.3667,-0.36666 0.9667,-0.36666 1.3334,0 0.3666,0.36667 0.067,0.66667 -0.6667,0.66667 -0.7333,0 -1.0333,-0.3 -0.6667,-0.66667 z m -12.3333,793.16663 c 0,-0.275 -0.225,-0.5 -0.5,-0.5 -0.275,0 -0.5,0.225 -0.5,0.5 0,0.275 0.225,0.5 0.5,0.5 0.275,0 0.5,-0.225 0.5,-0.5 z m 90,-387.99996 c 0,-0.275 -0.225,-0.5 -0.5,-0.5 -0.275,0 -0.5,0.225 -0.5,0.5 0,0.275 0.225,0.5 0.5,0.5 0.275,0 0.5,-0.225 0.5,-0.5 z M 1047.6013,509.66169 c 0.5121,-1.53808 -6.6585,-2.82152 -8.0409,-1.4392 -0.7596,0.75967 -0.2871,1.06975 1.6303,1.06975 1.485,0 2.7,0.483 2.7,1.07332 0,1.38887 3.2171,0.77862 3.7106,-0.70387 z m -0.4606,-5.03173 c -0.6875,-0.27741 -1.8125,-0.27741 -2.5,0 -0.6875,0.27741 -0.125,0.50439 1.25,0.50439 1.375,0 1.9375,-0.22698 1.25,-0.50439 z m 16.2552,-22.59881 c 20.2651,-5.78463 27.2325,-13.44549 28.4572,-31.28954 0.714,-10.40416 1.0584,-11.79428 4.4029,-17.7749 6.8108,-12.17886 7.0008,-13.88953 7.0715,-63.67447 0.071,-49.98654 -1e-4,-50.54495 -7.9899,-62.71805 -22.3323,-34.02505 -101.42278,-31.14833 -120.65638,4.38858 -6.09139,11.25472 -6.2929,13.08252 -6.26516,56.82947 0.0288,45.35014 0.41638,48.63658 7.47157,63.34604 3.75204,7.82267 4.00307,8.90797 4.00307,17.30718 0,19.60085 8.61344,29.68328 29.4109,34.42687 8.1359,1.85567 46.75,1.25521 54.0943,-0.84118 z m -53.3629,-38.06743 c -3.8113,-4.5924 47.68,-7.98909 57.6077,-3.80016 8.1787,3.45098 2.5657,5.65885 -10.4389,4.10612 -8.9644,-1.07033 -25.6073,-0.80963 -40.3751,0.63243 -4.2005,0.41019 -5.8653,0.18024 -6.7937,-0.93839 z m 25.1803,-18.31652 c -3.6266,-0.7912 -4.8518,-3.53448 -4.4015,-9.85496 0.1405,-1.97144 0.1634,-1.97235 1.6069,-0.0641 1.872,2.4748 13.1595,3.63795 13.9085,1.43324 0.2558,-0.75303 0.9179,-9.24415 1.4713,-18.86915 0.5534,-9.625 1.4928,-19.17353 2.0876,-21.21895 5.696,-19.58789 46.6053,-19.96324 49.5309,-0.45445 1.1049,7.36802 -0.4727,8.02589 -23.1281,9.64496 -18.6913,1.33577 -19.7128,2.31503 -22.4586,21.52844 -2.3737,16.61039 -6.4411,20.51131 -18.617,17.85496 z m 58.497,-51.10496 c -1.1082,-5.93008 -26.7011,-6.93234 -32.1772,-1.26011 l -2.1424,2.21907 7,-0.71683 c 9.5699,-0.97999 19.5092,-0.8089 22.5088,0.38746 3.7555,1.49789 5.1737,1.31228 4.8108,-0.62959 z m -7.8196,47.80902 c 0,-0.51754 0.438,-1.21166 0.9732,-1.54248 0.5353,-0.33082 1.7115,-2.15718 2.6138,-4.05856 0.9022,-1.90139 3.412,-5.36977 5.5771,-7.70752 2.2483,-2.42742 3.4711,-3.28543 2.8511,-2.00046 -0.8022,1.66277 -0.7834,2.25 0.072,2.25 0.838,0 0.8139,0.41409 -0.087,1.5 -0.6847,0.825 -0.9419,1.5 -0.5716,1.5 0.3704,0 -0.4745,1.50498 -1.8775,3.34439 -1.403,1.83942 -2.5509,3.9132 -2.5509,4.60841 0,0.85013 -0.9004,1.0778 -2.75,0.69529 -1.5125,-0.3128 -2.1875,-0.32408 -1.5,-0.0251 1.9504,0.84828 1.4681,2.37698 -0.75,2.37698 -1.1,0 -2,-0.42344 -2,-0.94098 z m -57.2175,-16.80902 c -3.0986,-15.66551 -4.1474,-16.69059 -18.7747,-18.34959 -4.6793,-0.53073 -12.18501,-1.37965 -16.67938,-1.8865 -10.57104,-1.19214 -16.11381,-3.36264 -14.26768,-5.5871 4.41092,-5.31484 13.06041,-6.7567 30.18926,-5.03253 5.8282,0.58665 8.75,0.54204 8.75,-0.13362 0,-1.24918 -9.1012,-5.26066 -11.9354,-5.26066 -1.1355,0 -2.0646,-0.51639 -2.0646,-1.14753 0,-1.21182 -14.99995,-0.5415 -18.66674,0.8342 -1.57586,0.59122 -1.65129,0.46383 -0.53726,-0.90732 5.97869,-7.3586 29.2359,-6.26253 38.1583,1.79832 5.2051,4.70251 9.0132,22.04205 9.0423,41.17233 0.01,4.87381 -1.7605,1.84847 -3.2141,-5.5 z m 66.2175,0.25 c 0,-0.275 0.225,-0.5 0.5,-0.5 0.275,0 0.5,0.225 0.5,0.5 0,0.275 -0.225,0.5 -0.5,0.5 -0.275,0 -0.5,-0.225 -0.5,-0.5 z m -113,-36 c 0,-0.275 0.225,-0.5 0.5,-0.5 0.275,0 0.5,0.225 0.5,0.5 0,0.275 -0.225,0.5 -0.5,0.5 -0.275,0 -0.5,-0.225 -0.5,-0.5 z"
         id="path3091"
         sodipodi:nodetypes="cssscsscccsscssscsssssscsssscsssssscsssssssssssssscsssscssssssscsssscssccccccccsssssccsscssssssssssssssssssssssscsssccssssssscsssssssssscccccssssscssscssssssscccsssscsssssssscsssssscssssssssssssssssssscsscsscssssssssssssssscssssssscscsssssscssscscsscssssssssssssssssscsscssssssssssssssssssssssssssssssssssscsssssssssssssssscssscccssssssssssssssssssssssscsssssscccsssssscssssssscsssssssssssssssssssssssssssssssssssssssssscscssssssccsssssssssssssssssssssscccccccccccssssssssssssssscsssssssssssssssssssssssssssssssssssssssssssssssssssssscssccsscssssssssssssssssssssssssssssscsssssssssssssssssssssssssssssssssssssssssssssssscssssssssscssscssssssssssssccsssccsssscsssssscccssssssssssccsssssssssss" />
    </g>
  </g>
</svg>
