<?xml version="1.0" encoding="UTF-8" standalone="no"?>
<svg
   width="198.44774mm"
   height="159.01198mm"
   viewBox="0 0 198.44774 159.01198"
   version="1.1"
   id="svg8"
   inkscape:version="1.2.2 (b0a8486541, 2022-12-01)"
   sodipodi:docname="why-not.svg"
   inkscape:export-filename="/home/k/juggling/wiki/why-not.png"
   inkscape:export-xdpi="149.24001"
   inkscape:export-ydpi="149.24001"
   xmlns:inkscape="http://www.inkscape.org/namespaces/inkscape"
   xmlns:sodipodi="http://sodipodi.sourceforge.net/DTD/sodipodi-0.dtd"
   xmlns="http://www.w3.org/2000/svg"
   xmlns:svg="http://www.w3.org/2000/svg"
   xmlns:rdf="http://www.w3.org/1999/02/22-rdf-syntax-ns#"
   xmlns:cc="http://creativecommons.org/ns#"
   xmlns:dc="http://purl.org/dc/elements/1.1/">
  <defs
     id="defs2" />
  <sodipodi:namedview
     id="base"
     pagecolor="#ffffff"
     bordercolor="#666666"
     borderopacity="1.0"
     inkscape:pageopacity="0.0"
     inkscape:pageshadow="2"
     inkscape:zoom="0.35"
     inkscape:cx="138.57143"
     inkscape:cy="181.42857"
     inkscape:document-units="mm"
     inkscape:current-layer="layer1"
     inkscape:document-rotation="0"
     showgrid="false"
     fit-margin-top="0"
     fit-margin-left="0"
     fit-margin-right="0"
     fit-margin-bottom="0"
     inkscape:window-width="1422"
     inkscape:window-height="960"
     inkscape:window-x="307"
     inkscape:window-y="12"
     inkscape:window-maximized="0"
     inkscape:showpageshadow="2"
     inkscape:pagecheckerboard="0"
     inkscape:deskcolor="#d1d1d1" />
  <metadata
     id="metadata5">
    <rdf:RDF>
      <cc:Work
         rdf:about="">
        <dc:format>image/svg+xml</dc:format>
        <dc:type
           rdf:resource="http://purl.org/dc/dcmitype/StillImage" />
        <dc:title />
      </cc:Work>
    </rdf:RDF>
  </metadata>
  <g
     inkscape:label="Layer 1"
     inkscape:groupmode="layer"
     id="layer1"
     transform="translate(-4.0398512,-4.1644282)">
    <rect
       style="color:#000000;overflow:visible;fill:#dddddd;stroke-width:1;stroke-linecap:round"
       id="rect3400"
       width="198.44774"
       height="159.01198"
       x="4.0398512"
       y="4.1644282" />
    <g
       aria-label="Why 
Not?"
       id="text835"
       style="font-size:70.5556px;line-height:71.4375px;font-family:'Noto Sans';-inkscape-font-specification:'Noto Sans';letter-spacing:0px;word-spacing:0px;baseline-shift:baseline;display:inline;overflow:visible;stroke-width:0.330729;marker:none;enable-background:accumulate">
      <path
         d="m 65.951101,47.455903 c 0,3.668892 -2.116668,11.359452 -3.104446,11.359452 -0.635001,0 -1.834446,-2.822224 -2.398891,-4.586114 -3.52778,-10.512785 -9.666117,-17.850567 -13.899454,-17.850567 -1.27,0 -2.39889,0.705556 -3.175002,2.187223 -1.834445,3.316114 -7.620005,22.930571 -8.748894,22.930571 -0.49389,0 -1.905002,-5.29167 -3.245558,-11.782786 C 27.004408,27.982557 24.88774,21.35033 22.48885,21.35033 c -0.846667,0 -1.199445,0.705556 -1.199445,2.963335 0,9.666118 2.046112,5.856115 2.046112,10.089452 0,1.340556 0.493889,3.880558 0.987779,5.573892 2.046112,7.690561 2.751668,14.816677 6.420559,31.115021 0.776112,3.598336 1.340557,4.303892 3.033891,4.303892 3.457225,0 1.693335,-2.328335 11.430008,-27.375574 l 2.116668,-5.29167 2.116668,2.046112 c 2.398891,2.25778 6.985005,11.430008 7.902228,15.875011 0.352778,1.622779 0.987778,2.963335 1.340556,2.963335 1.411112,0 2.25778,6.350005 5.78556,6.350005 1.340556,0 2.39889,-1.199446 2.39889,-3.527781 0,-3.457224 0.493889,-2.046112 3.52778,-17.356678 l 3.668892,-18.344457 c 1.058334,-5.29167 1.693334,-8.678339 1.693334,-10.795007 0,-2.89278 -1.058334,-3.52778 -3.386669,-3.52778 -0.917223,0 -6.42056,28.575019 -6.42056,31.044465 z"
         style="font-family:Purisa;-inkscape-font-specification:Purisa"
         id="path846" />
      <path
         d="m 85.706689,66.364805 c 0,4.515558 0.352778,6.279448 1.27,7.05556 0.423334,0.352778 0.846668,0.564445 1.199446,0.564445 2.610557,0 2.187223,-12.206119 3.810002,-17.991679 1.270001,-4.021669 5.29167,-9.877784 9.666113,-14.040565 l 4.09223,-3.810002 1.12889,3.52778 c 0.77611,2.328335 1.41111,8.466672 1.69333,17.427234 0.42334,13.123342 0.56445,13.828898 2.04612,13.828898 1.55222,0 1.55222,-0.493889 1.55222,-15.028344 0,-8.325561 -0.21167,-15.945566 -0.56445,-17.145011 -0.84666,-3.033891 -4.23333,-6.208893 -6.63222,-6.208893 -2.46945,0 -12.417788,9.242784 -14.322789,13.47612 L 89.37558,50.772017 88.740579,42.446455 C 86.906134,18.598662 87.258912,14.012547 85.001133,14.012547 c -0.49389,0 -1.058335,0.49389 -1.622779,1.481668 -0.282223,0.493889 -0.423334,1.975557 -0.423334,4.515559 0,12.700008 2.751669,34.783912 2.751669,46.355031 z"
         style="font-family:Purisa;-inkscape-font-specification:Purisa"
         id="path848" />
      <path
         d="m 125.99395,52.112573 c 0,-4.021669 0.14111,-6.985005 0.14111,-9.94834 0,-4.65667 -0.28222,-5.29167 -1.41111,-5.29167 -1.97556,0 -2.54001,3.316113 -2.61056,13.828898 0,9.383895 0.14111,10.865563 1.41111,13.123342 1.27,2.257779 2.82222,3.316113 4.65667,3.316113 5.08,0 8.96056,-6.914449 10.16001,-6.914449 1.05833,0 1.48166,5.503337 1.48166,5.573893 0,0.776112 -0.49388,0.423334 -1.905,1.905001 -1.12889,1.270001 -2.75166,1.12889 -3.88055,3.245558 -1.97556,3.739447 -2.82223,3.739447 -2.82223,6.208893 0,1.905001 0.635,4.445003 1.97556,7.196672 1.12889,2.39889 2.18722,3.386669 4.445,4.374447 1.97556,0.846667 3.38667,1.270001 4.445,1.270001 0.84667,0 1.41112,-0.282223 1.76389,-0.846667 0.35278,-0.49389 0.70556,-6.42056 0.91723,-13.193898 l -0.35278,-7.902228 2.89278,-1.481667 c 2.04611,-1.058334 2.96333,-2.25778 2.96333,-3.245558 0,-0.776112 -0.635,-1.340557 -1.83444,-1.340557 -0.70556,0 -1.62278,0.282223 -2.75167,0.776112 l -2.25778,1.12889 -0.49389,-2.046113 c -0.14111,-1.340556 -0.21167,-2.751668 -0.21167,-4.303892 0,-11.923896 3.17501,-16.439455 3.17501,-20.602236 0,-1.411112 -1.05834,-2.257779 -2.04612,-2.257779 -3.59833,0 -2.68111,9.877784 -6.70278,18.697235 -1.69333,3.880558 -6.985,9.525006 -8.74889,9.525006 -1.97556,0 -2.39889,-4.021669 -2.39889,-10.795007 z m 9.31334,28.010574 c 0,-1.340556 0.70555,-3.810002 2.61055,-6.773337 l 1.97556,-3.033891 0.42333,4.233336 c 0.28223,2.328335 0.84667,3.668891 0.91723,6.067782 0,4.233336 -0.42334,4.938892 -1.05834,4.938892 -1.19944,0 -4.86833,-3.598336 -4.86833,-5.432782 z"
         style="font-family:Purisa;-inkscape-font-specification:Purisa"
         id="path850" />
      <path
         d="m 29.050521,128.55317 c 0,-9.10168 1.058334,-21.87224 1.975557,-21.87224 0.07056,0 0.141111,0 0.211667,0.14111 1.481667,2.82222 8.748894,12.62945 9.595562,16.29834 0.917222,3.73945 0.987778,1.97556 6.914449,13.8289 5.009448,10.16001 9.454451,15.24001 15.804455,15.24001 3.598336,0 4.303892,-3.175 5.29167,-17.14501 1.481668,-19.12057 2.822224,-26.81113 2.822224,-30.62113 0,-3.10445 -0.705556,-4.09222 -2.257779,-4.09222 -3.880558,0 -4.02167,2.75166 -5.573893,27.1639 -0.987778,17.92113 -2.116668,18.2739 -2.892779,18.2739 -2.116669,0 -7.478894,-10.30111 -9.595563,-14.4639 -7.902227,-15.52223 -12.206119,-20.60223 -12.206119,-21.66057 0,-0.91722 -8.396117,-12.841115 -9.595562,-13.617227 -0.776111,-0.493889 -1.622779,-0.776111 -2.39889,-0.776111 -1.270001,0 -2.398891,0.635 -2.89278,1.76389 -0.564445,1.481667 -1.411112,28.998348 -1.411112,40.357808 0,10.44223 0.776112,10.93612 3.739447,11.00667 1.552223,0 3.033891,-5.43278 3.033891,-10.16001 0,-2.39889 -0.564445,-3.38666 -0.564445,-9.66611 z"
         style="font-family:Purisa;-inkscape-font-specification:Purisa"
         id="path852" />
      <path
         d="m 86.341703,119.02816 c -4.727225,4.51556 -6.843894,9.10167 -6.843894,15.0989 0,5.99723 0.846668,8.18445 4.868337,12.91167 2.822224,3.24556 7.126116,5.00945 11.641675,5.00945 3.386669,0 6.843889,-0.98778 9.948339,-2.89278 6.63223,-4.02167 11.50056,-16.08668 11.50056,-25.75279 0,-2.82223 -0.42333,-5.50334 -1.34055,-7.62001 -1.48167,-3.52778 -5.08001,-5.22111 -10.93612,-5.22111 -7.549451,0 -11.359453,1.41111 -18.838347,8.46667 z m 11.359452,28.99835 c -7.690561,-0.0705 -13.052787,-5.57389 -13.052787,-13.40556 0,-5.22112 2.116669,-9.31334 7.690561,-14.60501 2.89278,-2.75167 4.303892,-3.45723 7.54945,-3.88056 4.374451,-0.42333 5.009451,-0.77611 6.208891,-0.77611 1.83445,0 3.88056,0.77611 5.57389,2.18722 1.19945,0.98778 1.62278,1.69334 1.62278,3.88056 0,13.75834 -7.69056,26.59946 -15.592785,26.59946 z"
         style="font-family:Purisa;-inkscape-font-specification:Purisa"
         id="path854" />
      <path
         d="m 137.98847,101.67148 c 0,2.11667 -0.28222,3.38667 -0.77611,3.73945 -2.11667,1.41111 -12.41778,1.97556 -12.41778,4.72722 0,1.12889 0.42333,1.69334 2.04611,1.69334 2.11667,0 8.60778,-1.55222 10.79501,-1.55222 0.42333,0 0.56444,0.28222 1.05833,8.81945 1.19944,15.66334 1.97556,19.68501 1.97556,25.61168 0,4.86834 1.19944,8.11389 2.89278,8.11389 1.62277,0 1.62277,-1.41111 1.62277,-2.18722 0,-4.445 -1.76389,-11.9239 -2.32833,-29.98613 l -0.42333,-11.9239 3.52778,-0.84667 c 5.715,-1.41111 7.76111,-2.32833 7.76111,-3.45722 0,-1.27 -2.11667,-1.55222 -3.52778,-1.55222 -3.10444,0 -6.20889,1.19944 -7.76111,1.19944 -0.14111,0 -0.21167,-0.0705 -0.21167,-0.0705 -0.28222,-0.28223 -1.34056,-17.921127 -1.905,-19.120572 -0.28222,-0.564445 -0.70556,-0.776112 -1.19945,-0.776112 -0.84666,0 -1.76389,0.917223 -2.04611,2.469447 -0.0706,0.423333 -0.0706,1.058334 -0.0706,1.76389 0,5.362225 0.98778,8.043338 0.98778,13.335007 z"
         style="font-family:Purisa;-inkscape-font-specification:Purisa"
         id="path856" />
      <path
         d="m 176.65287,148.16762 c 0,2.89278 0.84667,3.88056 2.04611,3.88056 2.82223,0 4.44501,-5.22111 4.44501,-5.22111 0,-0.56445 -3.81001,-3.175 -4.58612,-3.175 -0.35277,0 -1.905,0.70555 -1.905,4.51555 z m -5.43278,-45.79058 c 0,-2.892782 5.99723,-7.690563 9.24278,-7.690563 1.97556,0 5.5739,3.033891 6.35001,5.080003 0.49389,1.12889 0.70555,2.46945 0.70555,3.88056 0,4.23333 -2.11666,9.24278 -5.57389,12.27667 -3.81,3.45723 -4.02167,5.64445 -4.02167,10.93612 0,5.64445 0.49389,7.54945 2.04612,7.54945 0.98777,0 1.41111,-1.48167 1.41111,-4.86834 0,-0.56444 -0.0706,-1.19944 -0.0706,-1.905 l -0.0705,-5.29167 2.46944,-3.24555 c 4.93889,-6.35001 7.05556,-10.58334 7.05556,-14.67557 0,-6.279449 -4.93889,-13.123342 -10.44223,-13.123342 -4.86833,0 -12.13556,5.785559 -12.13556,10.936122 0,4.93889 5.22111,9.94834 8.74889,9.94834 4.51556,0 5.5739,-4.58612 5.5739,-6.56167 0,-2.54001 -1.48167,-3.81001 -2.46945,-3.81001 -0.84667,0 -2.82222,0.91723 -2.82222,2.25778 0,0.49389 0.42333,0.91722 1.27,0.91722 0.91722,0 1.34055,0.14112 1.34055,0.63501 0,0.635 -1.69333,4.37444 -3.95111,4.37444 -1.69333,0 -4.65667,-6.20889 -4.65667,-7.62 z"
         style="font-family:Purisa;-inkscape-font-specification:Purisa"
         id="path858" />
    </g>
  </g>
</svg>
